<svg width="1287" height="744" viewBox="0 0 1287 744" fill="none" xmlns="http://www.w3.org/2000/svg">
<mask id="mask0_238_289" style="mask-type:luminance" maskUnits="userSpaceOnUse" x="0" y="0" width="1287" height="744">
<path d="M1286.24 0.348633H0.204102V743.279H1286.24V0.348633Z" fill="white"/>
</mask>
<g mask="url(#mask0_238_289)">
<path d="M1218.38 449.807C1172.93 567.487 1087.48 670.587 968.794 715.897C953.357 721.781 937.594 726.773 921.584 730.847C836.904 752.437 744.264 744.927 666.204 705.587C633.074 688.877 602.864 666.797 569.614 650.327C536.364 633.857 498.394 623.077 462.204 631.207C431.044 638.207 404.754 658.267 378.284 676.137C315.884 718.267 240.854 751.607 166.964 737.137C132.964 730.487 99.4838 712.067 83.6938 681.277C48.7938 613.207 114.614 532.277 101.284 456.997C92.7538 408.817 53.7938 372.737 29.5738 330.217C-11.8762 257.487 -6.97615 160.877 41.6238 92.7269C90.2238 24.5769 179.944 -11.5731 262.204 3.88693C362.514 22.7469 438.354 107.637 535.894 137.677C596.894 156.447 663.124 150.847 721.384 126.127C815.514 86.1769 944.834 24.9069 1050.76 34.8869C1107.09 40.1969 1162.34 65.1969 1199.52 107.887C1246.52 161.777 1260.61 238.287 1252.77 309.347C1247.39 357.45 1235.83 404.659 1218.38 449.807Z" fill="url(#paint0_linear_238_289)"/>
<path d="M1248.62 542.889C1246.53 542.887 1244.45 542.635 1242.42 542.139C1236 540.561 1230.43 536.594 1226.84 531.046C1223.25 525.498 1221.91 518.788 1223.09 512.287C1224.28 505.786 1227.91 499.983 1233.23 496.063C1238.55 492.144 1245.17 490.403 1251.73 491.197C1258.29 491.991 1264.3 495.259 1268.53 500.334C1272.77 505.409 1274.9 511.909 1274.51 518.506C1274.11 525.103 1271.21 531.3 1266.4 535.831C1261.59 540.363 1255.23 542.887 1248.62 542.889ZM1248.55 502.709C1245.11 502.72 1241.79 503.99 1239.22 506.281C1236.65 508.571 1235.01 511.723 1234.6 515.142C1234.2 518.561 1235.06 522.009 1237.02 524.837C1238.98 527.664 1241.91 529.675 1245.26 530.489C1248.89 531.37 1252.72 530.772 1255.91 528.829C1259.1 526.885 1261.38 523.754 1262.26 520.124C1263.15 516.495 1262.55 512.664 1260.6 509.475C1258.66 506.286 1255.53 504 1251.9 503.119C1250.8 502.846 1249.68 502.705 1248.55 502.699V502.709Z" fill="#E7F6FF"/>
<path d="M1224.95 570.396C1226.42 564.315 1222.69 558.189 1216.6 556.715C1210.52 555.24 1204.4 558.975 1202.92 565.056C1201.45 571.137 1205.18 577.262 1211.26 578.737C1217.35 580.211 1223.47 576.477 1224.95 570.396Z" fill="#E7F6FF"/>
<path d="M55.394 540.416C48.5255 540.266 41.9934 537.413 37.2158 532.476C32.4381 527.539 29.8005 520.917 29.8756 514.048C29.9506 507.178 32.7323 500.615 37.6167 495.784C42.501 490.952 49.0939 488.243 55.964 488.243C62.8342 488.243 69.427 490.952 74.3114 495.784C79.1958 500.615 81.9774 507.178 82.0525 514.048C82.1275 520.917 79.4899 527.539 74.7123 532.476C69.9346 537.413 63.4025 540.266 56.534 540.416H55.394ZM55.394 500.246H54.804C51.0944 500.327 47.5662 501.867 44.9854 504.533C42.4047 507.199 40.9797 510.775 41.0199 514.486C41.06 518.196 42.5621 521.74 45.2 524.35C47.8378 526.959 51.3985 528.423 55.109 528.423C58.8195 528.423 62.3802 526.959 65.0181 524.35C67.656 521.74 69.158 518.196 69.1982 514.486C69.2384 510.775 67.8134 507.199 65.2326 504.533C62.6518 501.867 59.1236 500.327 55.414 500.246H55.394Z" fill="#E7F6FF"/>
<path d="M36.7931 584.199C43.0447 583.929 47.894 578.643 47.6243 572.391C47.3546 566.14 42.0681 561.29 35.8165 561.56C29.565 561.83 24.7157 567.116 24.9853 573.368C25.255 579.619 30.5415 584.469 36.7931 584.199Z" fill="#E7F6FF"/>
<path d="M709.284 118.606C703.056 118.612 697.031 116.389 692.3 112.337C687.569 108.286 684.445 102.675 683.494 96.5193C682.542 90.3641 683.825 84.0715 687.112 78.7806C690.398 73.4897 695.47 69.5502 701.409 67.6752C707.349 65.8002 713.763 66.1136 719.492 68.5587C725.22 71.0038 729.884 75.419 732.639 81.005C735.394 86.591 736.058 92.9788 734.51 99.012C732.963 105.045 729.307 110.325 724.204 113.896C719.83 116.957 714.622 118.601 709.284 118.606ZM709.204 78.4459C705.564 78.4423 702.063 79.8437 699.431 82.3579C696.798 84.8721 695.238 88.3052 695.074 91.9416C694.911 95.578 696.157 99.1372 698.553 101.878C700.95 104.618 704.311 106.328 707.937 106.65C711.562 106.973 715.173 105.885 718.016 103.611C720.858 101.338 722.714 98.0544 723.196 94.4463C723.678 90.8383 722.749 87.1835 720.602 84.2436C718.456 81.3038 715.257 79.3057 711.674 78.6659C710.859 78.5205 710.032 78.4469 709.204 78.4459Z" fill="#E7F6FF"/>
<path d="M656.406 120.022C661.537 116.455 662.805 109.404 659.238 104.273C655.672 99.1425 648.621 97.8744 643.49 101.441C638.359 105.007 637.091 112.058 640.657 117.189C644.224 122.32 651.275 123.589 656.406 120.022Z" fill="#E7F6FF"/>
<path d="M1286.2 253.006C1286.2 242.011 1281.83 231.465 1274.06 223.69C1266.28 215.914 1255.74 211.546 1244.74 211.546C1243.82 211.546 1242.91 211.546 1242.01 211.636C1242.07 210.736 1242.1 209.826 1242.1 208.906C1242.1 203.014 1240.84 197.189 1238.41 191.821C1235.98 186.452 1232.44 181.663 1228.01 177.773C1223.58 173.883 1218.38 170.981 1212.74 169.261C1207.11 167.54 1201.17 167.041 1195.33 167.796C1189.48 168.552 1183.87 170.544 1178.85 173.64C1173.84 176.737 1169.54 180.867 1166.25 185.754C1162.96 190.642 1160.75 196.175 1159.76 201.984C1158.78 207.794 1159.04 213.747 1160.54 219.446C1155.53 215.813 1149.77 213.347 1143.68 212.23C1137.59 211.113 1131.33 211.374 1125.36 212.993C1119.38 214.611 1113.85 217.547 1109.15 221.585C1104.46 225.623 1100.74 230.66 1098.24 236.326C1095.75 241.993 1094.56 248.145 1094.76 254.332C1094.96 260.519 1096.54 266.582 1099.39 272.079C1102.23 277.575 1106.27 282.364 1111.21 286.094C1116.15 289.825 1121.86 292.402 1127.93 293.636C1130.41 300.204 1134.51 306.036 1139.86 310.585C1145.2 315.133 1151.62 318.25 1158.49 319.643C1165.37 321.036 1172.5 320.66 1179.19 318.55C1185.88 316.439 1191.93 312.663 1196.77 307.576C1201.72 311.312 1207.44 313.89 1213.52 315.12C1219.6 316.351 1225.87 316.203 1231.88 314.687C1237.9 313.171 1243.49 310.325 1248.26 306.361C1253.03 302.396 1256.84 297.412 1259.43 291.776C1267.3 288.793 1274.07 283.487 1278.86 276.562C1283.64 269.637 1286.2 261.422 1286.2 253.006Z" fill="white"/>
<path d="M191.654 153.347C191.659 147.9 190.591 142.505 188.51 137.471C186.43 132.437 183.377 127.862 179.528 124.008C175.679 120.154 171.108 117.096 166.076 115.01C161.044 112.923 155.651 111.848 150.204 111.847C149.284 111.847 148.374 111.847 147.474 111.937C147.534 111.037 147.564 110.127 147.564 109.207C147.563 103.315 146.305 97.4895 143.876 92.121C141.446 86.7525 137.9 81.9636 133.474 78.0735C129.048 74.1834 123.844 71.2814 118.208 69.5611C112.572 67.8407 106.634 67.3416 100.79 68.0968C94.9462 68.852 89.3302 70.8443 84.3168 73.9408C79.3034 77.0374 75.0076 81.1671 71.7159 86.0545C68.4242 90.942 66.2121 96.4751 65.2272 102.285C64.2422 108.095 64.507 114.048 66.0039 119.747C60.9931 116.113 55.2322 113.647 49.1439 112.531C43.0557 111.414 36.7947 111.675 30.8204 113.293C24.846 114.912 19.31 117.848 14.6185 121.886C9.92694 125.924 6.19904 130.961 3.70832 136.627C1.2176 142.294 0.0272826 148.446 0.22471 154.633C0.422138 160.819 2.0023 166.883 4.84924 172.379C7.69618 177.876 11.7377 182.665 16.6771 186.395C21.6165 190.125 27.3285 192.703 33.3939 193.937C35.8726 200.499 39.9758 206.325 45.3193 210.869C50.6629 215.414 57.072 218.528 63.947 219.921C70.8219 221.314 77.9378 220.939 84.6287 218.833C91.3195 216.727 97.3666 212.957 102.204 207.877C107.153 211.613 112.876 214.191 118.954 215.421C125.031 216.652 131.306 216.504 137.319 214.987C143.331 213.471 148.927 210.626 153.694 206.661C158.461 202.696 162.278 197.713 164.864 192.077C172.73 189.1 179.505 183.801 184.29 176.884C189.074 169.967 191.643 161.758 191.654 153.347Z" fill="white"/>
<path d="M954.384 743.278H357.884V730.278H954.384C956.108 730.278 957.761 730.963 958.98 732.181C960.199 733.4 960.884 735.054 960.884 736.778C960.884 738.502 960.199 740.155 958.98 741.374C957.761 742.593 956.108 743.278 954.384 743.278Z" fill="#426572"/>
<path d="M331.204 743.278H294.734C293.01 743.278 291.357 742.593 290.138 741.374C288.919 740.155 288.234 738.502 288.234 736.778C288.234 735.054 288.919 733.4 290.138 732.181C291.357 730.963 293.01 730.278 294.734 730.278H331.204C332.928 730.278 334.581 730.963 335.8 732.181C337.019 733.4 337.704 735.054 337.704 736.778C337.704 738.502 337.019 740.155 335.8 741.374C334.581 742.593 332.928 743.278 331.204 743.278Z" fill="#426572"/>
<path d="M271.064 743.278H259.444C257.72 743.278 256.067 742.593 254.848 741.374C253.629 740.155 252.944 738.502 252.944 736.778C252.944 735.054 253.629 733.4 254.848 732.181C256.067 730.963 257.72 730.278 259.444 730.278H271.064C272.788 730.278 274.441 730.963 275.66 732.181C276.879 733.4 277.564 735.054 277.564 736.778C277.564 738.502 276.879 740.155 275.66 741.374C274.441 742.593 272.788 743.278 271.064 743.278Z" fill="#426572"/>
<path d="M1163.54 743.278H980.204V730.278H1163.54C1165.26 730.278 1166.92 730.963 1168.14 732.181C1169.36 733.4 1170.04 735.054 1170.04 736.778C1170.04 738.502 1169.36 740.155 1168.14 741.374C1166.92 742.593 1165.26 743.278 1163.54 743.278Z" fill="#426572"/>
<path d="M226.204 743.278H42.854V730.278H226.204C227.928 730.278 229.581 730.963 230.8 732.181C232.019 733.4 232.704 735.054 232.704 736.778C232.704 738.502 232.019 740.155 230.8 741.374C229.581 742.593 227.928 743.278 226.204 743.278Z" fill="#426572"/>
<path d="M767.304 214.818V676.818C767.303 687.844 763.657 698.559 756.935 707.298C750.212 716.037 740.79 722.309 730.134 725.138C725.96 726.239 721.661 726.793 717.344 726.788H499.274C486.013 726.788 473.295 721.52 463.919 712.144C454.542 702.767 449.274 690.049 449.274 676.788V214.788C449.259 205.553 451.815 196.495 456.654 188.628C457.284 187.628 457.954 186.628 458.654 185.628C464.161 177.958 471.726 172.002 480.474 168.448C486.428 166.027 492.796 164.788 499.224 164.798H717.324C723.89 164.801 730.391 166.097 736.457 168.612C742.522 171.127 748.032 174.812 752.673 179.457C757.314 184.102 760.995 189.615 763.506 195.683C766.016 201.75 767.306 208.252 767.304 214.818Z" fill="#E8EDF7"/>
<path d="M711.334 734.836H493.334C478.482 734.836 464.238 728.937 453.736 718.435C443.234 707.933 437.334 693.688 437.334 678.836V216.837C437.319 202.691 442.681 189.068 452.334 178.727C452.974 178.027 453.694 177.287 454.584 176.447C464.994 166.422 478.891 160.832 493.344 160.857H711.344C726.196 160.857 740.44 166.757 750.942 177.259C761.444 187.761 767.344 202.005 767.344 216.857V678.857C767.352 686.213 765.909 693.499 763.097 700.297C760.286 707.094 756.161 713.271 750.96 718.473C745.758 723.674 739.581 727.798 732.783 730.609C725.986 733.421 718.7 734.865 711.344 734.857L711.334 734.836ZM493.334 172.837C481.977 172.816 471.057 177.212 462.884 185.097C462.194 185.757 461.644 186.307 461.154 186.847C453.553 194.985 449.334 205.711 449.354 216.847V678.846C449.354 690.515 453.99 701.708 462.241 709.96C470.493 718.211 481.684 722.846 493.354 722.846H711.354C717.134 722.854 722.859 721.721 728.201 719.513C733.543 717.304 738.397 714.065 742.484 709.977C746.572 705.89 749.812 701.035 752.021 695.693C754.229 690.351 755.362 684.626 755.354 678.846V216.847C755.354 205.177 750.718 193.986 742.467 185.734C734.215 177.483 723.023 172.847 711.354 172.847L493.334 172.837Z" fill="#426572"/>
<path d="M701.944 196.837H504.684C488.187 196.837 474.814 210.211 474.814 226.707V670.967C474.814 687.464 488.187 700.837 504.684 700.837H701.944C718.441 700.837 731.814 687.464 731.814 670.967V226.707C731.814 210.211 718.441 196.837 701.944 196.837Z" fill="#C1CEDE"/>
<path d="M509.204 215.837H697.444C701.91 215.837 706.193 217.611 709.351 220.77C712.51 223.928 714.284 228.211 714.284 232.677V658.037C714.284 664.522 711.708 670.741 707.122 675.326C702.537 679.911 696.318 682.487 689.834 682.487H516.834C510.349 682.487 504.13 679.911 499.545 675.326C494.96 670.741 492.384 664.522 492.384 658.037V232.677C492.384 228.214 494.155 223.934 497.309 220.777C500.463 217.619 504.741 215.843 509.204 215.837Z" fill="#F1F6FE"/>
<path d="M701.934 704.837H504.684C495.174 704.827 486.056 701.044 479.332 694.32C472.607 687.595 468.824 678.477 468.814 668.967V224.707C468.824 215.197 472.607 206.08 479.332 199.355C486.056 192.63 495.174 188.848 504.684 188.837H701.934C711.444 188.848 720.561 192.63 727.286 199.355C734.011 206.08 737.793 215.197 737.804 224.707V668.957C737.796 678.469 734.015 687.589 727.29 694.316C720.565 701.043 711.446 704.827 701.934 704.837ZM504.684 200.837C498.356 200.845 492.289 203.363 487.814 207.837C483.339 212.312 480.822 218.379 480.814 224.707V668.957C480.822 675.286 483.339 681.352 487.814 685.827C492.289 690.302 498.356 692.819 504.684 692.827H701.934C708.262 692.819 714.329 690.302 718.804 685.827C723.279 681.352 725.796 675.286 725.804 668.957V224.707C725.796 218.379 723.279 212.312 718.804 207.837C714.329 203.363 708.262 200.845 701.934 200.837H504.684Z" fill="#426572"/>
<path d="M674.024 354.837H543.694C537.066 354.837 531.694 360.21 531.694 366.837V456.837C531.694 463.465 537.066 468.837 543.694 468.837H674.024C680.651 468.837 686.024 463.465 686.024 456.837V366.837C686.024 360.21 680.651 354.837 674.024 354.837Z" fill="#87D6FE"/>
<path d="M673.754 476.837H543.424C538.65 476.837 534.071 474.941 530.696 471.565C527.32 468.19 525.424 463.611 525.424 458.837V368.837C525.424 364.063 527.32 359.485 530.696 356.109C534.071 352.734 538.65 350.837 543.424 350.837H673.754C678.528 350.837 683.106 352.734 686.482 356.109C689.857 359.485 691.754 364.063 691.754 368.837V458.837C691.754 463.611 689.857 468.19 686.482 471.565C683.106 474.941 678.528 476.837 673.754 476.837ZM543.424 362.837C541.832 362.837 540.306 363.469 539.181 364.595C538.056 365.72 537.424 367.246 537.424 368.837V458.837C537.424 460.429 538.056 461.955 539.181 463.08C540.306 464.205 541.832 464.837 543.424 464.837H673.754C675.345 464.837 676.871 464.205 677.996 463.08C679.122 461.955 679.754 460.429 679.754 458.837V368.837C679.754 367.246 679.122 365.72 677.996 364.595C676.871 363.469 675.345 362.837 673.754 362.837H543.424Z" fill="#426572"/>
<path d="M671.214 490.837H547.864C541.236 490.837 535.864 496.21 535.864 502.837V541.837C535.864 548.465 541.236 553.837 547.864 553.837H671.214C677.841 553.837 683.214 548.465 683.214 541.837V502.837C683.214 496.21 677.841 490.837 671.214 490.837Z" fill="#A8EF9E"/>
<path d="M669.354 560.837H546.014C541.24 560.837 536.661 558.941 533.286 555.565C529.91 552.19 528.014 547.611 528.014 542.837V503.837C528.014 499.063 529.91 494.485 533.286 491.109C536.661 487.734 541.24 485.837 546.014 485.837H669.354C674.127 485.837 678.706 487.734 682.082 491.109C685.457 494.485 687.354 499.063 687.354 503.837V542.837C687.354 547.611 685.457 552.19 682.082 555.565C678.706 558.941 674.127 560.837 669.354 560.837ZM546.004 497.837C544.412 497.837 542.886 498.469 541.761 499.595C540.636 500.72 540.004 502.246 540.004 503.837V542.837C540.004 544.429 540.636 545.955 541.761 547.08C542.886 548.205 544.412 548.837 546.004 548.837H669.354C670.945 548.837 672.471 548.205 673.596 547.08C674.721 545.955 675.354 544.429 675.354 542.837V503.837C675.354 502.246 674.721 500.72 673.596 499.595C672.471 498.469 670.945 497.837 669.354 497.837H546.004Z" fill="#426572"/>
<path d="M671.214 575.837H547.864C541.236 575.837 535.864 581.21 535.864 587.837V626.837C535.864 633.465 541.236 638.837 547.864 638.837H671.214C677.841 638.837 683.214 633.465 683.214 626.837V587.837C683.214 581.21 677.841 575.837 671.214 575.837Z" fill="#A8EF9E"/>
<path d="M669.354 645.837H546.014C541.24 645.837 536.661 643.941 533.286 640.565C529.91 637.19 528.014 632.611 528.014 627.837V588.837C528.014 584.063 529.91 579.485 533.286 576.109C536.661 572.734 541.24 570.837 546.014 570.837H669.354C674.127 570.837 678.706 572.734 682.082 576.109C685.457 579.485 687.354 584.063 687.354 588.837V627.837C687.354 632.611 685.457 637.19 682.082 640.565C678.706 643.941 674.127 645.837 669.354 645.837ZM546.004 582.837C544.412 582.837 542.886 583.469 541.761 584.595C540.636 585.72 540.004 587.246 540.004 588.837V627.837C540.004 629.429 540.636 630.955 541.761 632.08C542.886 633.205 544.412 633.837 546.004 633.837H669.354C670.945 633.837 672.471 633.205 673.596 632.08C674.721 630.955 675.354 629.429 675.354 627.837V588.837C675.354 587.246 674.721 585.72 673.596 584.595C672.471 583.469 670.945 582.837 669.354 582.837H546.004Z" fill="#426572"/>
<path d="M719.144 230.469V241.929C719.144 236.109 714.424 229.539 708.604 229.539L630.604 223.629C624.784 223.629 625.974 230.569 625.974 236.389V230.479C625.974 227.684 627.084 225.003 629.061 223.026C631.037 221.05 633.718 219.939 636.514 219.939H708.514C709.905 219.927 711.284 220.191 712.572 220.715C713.861 221.238 715.033 222.012 716.021 222.991C717.009 223.97 717.794 225.134 718.33 226.418C718.866 227.701 719.142 229.078 719.144 230.469Z" fill="#307FC3"/>
<path opacity="0.5" d="M718.774 229.347V247.187L627.204 223.887C628.143 222.34 629.464 221.062 631.04 220.174C632.617 219.286 634.395 218.818 636.204 218.817H708.204C709.59 218.813 710.963 219.082 712.244 219.61C713.526 220.137 714.691 220.912 715.673 221.89C716.655 222.868 717.434 224.03 717.966 225.309C718.498 226.589 718.773 227.961 718.774 229.347Z" fill="#4DA7DF"/>
<path opacity="0.1" d="M822.444 287.735C820.878 288.463 819.171 288.838 817.444 288.835H822.444V287.735Z" fill="#606060"/>
<path opacity="0.2" d="M537.324 173.837V296.087C537.324 299.27 538.588 302.322 540.838 304.573C543.089 306.823 546.141 308.087 549.324 308.087H766.814V286.087H822.444V146.837C822.444 143.655 821.179 140.602 818.929 138.352C816.678 136.102 813.626 134.837 810.444 134.837H565.324V173.837H537.324Z" fill="#606060"/>
<path d="M838.444 112.837H577.444C570.816 112.837 565.444 118.21 565.444 124.837V271.837C565.444 278.465 570.816 283.837 577.444 283.837H838.444C845.071 283.837 850.444 278.465 850.444 271.837V124.837C850.444 118.21 845.071 112.837 838.444 112.837Z" fill="white"/>
<path d="M752.444 269.337H567.444V280.337H752.444V269.337Z" fill="#DEE6F1"/>
<path d="M848.324 273.087V126.087C848.324 122.905 847.059 119.852 844.809 117.602C842.559 115.352 839.506 114.087 836.324 114.087H751.444V285.087H836.324C839.506 285.087 842.559 283.823 844.809 281.573C847.059 279.322 848.324 276.27 848.324 273.087Z" fill="#E8837E"/>
<path d="M822.444 287.737C820.878 288.465 819.171 288.841 817.444 288.837H834.444C836.085 288.838 837.71 288.503 839.217 287.851C840.724 287.199 842.081 286.245 843.204 285.047C844.162 284.021 844.937 282.837 845.494 281.547C845.676 281.119 845.836 280.682 845.974 280.237C846.3 279.134 846.465 277.988 846.464 276.837V129.837C846.464 126.655 845.199 123.602 842.949 121.352C840.699 119.102 837.646 117.837 834.464 117.837H817.464C820.646 117.837 823.699 119.102 825.949 121.352C828.199 123.602 829.464 126.655 829.464 129.837V276.837C829.467 279.352 828.672 281.803 827.194 283.837C826.891 284.277 826.556 284.695 826.194 285.087C825.854 285.439 825.497 285.772 825.124 286.087C824.308 286.755 823.407 287.31 822.444 287.737Z" fill="#D66765"/>
<path d="M838.324 292.087H577.324C574.453 292.085 571.624 291.395 569.074 290.076C566.523 288.758 564.326 286.848 562.664 284.507C560.486 281.47 559.318 277.825 559.324 274.087V127.087C559.322 126.234 559.382 125.382 559.504 124.537C560.131 120.255 562.275 116.34 565.546 113.504C568.816 110.669 572.995 109.101 577.324 109.087H838.324C840.117 109.085 841.901 109.354 843.614 109.887H843.954L844.954 110.377C848.287 111.724 851.144 114.033 853.162 117.008C855.179 119.984 856.266 123.492 856.284 127.087V274.087C856.281 277.569 855.269 280.975 853.37 283.893C851.471 286.811 848.766 289.115 845.584 290.527C843.301 291.555 840.827 292.086 838.324 292.087ZM577.324 121.087C575.877 121.088 574.478 121.611 573.387 122.561C572.295 123.512 571.584 124.824 571.384 126.257C571.343 126.532 571.323 126.81 571.324 127.087V274.087C571.323 275.325 571.711 276.532 572.434 277.537C572.985 278.322 573.718 278.964 574.568 279.407C575.419 279.851 576.364 280.084 577.324 280.087H838.324C839.151 280.09 839.969 279.916 840.724 279.577C841.792 279.111 842.702 278.343 843.341 277.368C843.98 276.393 844.322 275.253 844.324 274.087V127.087C844.323 126.035 844.045 125.002 843.518 124.091C842.992 123.18 842.235 122.423 841.324 121.897L840.324 121.417C839.682 121.19 839.005 121.078 838.324 121.087H577.324Z" fill="#426572"/>
<path d="M759.444 116.837H747.444V284.837H759.444V116.837Z" fill="#426572"/>
<path d="M607.664 230.348C607.697 230.037 607.753 229.73 607.834 229.428L624.534 175.058C624.747 174.475 625.086 173.946 625.527 173.509C625.968 173.072 626.499 172.737 627.084 172.528C628.547 171.907 630.125 171.601 631.714 171.628C633.326 171.604 634.923 171.946 636.384 172.628C636.995 172.878 637.544 173.259 637.992 173.744C638.44 174.23 638.775 174.808 638.974 175.438L655.654 229.808C655.734 230.089 655.791 230.377 655.824 230.668C655.824 231.935 655.047 233.028 653.494 233.948C652.066 234.832 650.423 235.309 648.744 235.328C646.611 235.328 645.344 234.578 644.944 233.078L641.654 221.578H623.134L619.914 233.078C619.441 234.591 618.014 235.348 615.634 235.348C613.744 235.346 611.887 234.853 610.244 233.918C608.524 232.965 607.664 231.775 607.664 230.348ZM625.604 212.778H640.554L633.034 186.238L625.604 212.778Z" fill="#426572"/>
<path d="M663.114 231.886V175.616C663.131 175.131 663.265 174.658 663.506 174.236C663.746 173.815 664.085 173.458 664.494 173.196C665.532 172.484 666.776 172.133 668.034 172.196H683.334C689.5 172.196 694.427 173.779 698.114 176.946C701.8 180.113 703.644 185.113 703.644 191.946V215.546C703.644 222.406 701.8 227.406 698.114 230.546C694.427 233.686 689.504 235.286 683.344 235.346H668.044C666.786 235.409 665.542 235.058 664.504 234.346C664.088 234.082 663.743 233.719 663.501 233.29C663.259 232.861 663.125 232.379 663.114 231.886ZM674.354 225.486H683.354C689.407 225.486 692.434 222.173 692.434 215.546V191.946C692.434 185.319 689.407 182.006 683.354 182.006H674.354V225.486Z" fill="#426572"/>
</g>
<defs>
<linearGradient id="paint0_linear_238_289" x1="1.52385" y1="371.537" x2="1254.8" y2="371.537" gradientUnits="userSpaceOnUse">
<stop stop-color="#C5E9FA"/>
<stop offset="1" stop-color="#C4F4EA"/>
</linearGradient>
</defs>
</svg>
