<svg width="751" height="563" viewBox="0 0 751 563" fill="none" xmlns="http://www.w3.org/2000/svg">
<mask id="mask0_238_334" style="mask-type:luminance" maskUnits="userSpaceOnUse" x="0" y="0" width="751" height="563">
<path d="M750.675 0.489258H0.224609V562.239H750.675V0.489258Z" fill="white"/>
</mask>
<g mask="url(#mask0_238_334)">
<path d="M490.895 43.501H30.0346C16.0452 43.501 4.70459 54.8416 4.70459 68.831V183.121C4.70459 197.11 16.0452 208.451 30.0346 208.451H490.895C504.884 208.451 516.225 197.11 516.225 183.121V68.831C516.225 54.8416 504.884 43.501 490.895 43.501Z" fill="white"/>
<path d="M516.224 146.739V198.569C516.224 204.029 505.224 208.449 491.734 208.449H29.2244C15.6944 208.449 4.73438 204.029 4.73438 198.569V168.569C35.9144 176.829 71.4144 182.399 107.824 185.859C151.824 190.039 197.174 191.259 242.334 191.439C296.334 191.659 351.234 190.349 402.064 183.019C448.644 176.319 491.834 163.969 516.224 146.739Z" fill="#E8F0F9"/>
<path d="M490.415 212.64H29.5546C21.78 212.632 14.3259 209.541 8.82747 204.044C3.32903 198.548 0.235197 191.095 0.224609 183.32V69.0202C0.235197 61.2456 3.32903 53.7926 8.82747 48.296C14.3259 42.7995 21.78 39.7082 29.5546 39.7002H490.415C498.191 39.7082 505.647 42.8008 511.146 48.2996C516.644 53.7983 519.737 61.2539 519.745 69.0302V183.33C519.732 191.103 516.637 198.553 511.139 204.048C505.64 209.542 498.188 212.632 490.415 212.64ZM29.5546 47.7002C23.9009 47.7055 18.4801 49.9531 14.4814 53.95C10.4827 57.9468 8.23255 63.3665 8.22461 69.0202V183.32C8.22991 188.975 10.4789 194.398 14.4779 198.397C18.4769 202.396 23.8992 204.645 29.5546 204.65H490.415C496.07 204.645 501.493 202.396 505.492 198.397C509.491 194.398 511.74 188.975 511.745 183.32V69.0202C511.74 63.3648 509.491 57.9425 505.492 53.9435C501.493 49.9445 496.07 47.6955 490.415 47.6902L29.5546 47.7002Z" fill="#314E5D"/>
<path d="M721.894 299.501H195.104C181.115 299.501 169.774 310.841 169.774 324.831V439.121C169.774 453.11 181.115 464.451 195.104 464.451H721.894C735.883 464.451 747.224 453.11 747.224 439.121V324.831C747.224 310.841 735.883 299.501 721.894 299.501Z" fill="white"/>
<path d="M747.224 402.739V454.569C747.224 460.029 734.844 464.449 719.574 464.449H197.424C182.154 464.449 169.774 460.029 169.774 454.569V424.569C204.974 432.829 245.054 438.399 286.154 441.859C335.774 446.039 387.014 447.259 438.004 447.439C498.944 447.659 560.944 446.349 618.324 439.019C670.934 432.319 719.694 419.969 747.224 402.739Z" fill="#E8F0F9"/>
<path d="M378.545 299.911C324.145 303.171 248.545 300.021 201.635 312.011C179.365 317.691 173.875 328.711 170.285 337.821L170.355 312.311C170.355 309.041 170.665 305.481 176.575 302.981C183.885 299.901 196.715 299.661 208.015 299.671C263.495 299.691 324.165 297.491 378.545 299.911Z" fill="#4ED9FF"/>
<path d="M721.355 468.638H194.555C186.78 468.63 179.326 465.539 173.828 460.042C168.329 454.546 165.236 447.093 165.225 439.318V325.018C165.233 317.242 168.326 309.786 173.824 304.288C179.323 298.789 186.779 295.696 194.555 295.688H721.355C729.131 295.696 736.587 298.789 742.086 304.288C747.584 309.786 750.677 317.242 750.685 325.018V439.318C750.674 447.093 747.581 454.546 742.082 460.042C736.584 465.539 729.13 468.63 721.355 468.638ZM194.555 303.698C188.901 303.703 183.481 305.951 179.482 309.948C175.483 313.945 173.233 319.364 173.225 325.018V439.318C173.23 444.974 175.479 450.396 179.478 454.395C183.477 458.394 188.9 460.643 194.555 460.648H721.355C727.01 460.643 732.433 458.394 736.432 454.395C740.431 450.396 742.68 444.974 742.685 439.318V325.018C742.68 319.363 740.431 313.94 736.432 309.941C732.433 305.942 727.01 303.694 721.355 303.688L194.555 303.698Z" fill="#314E5D"/>
<path d="M648.675 3.86816H121.955C107.966 3.86816 96.6245 15.2088 96.6245 29.1982V499.388C96.6245 513.377 107.966 524.718 121.955 524.718H648.675C662.664 524.718 674.005 513.377 674.005 499.388V29.1982C674.005 15.2088 662.664 3.86816 648.675 3.86816Z" fill="#1DCDFF"/>
<path d="M674.005 329.868V493.488C674.005 510.718 661.625 524.678 646.355 524.678H124.225C108.955 524.678 96.5747 510.678 96.5747 493.488V398.868C131.775 424.948 171.845 442.548 212.935 453.478C262.555 466.688 313.785 470.548 364.765 471.108C425.705 471.798 487.685 467.658 545.065 444.508C597.725 423.288 646.485 384.268 674.005 329.868Z" fill="#1AB5E1"/>
<path d="M305.375 5.17867C250.985 15.4887 175.435 5.53867 128.485 43.3787C106.225 61.3187 100.735 96.1087 97.1445 124.878L97.2245 44.3487C97.2245 34.0387 97.5345 22.7687 103.445 14.8987C110.755 5.17867 123.585 4.42867 134.875 4.42867C190.335 4.48867 250.995 -2.33133 305.375 5.17867Z" fill="#4ED9FF"/>
<path d="M648.135 529.339H121.405C113.629 529.331 106.173 526.238 100.674 520.74C95.1753 515.241 92.0826 507.785 92.0747 500.009V29.8193C92.0826 22.0429 95.1753 14.5874 100.674 9.08859C106.173 3.58987 113.629 0.4972 121.405 0.489258H648.135C655.911 0.4972 663.367 3.58987 668.866 9.08859C674.365 14.5874 677.457 22.0429 677.465 29.8193V500.019C677.455 507.794 674.361 515.247 668.862 520.743C663.364 526.24 655.91 529.331 648.135 529.339ZM121.405 8.48926C115.75 8.49456 110.327 10.7436 106.328 14.7426C102.329 18.7416 100.08 24.1639 100.075 29.8193V500.019C100.08 505.674 102.329 511.097 106.328 515.096C110.327 519.095 115.75 521.344 121.405 521.349H648.135C653.791 521.344 659.213 519.095 663.212 515.096C667.211 511.097 669.46 505.674 669.465 500.019V29.8193C669.46 24.1639 667.211 18.7416 663.212 14.7426C659.213 10.7436 653.791 8.49456 648.135 8.48926H121.405Z" fill="#314E5D"/>
<path d="M608.195 37.4502H164.775C156.016 37.4502 148.915 44.551 148.915 53.3102V470.06C148.915 478.819 156.016 485.92 164.775 485.92H608.195C616.954 485.92 624.055 478.819 624.055 470.06V53.3102C624.055 44.551 616.954 37.4502 608.195 37.4502Z" fill="white"/>
<path d="M623.295 50.1674V137.247H148.125V50.1674C148.125 43.4874 154.925 38.0674 163.315 38.0674H608.105C616.495 38.0674 623.295 43.4874 623.295 50.1674Z" fill="#DCEAEF"/>
<path d="M607.625 492.41H164.225C158.959 492.405 153.911 490.311 150.188 486.587C146.464 482.864 144.37 477.816 144.365 472.55V52.5502C144.373 47.2864 146.468 42.2406 150.191 38.5194C153.914 34.7982 158.961 32.7055 164.225 32.7002H607.625C612.89 32.7055 617.939 34.7996 621.662 38.5229C625.386 42.2463 627.48 47.2947 627.485 52.5602V472.56C627.477 477.824 625.382 482.87 621.659 486.591C617.936 490.312 612.889 492.405 607.625 492.41ZM164.225 40.7002C161.081 40.7055 158.067 41.9568 155.844 44.1798C153.621 46.4028 152.37 49.4164 152.365 52.5602V472.56C152.373 475.702 153.625 478.713 155.848 480.934C158.071 483.155 161.083 484.405 164.225 484.41H607.625C610.769 484.405 613.782 483.153 616.005 480.93C618.228 478.707 619.48 475.694 619.485 472.55V52.5502C619.477 49.4081 618.225 46.3971 616.002 44.1763C613.779 41.9554 610.767 40.7055 607.625 40.7002H164.225Z" fill="#314E5D"/>
<path d="M403.824 96.0791H201.734V113.539H403.824V96.0791Z" fill="white"/>
<path d="M195.435 180.219H294.305V176.069H195.435V180.219Z" fill="#CED5D8"/>
<path d="M195.435 189.36H410.625V185.21H195.435V189.36Z" fill="#CED5D8"/>
<path d="M195.435 198.501H294.305V194.351H195.435V198.501Z" fill="#CED5D8"/>
<path d="M195.435 207.637H410.625V203.487H195.435V207.637Z" fill="#CED5D8"/>
<path d="M195.435 216.778H294.305V212.628H195.435V216.778Z" fill="#CED5D8"/>
<path d="M195.435 225.911H410.625V221.761H195.435V225.911Z" fill="#CED5D8"/>
<path d="M195.435 262.809H294.305V258.659H195.435V262.809Z" fill="#CED5D8"/>
<path d="M195.435 271.95H410.625V267.8H195.435V271.95Z" fill="#CED5D8"/>
<path d="M195.435 281.091H294.305V276.941H195.435V281.091Z" fill="#CED5D8"/>
<path d="M195.435 290.227H410.625V286.077H195.435V290.227Z" fill="#CED5D8"/>
<path d="M195.435 299.368H294.305V295.218H195.435V299.368Z" fill="#CED5D8"/>
<path d="M195.435 308.501H410.625V304.351H195.435V308.501Z" fill="#CED5D8"/>
<path d="M195.435 345.399H294.305V341.249H195.435V345.399Z" fill="#CED5D8"/>
<path d="M195.435 354.54H410.625V350.39H195.435V354.54Z" fill="#CED5D8"/>
<path d="M195.435 363.68H294.305V359.53H195.435V363.68Z" fill="#CED5D8"/>
<path d="M195.435 372.817H410.625V368.667H195.435V372.817Z" fill="#CED5D8"/>
<path d="M195.435 381.958H294.305V377.808H195.435V381.958Z" fill="#CED5D8"/>
<path d="M195.435 391.091H410.625V386.941H195.435V391.091Z" fill="#CED5D8"/>
<path d="M529.185 65.4112H603.405V56.6812H529.185V65.4112Z" fill="#EEA248"/>
<path d="M444.725 65.4112H518.945V56.6812H444.725V65.4112Z" fill="#EEA248"/>
<path d="M171.734 69.4582C176.384 69.4582 180.154 65.6884 180.154 61.0382C180.154 56.388 176.384 52.6182 171.734 52.6182C167.084 52.6182 163.314 56.388 163.314 61.0382C163.314 65.6884 167.084 69.4582 171.734 69.4582Z" fill="#EEA248"/>
<path d="M469.409 376.729L442.561 402.189L497.038 459.635L523.886 434.176L469.409 376.729Z" fill="#314E5D"/>
<g opacity="0.5">
<path opacity="0.5" d="M446.116 377.637C481.105 344.457 482.572 289.195 449.391 254.206C416.211 219.217 360.949 217.75 325.96 250.93C290.971 284.111 289.504 339.373 322.684 374.362C355.865 409.351 411.127 410.817 446.116 377.637Z" fill="#8BDDEB"/>
<path opacity="0.5" d="M340.025 364.739C331.195 355.433 324.526 344.295 320.492 332.117C316.458 319.94 315.158 307.022 316.686 294.285C318.214 281.548 322.531 269.305 329.331 258.426C336.13 247.548 345.245 238.303 356.025 231.349C344.49 235.576 333.977 242.19 325.173 250.758C316.369 259.326 309.472 269.655 304.934 281.071C300.395 292.487 298.316 304.732 298.834 317.006C299.351 329.28 302.453 341.307 307.937 352.3C313.42 363.293 321.162 373.006 330.656 380.802C340.15 388.599 351.182 394.304 363.032 397.545C374.882 400.786 387.282 401.49 399.422 399.611C411.563 397.732 423.17 393.311 433.485 386.639C417.47 392.517 400.085 393.576 383.476 389.684C366.866 385.792 351.761 377.12 340.025 364.739Z" fill="#62D6F8"/>
</g>
<path d="M481.324 221.07C471.809 211.013 460.796 202.489 448.674 195.8C448.464 195.67 448.254 195.56 448.024 195.45C420 180.189 387.463 175.392 356.228 181.915C324.992 188.439 297.095 205.858 277.522 231.06C257.949 256.261 247.977 287.602 249.388 319.481C250.799 351.359 263.501 381.696 285.224 405.07C285.534 405.42 285.854 405.76 286.224 406.07C296.157 416.57 307.723 425.394 320.474 432.2L320.834 432.39C349.013 447.295 381.571 451.703 412.699 444.828C443.827 437.953 471.5 420.242 490.78 394.855C510.061 369.468 519.694 338.057 517.962 306.226C516.23 274.395 503.245 244.215 481.324 221.07ZM448.434 254.21C460.317 266.74 468.218 282.512 471.137 299.531C474.056 316.551 471.863 334.055 464.835 349.828C457.806 365.601 446.259 378.936 431.651 388.146C417.044 397.357 400.034 402.028 382.772 401.571C365.509 401.114 348.77 395.548 334.671 385.577C320.572 375.606 309.747 361.679 303.563 345.555C297.38 329.432 296.116 311.837 299.933 294.996C303.749 278.154 312.474 262.823 325.004 250.94C333.323 243.05 343.115 236.876 353.821 232.77C364.527 228.665 375.936 226.709 387.398 227.013C398.86 227.318 410.15 229.877 420.622 234.545C431.095 239.214 440.545 245.899 448.434 254.22V254.21Z" fill="#E7E7E7"/>
<path d="M490.754 391.911C467.923 413.564 438.221 426.524 406.819 428.534C375.417 430.545 344.305 421.479 318.898 402.915C293.492 384.35 275.401 357.463 267.775 326.935C260.15 296.407 263.472 264.172 277.164 235.841C266.096 250.907 258.29 268.116 254.246 286.368C250.203 304.621 250.009 323.516 253.679 341.847C257.348 360.178 264.799 377.543 275.557 392.833C286.315 408.123 300.143 421.001 316.158 430.646C332.173 440.291 350.023 446.491 368.568 448.85C387.114 451.208 405.948 449.674 423.867 444.344C441.786 439.015 458.398 430.007 472.64 417.897C486.882 405.787 498.443 390.84 506.584 374.011C501.846 380.433 496.548 386.423 490.754 391.911Z" fill="#CED0D0"/>
<path d="M384.885 452.759C361.863 452.77 339.207 447 318.995 435.979L318.495 435.709C289.141 419.559 266.611 393.346 255.055 361.899C254.795 361.219 254.545 360.509 254.315 359.779C245.187 333.514 244.176 305.109 251.416 278.262C258.655 251.415 273.809 227.37 294.905 209.255C316.001 191.14 342.061 179.796 369.694 176.699C397.327 173.601 425.252 178.894 449.835 191.889C450.105 192.019 450.375 192.169 450.635 192.319C476.513 206.231 497.295 228.013 509.975 254.516C522.656 281.018 526.579 310.868 521.175 339.747C515.772 368.626 501.323 395.038 479.918 415.163C458.513 435.288 431.262 448.083 402.105 451.699C396.392 452.403 390.641 452.757 384.885 452.759ZM385.115 183.759C364.289 183.766 343.767 188.756 325.263 198.312C306.759 207.868 290.81 221.712 278.747 238.689C266.685 255.666 258.859 275.283 255.924 295.901C252.989 316.519 255.029 337.54 261.875 357.209V357.329C262.065 357.929 262.285 358.529 262.505 359.119C273.394 388.782 294.645 413.506 322.335 428.729L322.685 428.919C349.985 443.852 381.725 448.535 412.175 442.121C442.624 435.707 469.778 418.62 488.736 393.944C507.693 369.267 517.205 338.627 515.555 307.553C513.904 276.479 501.2 247.018 479.735 224.489C470.173 214.377 459.048 205.869 446.785 199.289L446.635 199.199L446.315 199.029L446.165 198.949C427.361 188.979 406.399 183.774 385.115 183.789V183.759ZM385.115 405.569C384.285 405.569 383.465 405.569 382.635 405.569C358.557 405.241 335.586 395.404 318.733 378.204C301.88 361.004 292.513 337.837 292.677 313.757C292.841 289.677 302.521 266.639 319.607 249.67C336.692 232.701 359.795 223.177 383.875 223.177C407.955 223.177 431.058 232.701 448.144 249.67C465.229 266.639 474.909 289.677 475.073 313.757C475.237 337.837 465.87 361.004 449.017 378.204C432.165 395.404 409.193 405.241 385.115 405.569ZM385.005 230.949C363.683 230.905 343.166 239.094 327.735 253.809C313.752 267.07 304.8 284.769 302.404 303.891C300.008 323.013 304.315 342.374 314.593 358.676C324.872 374.977 340.484 387.211 358.771 393.293C377.057 399.374 396.887 398.927 414.881 392.027C432.874 385.128 447.92 372.203 457.452 355.454C466.985 338.706 470.416 319.17 467.16 300.176C463.904 281.181 454.163 263.904 439.597 251.286C425.03 238.668 406.54 231.492 387.275 230.979C386.535 230.979 385.788 230.979 385.035 230.979L385.005 230.949Z" fill="#314E5D"/>
<path d="M490.868 423.905L490.861 423.912C479.464 434.72 478.986 452.72 489.794 464.118L570.653 549.385C581.461 560.782 599.462 561.26 610.859 550.452L610.866 550.445C622.263 539.637 622.741 521.636 611.933 510.239L531.074 424.972C520.266 413.574 502.265 413.097 490.868 423.905Z" fill="#426372"/>
<path d="M590.114 562.24H589.224C584.966 562.144 580.768 561.205 576.875 559.476C572.982 557.748 569.471 555.264 566.544 552.17L485.694 466.89C482.762 463.798 480.468 460.16 478.942 456.182C477.417 452.204 476.69 447.964 476.803 443.705C476.915 439.447 477.866 435.251 479.6 431.36C481.334 427.468 483.818 423.956 486.909 421.025C490 418.093 493.639 415.799 497.617 414.273C501.595 412.748 505.834 412.02 510.093 412.133C514.352 412.246 518.547 413.197 522.439 414.931C526.33 416.665 529.842 419.148 532.774 422.24L613.634 507.49C619.534 513.743 622.717 522.077 622.489 530.671C622.26 539.265 618.638 547.419 612.414 553.35C606.405 559.078 598.416 562.263 590.114 562.24ZM509.224 420.14C504.451 420.151 499.786 421.558 495.803 424.188C491.82 426.818 488.694 430.556 486.809 434.941C484.924 439.326 484.364 444.166 485.196 448.866C486.029 453.565 488.218 457.919 491.494 461.39L572.344 546.65C576.816 551.334 582.96 554.06 589.434 554.233C595.909 554.405 602.189 552.01 606.904 547.57C611.589 543.097 614.315 536.954 614.487 530.479C614.659 524.005 612.264 517.725 607.824 513.01L526.974 427.75C524.69 425.339 521.937 423.421 518.885 422.112C515.832 420.804 512.545 420.132 509.224 420.14Z" fill="#314E5D"/>
<g opacity="0.5">
<path opacity="0.5" d="M518.125 434.568C528.125 442.968 535.855 453.418 545.195 462.458C547.975 465.148 552.195 460.908 549.435 458.218C540.095 449.218 532.365 438.728 522.365 430.328C519.425 427.858 515.165 432.078 518.125 434.568Z" fill="white"/>
<path opacity="0.5" d="M500.864 432.679C502.466 431.686 504.267 431.059 506.138 430.841C508.01 430.623 509.907 430.821 511.694 431.419C515.404 432.499 516.994 426.709 513.294 425.629C510.733 424.821 508.029 424.569 505.363 424.89C502.697 425.21 500.13 426.097 497.834 427.489C494.524 429.489 497.534 434.659 500.834 432.669L500.864 432.679Z" fill="white"/>
</g>
<path d="M418.275 204.638C434.225 209.488 449.225 217.248 461.685 228.318C477.505 242.318 488.265 260.698 494.845 280.658C496.045 284.308 501.845 282.748 500.635 279.058C493.745 258.158 482.505 238.768 465.935 224.058C452.655 212.278 436.795 204.058 419.885 198.838C416.185 197.708 414.605 203.498 418.285 204.628L418.275 204.638Z" fill="white"/>
<path d="M360.004 199.07C370.434 197.69 381.244 198.2 391.664 199.26C395.504 199.65 395.474 193.65 391.664 193.26C381.244 192.2 370.434 191.69 360.004 193.07C356.234 193.57 356.184 199.58 360.004 199.07Z" fill="white"/>
</g>
</svg>
