<svg width="2030" height="1763" viewBox="0 0 2030 1763" fill="none" xmlns="http://www.w3.org/2000/svg">
<mask id="mask0_238_161" style="mask-type:luminance" maskUnits="userSpaceOnUse" x="0" y="0" width="2030" height="1763">
<path d="M2029.91 0.499023H0.342285V1762.74H2029.91V0.499023Z" fill="white"/>
</mask>
<g mask="url(#mask0_238_161)">
<g opacity="0.2">
<path opacity="0.2" d="M1540.33 201.167H505.392V1272.53H1540.33V201.167Z" fill="#D9FAFF"/>
<path opacity="0.2" d="M940.022 222.405L780.402 724.705H689.632L849.262 222.405H940.022Z" fill="white"/>
<path opacity="0.2" d="M799.902 222.405L640.282 724.705H587.732L747.342 222.405H799.902Z" fill="white"/>
<path opacity="0.2" d="M1477.22 217.858L1317.59 720.158H1226.83L1386.46 217.858H1477.22Z" fill="white"/>
<path opacity="0.2" d="M1337.09 217.858L1177.48 720.158H1124.93L1284.54 217.858H1337.09Z" fill="white"/>
<path opacity="0.2" d="M1477.22 756.577L1317.59 1258.87H1226.83L1386.46 756.577H1477.22Z" fill="white"/>
<path opacity="0.2" d="M1337.09 756.577L1177.48 1258.87H1124.93L1284.54 756.577H1337.09Z" fill="white"/>
<path opacity="0.2" d="M940.022 756.577L780.402 1258.87H689.632L849.262 756.577H940.022Z" fill="white"/>
<path opacity="0.2" d="M799.902 756.577L640.282 1258.87H587.732L747.342 756.577H799.902Z" fill="white"/>
<path opacity="0.2" d="M1041.07 1275.15V221.308C1041.07 216.889 1037.49 213.308 1033.07 213.308H1011.13C1006.71 213.308 1003.13 216.889 1003.13 221.308V1275.15C1003.13 1279.57 1006.71 1283.15 1011.13 1283.15H1033.07C1037.49 1283.15 1041.07 1279.57 1041.07 1275.15Z" fill="#E2B38E"/>
<path opacity="0.2" d="M487.192 218.276V1272.12C487.192 1276.54 490.773 1280.12 495.192 1280.12H517.132C521.55 1280.12 525.132 1276.54 525.132 1272.12V218.276C525.132 213.858 521.55 210.276 517.132 210.276H495.192C490.773 210.276 487.192 213.858 487.192 218.276Z" fill="#E2B38E"/>
<path opacity="0.2" d="M1522.12 218.276V1272.12C1522.12 1276.54 1525.7 1280.12 1530.12 1280.12H1552.06C1556.48 1280.12 1560.06 1276.54 1560.06 1272.12V218.276C1560.06 213.858 1556.48 210.276 1552.06 210.276H1530.12C1525.7 210.276 1522.12 213.858 1522.12 218.276Z" fill="#E2B38E"/>
<path opacity="0.2" d="M1031.55 1288.15H1009.61C1006.16 1288.15 1002.86 1286.78 1000.42 1284.34C997.981 1281.9 996.612 1278.6 996.612 1275.15V221.308C996.612 217.86 997.981 214.553 1000.42 212.115C1002.86 209.677 1006.16 208.308 1009.61 208.308H1031.55C1035 208.308 1038.3 209.677 1040.74 212.115C1043.18 214.553 1044.55 217.86 1044.55 221.308V1275.15C1044.55 1278.6 1043.18 1281.9 1040.74 1284.34C1038.3 1286.78 1035 1288.15 1031.55 1288.15ZM1009.62 218.308C1008.82 218.308 1008.06 218.624 1007.5 219.186C1006.94 219.749 1006.62 220.512 1006.62 221.308V1275.15C1006.62 1275.94 1006.94 1276.71 1007.5 1277.27C1008.06 1277.83 1008.82 1278.15 1009.62 1278.15H1031.56C1032.36 1278.15 1033.12 1277.83 1033.68 1277.27C1034.24 1276.71 1034.56 1275.94 1034.56 1275.15V221.308C1034.56 220.512 1034.24 219.749 1033.68 219.186C1033.12 218.624 1032.36 218.308 1031.56 218.308H1009.62Z" fill="#385868"/>
<path opacity="0.2" d="M515.602 1285.12H493.672C490.224 1285.12 486.917 1283.75 484.479 1281.31C482.041 1278.87 480.672 1275.57 480.672 1272.12V218.276C480.672 214.829 482.041 211.522 484.479 209.084C486.917 206.646 490.224 205.276 493.672 205.276H515.612C519.059 205.276 522.366 206.646 524.804 209.084C527.242 211.522 528.612 214.829 528.612 218.276V1272.12C528.612 1273.83 528.275 1275.52 527.621 1277.09C526.967 1278.67 526.009 1280.11 524.8 1281.31C523.592 1282.52 522.158 1283.48 520.58 1284.13C519.001 1284.78 517.31 1285.12 515.602 1285.12ZM493.672 215.276C492.876 215.276 492.113 215.592 491.55 216.155C490.988 216.718 490.672 217.481 490.672 218.276V1272.12C490.672 1272.91 490.988 1273.68 491.55 1274.24C492.113 1274.8 492.876 1275.12 493.672 1275.12H515.612C516.407 1275.12 517.17 1274.8 517.733 1274.24C518.296 1273.68 518.612 1272.91 518.612 1272.12V218.276C518.612 217.481 518.296 216.718 517.733 216.155C517.17 215.592 516.407 215.276 515.612 215.276H493.672Z" fill="#385868"/>
<path opacity="0.2" d="M1550.54 1285.12H1528.6C1525.15 1285.12 1521.85 1283.75 1519.41 1281.31C1516.97 1278.87 1515.6 1275.57 1515.6 1272.12V218.276C1515.6 214.829 1516.97 211.522 1519.41 209.084C1521.85 206.646 1525.15 205.276 1528.6 205.276H1550.54C1553.99 205.276 1557.29 206.646 1559.73 209.084C1562.17 211.522 1563.54 214.829 1563.54 218.276V1272.12C1563.54 1275.57 1562.17 1278.87 1559.73 1281.31C1557.29 1283.75 1553.99 1285.12 1550.54 1285.12ZM1528.6 215.276C1527.8 215.276 1527.04 215.592 1526.48 216.155C1525.92 216.718 1525.6 217.481 1525.6 218.276V1272.12C1525.6 1272.91 1525.92 1273.68 1526.48 1274.24C1527.04 1274.8 1527.8 1275.12 1528.6 1275.12H1550.54C1551.34 1275.12 1552.1 1274.8 1552.66 1274.24C1553.22 1273.68 1553.54 1272.91 1553.54 1272.12V218.276C1553.54 217.481 1553.22 216.718 1552.66 216.155C1552.1 215.592 1551.34 215.276 1550.54 215.276H1528.6Z" fill="#385868"/>
<path opacity="0.2" d="M1561.16 181.437H489.142C484.724 181.437 481.142 185.018 481.142 189.437V211.377C481.142 215.795 484.724 219.377 489.142 219.377H1561.16C1565.58 219.377 1569.16 215.795 1569.16 211.377V189.437C1569.16 185.018 1565.58 181.437 1561.16 181.437Z" fill="#E2B38E"/>
<path opacity="0.2" d="M1559.62 224.377H487.622C484.174 224.377 480.867 223.007 478.429 220.569C475.991 218.131 474.622 214.824 474.622 211.377V189.437C474.622 185.989 475.991 182.682 478.429 180.244C480.867 177.806 484.174 176.437 487.622 176.437H1559.62C1563.07 176.437 1566.37 177.806 1568.81 180.244C1571.25 182.682 1572.62 185.989 1572.62 189.437V211.377C1572.62 214.824 1571.25 218.131 1568.81 220.569C1566.37 223.007 1563.07 224.377 1559.62 224.377ZM487.622 186.437C486.826 186.437 486.063 186.753 485.5 187.315C484.938 187.878 484.622 188.641 484.622 189.437V211.377C484.622 212.172 484.938 212.935 485.5 213.498C486.063 214.06 486.826 214.377 487.622 214.377H1559.62C1560.42 214.377 1561.18 214.06 1561.74 213.498C1562.3 212.935 1562.62 212.172 1562.62 211.377V189.437C1562.62 188.641 1562.3 187.878 1561.74 187.315C1561.18 186.753 1560.42 186.437 1559.62 186.437H487.622Z" fill="#385868"/>
<path opacity="0.2" d="M1561.16 1252.8H489.142C484.724 1252.8 481.142 1256.38 481.142 1260.8V1282.74C481.142 1287.16 484.724 1290.74 489.142 1290.74H1561.16C1565.58 1290.74 1569.16 1287.16 1569.16 1282.74V1260.8C1569.16 1256.38 1565.58 1252.8 1561.16 1252.8Z" fill="#E2B38E"/>
<path opacity="0.2" d="M1559.62 1295.74H487.622C484.174 1295.74 480.867 1294.37 478.429 1291.93C475.991 1289.49 474.622 1286.18 474.622 1282.74V1260.8C474.622 1257.35 475.991 1254.04 478.429 1251.6C480.867 1249.17 484.174 1247.8 487.622 1247.8H1559.62C1563.07 1247.8 1566.37 1249.17 1568.81 1251.6C1571.25 1254.04 1572.62 1257.35 1572.62 1260.8V1282.74C1572.62 1286.18 1571.25 1289.49 1568.81 1291.93C1566.37 1294.37 1563.07 1295.74 1559.62 1295.74ZM487.622 1257.8C486.826 1257.8 486.063 1258.11 485.5 1258.68C484.938 1259.24 484.622 1260 484.622 1260.8V1282.74C484.622 1283.53 484.938 1284.3 485.5 1284.86C486.063 1285.42 486.826 1285.74 487.622 1285.74H1559.62C1560.42 1285.74 1561.18 1285.42 1561.74 1284.86C1562.3 1284.3 1562.62 1283.53 1562.62 1282.74V1260.8C1562.62 1260 1562.3 1259.24 1561.74 1258.68C1561.18 1258.11 1560.42 1257.8 1559.62 1257.8H487.622Z" fill="#385868"/>
<path opacity="0.2" d="M1561.16 721.667H489.142C484.724 721.667 481.142 725.249 481.142 729.667V751.607C481.142 756.025 484.724 759.607 489.142 759.607H1561.16C1565.58 759.607 1569.16 756.025 1569.16 751.607V729.667C1569.16 725.249 1565.58 721.667 1561.16 721.667Z" fill="#E2B38E"/>
<path opacity="0.2" d="M1559.62 764.607H487.622C484.174 764.607 480.867 763.237 478.429 760.799C475.991 758.361 474.622 755.055 474.622 751.607V729.667C474.622 726.219 475.991 722.913 478.429 720.475C480.867 718.037 484.174 716.667 487.622 716.667H1559.62C1563.07 716.667 1566.37 718.037 1568.81 720.475C1571.25 722.913 1572.62 726.219 1572.62 729.667V751.607C1572.62 755.055 1571.25 758.361 1568.81 760.799C1566.37 763.237 1563.07 764.607 1559.62 764.607ZM487.622 726.667C486.826 726.667 486.063 726.983 485.5 727.546C484.938 728.108 484.622 728.871 484.622 729.667V751.607C484.622 752.403 484.938 753.166 485.5 753.728C486.063 754.291 486.826 754.607 487.622 754.607H1559.62C1560.42 754.607 1561.18 754.291 1561.74 753.728C1562.3 753.166 1562.62 752.403 1562.62 751.607V729.667C1562.62 728.871 1562.3 728.108 1561.74 727.546C1561.18 726.983 1560.42 726.667 1559.62 726.667H487.622Z" fill="#385868"/>
</g>
<g opacity="0.2">
<path opacity="0.2" d="M151.722 1050.65V1058.65H275.722V1050.65H151.722Z" fill="#385868"/>
<path opacity="0.2" d="M313.703 1084.46L313.664 1092.46L437.663 1093.06L437.702 1085.06L313.703 1084.46Z" fill="#385868"/>
<path opacity="0.2" d="M159.041 1146.05L158.322 1217.95L166.322 1218.03L167.041 1146.13L159.041 1146.05Z" fill="#385868"/>
<path opacity="0.2" d="M327.604 1017.38L326.885 1089.28L334.885 1089.36L335.604 1017.46L327.604 1017.38Z" fill="#385868"/>
<path opacity="0.2" d="M217.382 1114.9H373.152C383.513 1114.9 391.912 1106.5 391.912 1096.14V1078.26C391.912 1067.9 383.513 1059.5 373.152 1059.5H217.382C207.021 1059.5 198.622 1067.9 198.622 1078.26V1096.14C198.622 1106.5 207.021 1114.9 217.382 1114.9Z" fill="#F2F2F2"/>
<path opacity="0.2" d="M373.153 1118.91H217.343C211.309 1118.9 205.524 1116.5 201.258 1112.23C196.991 1107.97 194.591 1102.18 194.583 1096.15V1078.28C194.585 1072.24 196.984 1066.45 201.251 1062.18C205.518 1057.91 211.305 1055.51 217.343 1055.5H373.153C379.187 1055.51 384.971 1057.91 389.238 1062.18C393.504 1066.44 395.905 1072.23 395.913 1078.26V1096.13C395.91 1102.17 393.512 1107.96 389.245 1112.23C384.978 1116.5 379.19 1118.9 373.153 1118.91ZM217.343 1063.5C213.43 1063.51 209.679 1065.06 206.912 1067.83C204.145 1070.6 202.588 1074.35 202.583 1078.26V1096.13C202.583 1100.05 204.137 1103.8 206.905 1106.57C209.672 1109.35 213.426 1110.9 217.343 1110.91H373.153C377.066 1110.9 380.817 1109.35 383.584 1106.58C386.351 1103.81 387.907 1100.06 387.913 1096.15V1078.28C387.913 1074.36 386.357 1070.61 383.59 1067.84C380.822 1065.06 377.069 1063.51 373.153 1063.5H217.343Z" fill="#385868"/>
<path opacity="0.2" d="M84.4221 1170.3H240.192C250.553 1170.3 258.952 1161.9 258.952 1151.54V1133.66C258.952 1123.3 250.553 1114.9 240.192 1114.9H84.4221C74.0612 1114.9 65.6621 1123.3 65.6621 1133.66V1151.54C65.6621 1161.9 74.0612 1170.3 84.4221 1170.3Z" fill="#F2F2F2"/>
<path opacity="0.2" d="M240.192 1174.31H84.4321C81.4393 1174.3 78.4763 1173.71 75.7123 1172.56C72.9483 1171.42 70.4374 1169.74 68.323 1167.62C66.2086 1165.5 64.5321 1162.99 63.3893 1160.22C62.2464 1157.45 61.6595 1154.49 61.6621 1151.5V1133.63C61.6701 1127.59 64.0705 1121.81 68.3372 1117.54C72.6038 1113.28 78.3882 1110.88 84.4221 1110.87H240.192C246.226 1110.88 252.01 1113.28 256.277 1117.54C260.543 1121.81 262.944 1127.59 262.952 1133.63V1151.5C262.957 1157.54 260.563 1163.34 256.294 1167.61C252.026 1171.89 246.234 1174.3 240.192 1174.31ZM84.4321 1118.91C80.5192 1118.91 76.768 1120.47 74.0011 1123.24C71.2342 1126 69.6774 1129.75 69.6721 1133.67V1151.5C69.6774 1155.41 71.2342 1159.16 74.0011 1161.93C76.768 1164.7 80.5192 1166.25 84.4321 1166.26H240.192C244.105 1166.25 247.856 1164.7 250.623 1161.93C253.39 1159.16 254.947 1155.41 254.952 1151.5V1133.63C254.947 1129.71 253.39 1125.96 250.623 1123.2C247.856 1120.43 244.105 1118.87 240.192 1118.87L84.4321 1118.91Z" fill="#385868"/>
</g>
<g opacity="0.2">
<path opacity="0.2" d="M90.6924 223.538V231.538H214.692V223.538H90.6924Z" fill="#385868"/>
<path opacity="0.2" d="M252.384 253.276L252.344 261.276L376.343 261.882L376.382 253.882L252.384 253.276Z" fill="#385868"/>
<path opacity="0.2" d="M97.5686 313.482L96.8496 385.382L104.849 385.462L105.568 313.562L97.5686 313.482Z" fill="#385868"/>
<path opacity="0.2" d="M266.151 184.829L265.432 256.729L273.432 256.809L274.151 184.909L266.151 184.829Z" fill="#385868"/>
<path opacity="0.2" d="M156.062 283.761H311.832C322.193 283.761 330.592 275.362 330.592 265.001V247.121C330.592 236.76 322.193 228.361 311.832 228.361H156.062C145.701 228.361 137.302 236.76 137.302 247.121V265.001C137.302 275.362 145.701 283.761 156.062 283.761Z" fill="#F2F2F2"/>
<path opacity="0.2" d="M311.822 287.748H156.072C150.043 287.733 144.267 285.329 140.006 281.063C135.746 276.797 133.35 271.017 133.342 264.988V247.118C133.35 241.084 135.75 235.3 140.017 231.033C144.284 226.767 150.068 224.366 156.102 224.358H311.822C317.856 224.366 323.64 226.767 327.907 231.033C332.174 235.3 334.574 241.084 334.582 247.118V264.988C334.574 271.022 332.174 276.807 327.907 281.073C323.64 285.34 317.856 287.74 311.822 287.748ZM156.062 232.348C152.154 232.364 148.412 233.927 145.653 236.695C142.895 239.463 141.345 243.211 141.342 247.118V264.988C141.347 268.901 142.904 272.653 145.671 275.419C148.438 278.186 152.189 279.743 156.102 279.748H311.822C315.735 279.743 319.486 278.186 322.253 275.419C325.02 272.653 326.577 268.901 326.582 264.988V247.118C326.577 243.205 325.02 239.454 322.253 236.687C319.486 233.92 315.735 232.364 311.822 232.358L156.062 232.348Z" fill="#385868"/>
<path opacity="0.2" d="M23.1022 339.147H178.872C189.233 339.147 197.632 330.748 197.632 320.387V302.507C197.632 292.147 189.233 283.747 178.872 283.747H23.1022C12.7414 283.747 4.34229 292.147 4.34229 302.507V320.387C4.34229 330.748 12.7414 339.147 23.1022 339.147Z" fill="#F2F2F2"/>
<path opacity="0.2" d="M178.862 343.157H23.1023C17.0667 343.149 11.2807 340.748 7.01378 336.479C2.74688 332.21 0.347577 326.423 0.342285 320.387V302.497C0.350223 296.463 2.7507 290.679 7.01731 286.412C11.2839 282.146 17.0684 279.745 23.1023 279.737H178.862C184.898 279.743 190.685 282.142 194.953 286.409C199.222 290.676 201.624 296.462 201.632 302.497V320.367C201.632 326.408 199.234 332.202 194.964 336.475C190.694 340.749 184.903 343.152 178.862 343.157ZM23.1023 287.747C19.1911 287.753 15.4414 289.308 12.6748 292.073C9.90816 294.837 8.35023 298.586 8.34229 302.497V320.367C8.34758 324.28 9.90435 328.031 12.6712 330.798C15.4381 333.565 19.1893 335.122 23.1023 335.127H178.862C182.775 335.122 186.526 333.565 189.293 330.798C192.06 328.031 193.617 324.28 193.622 320.367V302.497C193.617 298.584 192.06 294.833 189.293 292.066C186.526 289.299 182.775 287.743 178.862 287.737L23.1023 287.747Z" fill="#385868"/>
</g>
<g opacity="0.2">
<path opacity="0.2" d="M1745.04 1088.38L1745 1096.38L1869.01 1096.98L1869.04 1088.98L1745.04 1088.38Z" fill="#385868"/>
<path opacity="0.2" d="M1905.95 1117.3L1905.91 1125.3L2029.92 1125.9L2029.96 1117.9L1905.95 1117.3Z" fill="#385868"/>
<path opacity="0.2" d="M1753.96 1178.9L1753.24 1250.8L1761.24 1250.88L1761.96 1178.98L1753.96 1178.9Z" fill="#385868"/>
<path opacity="0.2" d="M1922.52 1050.25L1921.81 1122.15L1929.81 1122.23L1930.52 1050.33L1922.52 1050.25Z" fill="#385868"/>
<path opacity="0.2" d="M1809.6 1147.75H1965.37C1975.73 1147.75 1984.13 1139.35 1984.13 1128.99V1111.11C1984.13 1100.75 1975.73 1092.35 1965.37 1092.35H1809.6C1799.24 1092.35 1790.84 1100.75 1790.84 1111.11V1128.99C1790.84 1139.35 1799.24 1147.75 1809.6 1147.75Z" fill="#F2F2F2"/>
<path opacity="0.2" d="M1965.34 1151.76H1809.61C1803.58 1151.75 1797.79 1149.35 1793.52 1145.08C1789.26 1140.82 1786.86 1135.03 1786.85 1129V1111.13C1786.86 1105.09 1789.26 1099.31 1793.52 1095.04C1797.79 1090.78 1803.58 1088.38 1809.61 1088.37H1965.34C1971.37 1088.38 1977.16 1090.78 1981.42 1095.04C1985.69 1099.31 1988.09 1105.09 1988.1 1111.13V1129C1988.09 1135.03 1985.69 1140.82 1981.42 1145.08C1977.16 1149.35 1971.37 1151.75 1965.34 1151.76ZM1809.58 1096.36C1805.67 1096.36 1801.92 1097.92 1799.15 1100.69C1796.38 1103.45 1794.83 1107.2 1794.82 1111.12V1128.99C1794.83 1132.9 1796.38 1136.65 1799.15 1139.42C1801.92 1142.19 1805.67 1143.74 1809.58 1143.75H1965.34C1969.25 1143.74 1973 1142.19 1975.77 1139.42C1978.54 1136.65 1980.09 1132.9 1980.1 1128.99V1111.12C1980.09 1107.2 1978.54 1103.45 1975.77 1100.69C1973 1097.92 1969.25 1096.36 1965.34 1096.36H1809.58Z" fill="#385868"/>
<path opacity="0.2" d="M1676.64 1203.16H1832.41C1842.77 1203.16 1851.17 1194.76 1851.17 1184.4V1166.52C1851.17 1156.16 1842.77 1147.76 1832.41 1147.76H1676.64C1666.28 1147.76 1657.88 1156.16 1657.88 1166.52V1184.4C1657.88 1194.76 1666.28 1203.16 1676.64 1203.16Z" fill="#F2F2F2"/>
<path opacity="0.2" d="M1832.4 1207.16H1676.64C1670.61 1207.15 1664.82 1204.75 1660.55 1200.48C1656.29 1196.22 1653.89 1190.43 1653.88 1184.4V1166.5C1653.89 1160.46 1656.29 1154.68 1660.55 1150.41C1664.82 1146.15 1670.61 1143.75 1676.64 1143.74H1832.4C1838.43 1143.75 1844.22 1146.15 1848.49 1150.41C1852.75 1154.68 1855.15 1160.46 1855.16 1166.5V1184.37C1855.16 1190.41 1852.76 1196.2 1848.5 1200.47C1844.23 1204.75 1838.44 1207.15 1832.4 1207.16ZM1676.64 1151.76C1672.73 1151.76 1668.98 1153.32 1666.21 1156.09C1663.44 1158.85 1661.89 1162.61 1661.88 1166.52V1184.39C1661.89 1188.3 1663.44 1192.05 1666.21 1194.82C1668.98 1197.59 1672.73 1199.14 1676.64 1199.15H1832.4C1836.31 1199.14 1840.06 1197.59 1842.83 1194.82C1845.6 1192.05 1847.15 1188.3 1847.16 1184.39V1166.5C1847.15 1162.59 1845.6 1158.83 1842.83 1156.07C1840.06 1153.3 1836.31 1151.74 1832.4 1151.74L1676.64 1151.76Z" fill="#385868"/>
</g>
<g opacity="0.2">
<path opacity="0.2" d="M1745.05 40.3818L1745.01 48.3817L1869.02 48.9877L1869.06 40.9878L1745.05 40.3818Z" fill="#385868"/>
<path opacity="0.2" d="M1905.94 69.3037L1905.91 77.3036L2029.91 77.9096L2029.95 69.9097L1905.94 69.3037Z" fill="#385868"/>
<path opacity="0.2" d="M1753.91 129.142L1753.19 201.042L1761.19 201.122L1761.91 129.222L1753.91 129.142Z" fill="#385868"/>
<path opacity="0.2" d="M1922.48 0.48584L1921.77 72.3858L1929.77 72.4658L1930.48 0.56584L1922.48 0.48584Z" fill="#385868"/>
<path opacity="0.2" d="M1809.6 99.7882H1965.37C1975.73 99.7882 1984.13 91.389 1984.13 81.0282V63.1482C1984.13 52.7873 1975.73 44.3882 1965.37 44.3882H1809.6C1799.24 44.3882 1790.84 52.7873 1790.84 63.1482V81.0282C1790.84 91.389 1799.24 99.7882 1809.6 99.7882Z" fill="#F2F2F2"/>
<path opacity="0.2" d="M1965.34 103.786H1809.61C1803.58 103.778 1797.79 101.377 1793.52 97.1107C1789.26 92.8441 1786.86 87.0596 1786.85 81.0257V63.1457C1786.86 57.1118 1789.26 51.3273 1793.52 47.0607C1797.79 42.7941 1803.58 40.3937 1809.61 40.3857H1965.34C1971.37 40.3937 1977.16 42.7941 1981.42 47.0607C1985.69 51.3273 1988.09 57.1118 1988.1 63.1457V81.0157C1988.09 87.0513 1985.7 92.8384 1981.43 97.1072C1977.16 101.376 1971.38 103.778 1965.34 103.786ZM1809.58 48.3857C1805.67 48.391 1801.92 49.9478 1799.15 52.7147C1796.38 55.4816 1794.83 59.2327 1794.82 63.1457V81.0157C1794.83 84.9287 1796.38 88.6799 1799.15 91.4468C1801.92 94.2137 1805.67 95.7704 1809.58 95.7757H1965.34C1969.25 95.7704 1973 94.2137 1975.77 91.4468C1978.54 88.6799 1980.09 84.9287 1980.1 81.0157V63.1457C1980.1 59.231 1978.54 55.4773 1975.77 52.7082C1973.01 49.9392 1969.25 48.381 1965.34 48.3757L1809.58 48.3857Z" fill="#385868"/>
<path opacity="0.2" d="M1676.64 155.179H1832.41C1842.77 155.179 1851.17 146.78 1851.17 136.419V118.539C1851.17 108.178 1842.77 99.7788 1832.41 99.7788H1676.64C1666.28 99.7788 1657.88 108.178 1657.88 118.539V136.419C1657.88 146.78 1666.28 155.179 1676.64 155.179Z" fill="#F2F2F2"/>
<path opacity="0.2" d="M1832.4 159.187H1676.64C1670.61 159.179 1664.82 156.779 1660.55 152.512C1656.29 148.246 1653.89 142.461 1653.88 136.427V118.497C1653.89 112.463 1656.29 106.679 1660.55 102.412C1664.82 98.1457 1670.61 95.7452 1676.64 95.7373H1832.4C1838.44 95.7426 1844.22 98.1419 1848.49 102.409C1852.76 106.676 1855.16 112.462 1855.17 118.497V136.367C1855.17 139.361 1854.59 142.326 1853.45 145.093C1852.3 147.86 1850.63 150.375 1848.51 152.495C1846.4 154.614 1843.89 156.296 1841.12 157.444C1838.36 158.592 1835.39 159.185 1832.4 159.187ZM1676.64 103.787C1672.74 103.793 1668.99 105.342 1666.23 108.099C1663.46 110.855 1661.9 114.593 1661.88 118.497V136.367C1661.89 140.28 1663.44 144.031 1666.21 146.798C1668.98 149.565 1672.73 151.122 1676.64 151.127H1832.4C1836.31 151.122 1840.06 149.565 1842.83 146.798C1845.6 144.031 1847.15 140.28 1847.16 136.367V118.497C1847.15 114.584 1845.6 110.833 1842.83 108.066C1840.06 105.299 1836.31 103.743 1832.4 103.737L1676.64 103.787Z" fill="#385868"/>
</g>
<path d="M1676.12 1752.74H313.122V1762.74H1676.12V1752.74Z" fill="#385868"/>
<path d="M1829.12 1752.74H1704.12V1762.74H1829.12V1752.74Z" fill="#385868"/>
<path d="M292.122 1752.74H205.122V1762.74H292.122V1752.74Z" fill="#385868"/>
<path d="M1121.01 957.878V1007.5C1121.01 1020.65 1126.23 1033.26 1135.53 1042.56C1144.83 1051.86 1157.45 1057.09 1170.6 1057.09H1231.11C1258.38 1057.09 1284.53 1067.92 1303.81 1087.2C1323.09 1106.48 1333.92 1132.63 1333.92 1159.9V1443.63H795.442V1159.9C795.445 1132.63 806.278 1106.49 825.558 1087.21C844.838 1067.93 870.987 1057.1 898.252 1057.1H958.762C965.274 1057.1 971.723 1055.81 977.739 1053.32C983.755 1050.83 989.221 1047.17 993.825 1042.57C998.429 1037.96 1002.08 1032.49 1004.57 1026.48C1007.06 1020.46 1008.34 1014.01 1008.34 1007.5V957.878" fill="#FFC6AD"/>
<path d="M1329.78 1163V1446.74H795.442V1163C795.445 1135.73 806.278 1109.59 825.558 1090.31C844.838 1071.03 870.987 1060.2 898.252 1060.2H927.022C929.732 1085.97 947.842 1110.42 970.282 1123.35C993.072 1136.48 1019.85 1140.99 1046.12 1142.18C1079.81 1143.71 1114.31 1139.96 1145.12 1126.24C1174.37 1113.24 1200.12 1089.55 1212.85 1060.24H1226.97C1254.23 1060.24 1280.37 1071.06 1299.65 1090.33C1318.93 1109.6 1329.77 1135.74 1329.78 1163Z" fill="#82F0B7"/>
<path d="M1327.71 1163V1211.58C1327.71 1184.31 1316.88 1158.16 1297.6 1138.88C1278.32 1119.6 1252.17 1108.77 1224.9 1108.77H1210.78C1198.02 1138.12 1172.3 1161.77 1143.05 1174.77C1112.24 1188.49 1077.74 1192.24 1044.05 1190.71C1017.78 1189.52 991.002 1185 968.212 1171.88C945.762 1158.95 927.652 1134.5 924.952 1108.73H896.182C882.675 1108.73 869.299 1111.38 856.82 1116.55C844.34 1121.72 833.001 1129.29 823.451 1138.85C813.9 1148.4 806.326 1159.74 801.159 1172.22C795.993 1184.7 793.337 1198.07 793.342 1211.58V1163C793.343 1149.5 796.005 1136.13 801.174 1123.65C806.343 1111.18 813.919 1099.84 823.468 1090.3C833.018 1080.75 844.355 1073.18 856.831 1068.02C869.308 1062.85 882.679 1060.2 896.182 1060.2H924.952C927.662 1085.97 945.772 1110.42 968.212 1123.35C991.002 1136.48 1017.78 1140.99 1044.05 1142.18C1077.74 1143.71 1112.24 1139.96 1143.05 1126.24C1172.3 1113.24 1198.05 1089.55 1210.78 1060.24H1224.9C1252.16 1060.24 1278.3 1071.06 1297.58 1090.33C1316.86 1109.6 1327.7 1135.74 1327.71 1163Z" fill="#BEF8D9"/>
<path d="M1118.94 965.108V1002.82L1118.04 1003.04C1081.44 1011.78 1043.49 1013.38 1006.28 1007.75V965.108H1118.94Z" fill="#E39493"/>
<path d="M1110.87 957.879C1110.87 974.649 1110.57 991.439 1110.87 1008.2C1111.02 1016.61 1113.06 1024.88 1116.83 1032.39C1120.61 1039.91 1126.03 1046.47 1132.69 1051.61C1143.24 1059.72 1155.69 1063.09 1168.88 1063.09C1188.06 1063.09 1207.24 1063.01 1226.42 1063.09C1257.89 1063.22 1288.08 1078.24 1306.18 1104.23C1318.67 1122.16 1323.75 1142.57 1323.75 1164.23V1408.33C1323.75 1419.46 1322.87 1431.01 1323.75 1442.12C1323.75 1442.63 1323.75 1443.12 1323.75 1443.68L1329.75 1437.68H813.152C806.352 1437.68 799.012 1436.89 792.232 1437.68C791.922 1437.7 791.612 1437.7 791.302 1437.68L797.302 1443.68V1170.3C797.302 1154.95 798.092 1140.14 803.572 1125.49C815.232 1094.33 843.312 1071.18 875.822 1064.81C885.332 1062.95 894.892 1063.1 904.522 1063.1H940.102C948.832 1063.1 957.782 1063.63 966.372 1061.84C974.474 1060.08 982.08 1056.53 988.637 1051.46C995.194 1046.38 1000.53 1039.91 1004.27 1032.51C1009.51 1021.94 1010.21 1011.06 1010.21 999.559V957.879C1010.21 950.159 998.212 950.149 998.212 957.879C998.212 974.649 998.512 991.439 998.212 1008.2C998.034 1016.27 995.643 1024.14 991.299 1030.94C986.956 1037.75 980.827 1043.23 973.582 1046.79C964.442 1051.3 954.842 1051.09 944.992 1051.09H909.992C901.502 1051.09 892.882 1050.75 884.412 1051.55C867.634 1053.14 851.445 1058.56 837.099 1067.41C822.752 1076.25 810.631 1088.27 801.672 1102.55C790.012 1121.25 785.342 1142.37 785.342 1164.19V1345.1C785.342 1377.39 784.582 1409.79 785.342 1442.1C785.342 1442.62 785.342 1443.1 785.342 1443.66C785.365 1445.24 786.005 1446.76 787.125 1447.88C788.245 1449 789.758 1449.64 791.342 1449.66H1263.61C1285.32 1449.66 1307.18 1450.44 1328.88 1449.66C1329.19 1449.66 1329.5 1449.66 1329.81 1449.66C1331.39 1449.64 1332.91 1449 1334.03 1447.88C1335.15 1446.76 1335.79 1445.24 1335.81 1443.66V1170.3C1335.81 1154.83 1335.13 1139.65 1330.01 1124.8C1324.52 1108.98 1315.49 1094.62 1303.61 1082.82C1291.73 1071.01 1277.32 1062.08 1261.47 1056.68C1239.29 1049.2 1215.33 1051.1 1192.27 1051.1C1183.77 1051.1 1175.27 1051.19 1166.76 1051.1C1159.4 1051.1 1152.16 1049.26 1145.7 1045.75C1139.24 1042.24 1133.76 1037.16 1129.76 1030.99C1123.53 1021.16 1122.91 1010.75 1122.91 999.569V957.879C1122.91 950.159 1110.91 950.149 1110.91 957.879H1110.87Z" fill="#385868"/>
<path d="M993.112 375.976C1000.23 395.976 1021.78 406.576 1041.92 413.246C1078.27 425.261 1116.39 431.065 1154.67 430.416C1182.01 429.936 1209.67 426.196 1236.46 431.816C1263.25 437.436 1289.81 455.296 1295.46 482.046" fill="#EF7679"/>
<path d="M967.072 288.869C1021.86 248.189 1088.26 219.779 1156.47 221.869C1224.68 223.959 1293.86 260.649 1323.17 322.269C1362.68 405.269 1326.33 507.739 1313.4 593.369C1299.08 688.473 1301.29 785.335 1319.92 879.689C1328.53 923.179 1341.02 966.939 1364.26 1005.06C1369.83 1014.2 1380.39 1023.61 1384.45 1033.18C1389.62 1045.37 1385.45 1045.78 1371.16 1049.77C1349.89 1055.7 1326.79 1053.1 1305.16 1051.52C1281.1 1049.77 1256.8 1047.73 1233.86 1040.3C1195.86 1027.99 1156.86 993.919 1163.49 949.859" fill="#EF7679"/>
<path d="M1374.26 1049.75C1352.99 1055.68 1329.89 1053.08 1308.26 1051.51C1284.2 1049.75 1259.9 1047.72 1236.96 1040.29C1198.96 1027.97 1159.96 993.909 1166.58 949.849L1154.24 908.499C1174.99 947.499 1214.77 976.759 1258.04 988.719C1291.31 997.919 1326.12 998.229 1360.31 992.719C1362.54 996.892 1364.9 1001.01 1367.37 1005.07C1372.94 1014.21 1383.5 1023.61 1387.55 1033.18C1392.73 1045.36 1388.56 1045.76 1374.26 1049.75Z" fill="#DB6A72"/>
<path d="M916.342 545.497C974.022 539.497 959.872 465.827 982.342 412.367C996.722 378.147 1001.59 335.967 979.732 305.957C947.932 262.297 884.192 252.537 835.622 269.907C769.342 293.607 757.052 363.907 754.382 426.847C751.862 486.137 765.092 544.617 780.972 601.347C790.282 634.497 796.032 668.497 801.092 702.497C811.772 774.347 819.312 848.497 801.662 918.947C784.012 989.397 736.572 1056.31 667.512 1078.83C724.512 1087.78 785.072 1084.07 836.332 1057.63C887.592 1031.19 927.702 979.337 930.112 921.707" fill="#EF7679"/>
<path d="M829.092 1027.7C791.972 1046.85 749.962 1054.06 707.982 1053.2C693.486 1063.88 677.386 1072.2 660.282 1077.84C717.282 1086.79 777.842 1083.08 829.102 1056.64C880.362 1030.2 920.472 978.347 922.882 920.717L922.162 900.917C916.142 954.847 877.632 1002.67 829.092 1027.7Z" fill="#DB6A72"/>
<path d="M1226.55 427.999C1240.67 452.739 1248.43 480.349 1248.09 512.059C1247.61 557.209 1231.45 602.129 1239.09 645.979C1241.31 658.689 1245.45 670.559 1248.64 682.859C1267.54 755.659 1250.45 841.549 1212.24 897.449C1174.03 953.349 1117.64 980.679 1062.47 980.619H1062.11C1006.94 980.679 950.552 953.349 912.342 897.449C874.132 841.549 857.042 755.659 875.942 682.859C879.132 670.559 883.272 658.699 885.492 645.979C893.142 602.119 876.982 557.199 876.492 512.059C876.162 480.359 883.912 448.609 898.032 423.869L933.902 368.769L1036.22 338.769L1099.22 351.169" fill="#FFC6AD"/>
<path d="M1212.26 865.409C1174.05 921.309 1117.66 948.639 1062.49 948.579H1062.13C1006.96 948.639 950.572 921.309 912.362 865.409C887.022 828.329 870.982 778.049 868.562 727.159C865.562 786.819 882.562 848.679 912.362 892.289C950.572 948.189 1006.96 975.519 1062.13 975.459H1062.49C1117.66 975.519 1174.05 948.189 1212.26 892.289C1242.07 848.679 1259.02 786.819 1256.06 727.169C1253.64 778.049 1237.6 828.329 1212.26 865.409Z" fill="#E39493"/>
<path d="M1238.92 455.668C1238.79 455.668 1238.65 455.608 1238.52 455.578C1236.52 455.151 1234.5 454.778 1232.45 454.458C1207.58 450.508 1182.01 453.738 1156.73 454.178C1111.27 454.968 1031.73 453.778 1003.81 410.648C1030.92 452.458 903.072 523.568 876.812 537.878L874.812 519.138C874.602 517.138 874.432 515.058 875.502 513.408C876.502 512.148 877.831 511.189 879.342 510.638C924.812 489.178 957.922 458.168 978.272 411.338C978.402 411.028 978.532 410.718 978.652 410.408C979.232 409.008 979.802 407.598 980.332 406.168L980.422 405.948C985.312 394.369 988.839 382.261 990.932 369.868L997.232 391.088C997.522 388.088 997.702 385.028 997.772 382.028V381.758C997.832 378.498 997.772 375.258 997.522 372.038C997.018 364.315 995.508 356.69 993.032 349.358V344.648L1013.8 338.558C1012.26 347.138 1009.34 356.188 1012.57 364.288C1016.18 373.348 1026.15 377.888 1035.32 381.228C1083.18 398.639 1133.81 407.159 1184.73 406.368C1189.25 406.298 1193.78 406.148 1198.32 405.988L1224.51 421.798C1224.94 422.558 1225.38 423.338 1225.8 424.118L1225.41 424.058C1225.98 425.058 1226.53 426.058 1227.07 427.058C1231.92 436.194 1235.89 445.775 1238.92 455.668Z" fill="#E39493"/>
<path d="M995.172 379.076C1002.29 399.076 1023.84 409.676 1043.98 416.346C1080.33 428.355 1118.45 434.153 1156.73 433.496C1184.07 433.016 1211.73 429.276 1238.52 434.896C1265.31 440.516 1291.87 458.376 1297.52 485.126L1318.4 327.406L994.902 310.866L995.172 379.076Z" fill="#EF7679"/>
<path d="M1340.17 1058.5C1330.45 1058.5 1320.71 1057.75 1311.17 1057.01L1304.79 1056.53C1278.58 1054.62 1255.04 1052.44 1232.31 1045.08C1211.31 1038.29 1191.62 1025.62 1178.18 1010.31C1162.08 991.978 1155.28 970.818 1158.53 949.138L1168.42 950.618C1164.89 974.218 1175.86 992.518 1185.69 1003.71C1197.98 1017.71 1216.09 1029.32 1235.39 1035.57C1257.05 1042.57 1279.97 1044.7 1305.52 1046.57L1311.94 1047.06C1331.4 1048.56 1351.52 1050.06 1369.87 1044.99L1372.02 1044.4C1376.08 1043.28 1380.67 1042.01 1381.63 1041.06C1381.63 1040.72 1381.63 1039.3 1379.9 1035.18C1377.82 1030.28 1373.45 1025 1369.22 1019.89C1365.88 1016.05 1362.81 1011.98 1360.04 1007.72C1347.43 987.038 1329.04 951.368 1315.04 880.718C1296.21 785.821 1293.99 688.375 1308.48 592.718C1311.31 573.948 1315.18 554.808 1319.27 534.528C1333.82 462.478 1348.86 387.978 1318.67 324.528C1305.1 295.998 1282.01 271.668 1251.91 254.168C1222.77 237.383 1189.95 227.999 1156.34 226.838C1079.02 224.478 1012.34 261.468 970.072 292.838L964.072 284.838C1007.66 252.478 1076.44 214.428 1156.61 216.838C1191.89 217.89 1226.36 227.698 1256.91 245.378C1288.76 263.898 1313.23 289.728 1327.68 320.088C1341.87 349.908 1347.74 384.768 1345.68 426.668C1343.85 463.288 1336.34 500.448 1329.09 536.388C1325.02 556.538 1321.18 575.568 1318.38 594.088C1304.06 688.616 1306.25 784.911 1324.86 878.688C1338.54 947.778 1356.35 982.398 1368.57 1002.43C1371.1 1006.28 1373.88 1009.96 1376.91 1013.43C1381.6 1019.09 1386.44 1024.95 1389.09 1031.19C1391.09 1035.99 1392.72 1041.02 1390.63 1045.34C1388.28 1050.2 1382.86 1051.7 1374.63 1053.96L1372.51 1054.55C1361.92 1057.5 1351.06 1058.5 1340.17 1058.5Z" fill="#385868"/>
<path d="M1062.69 986.266H1061.93C1001.33 986.266 945.322 955.166 908.242 900.916C867.542 841.386 852.632 753.496 871.122 682.256C872.192 678.116 873.382 673.996 874.542 670.006C877 662.046 879.019 653.957 880.592 645.776C885.052 620.226 881.212 594.546 877.142 567.366C874.482 549.556 871.722 531.136 871.532 512.766C871.182 479.946 879.072 447.766 893.732 422.046L902.422 427.046C888.822 450.866 881.212 482.046 881.542 512.706C881.732 530.386 884.432 548.456 887.042 565.936C891.042 592.716 895.192 620.396 890.452 647.546C888.816 656.08 886.716 664.52 884.162 672.826C883.032 676.746 881.862 680.826 880.822 684.826C863.012 753.446 877.352 838.046 916.512 895.336C951.702 946.816 1004.71 976.336 1061.95 976.336H1062.7C1119.96 976.336 1172.96 946.826 1208.15 895.336C1247.31 838.046 1261.66 753.446 1243.84 684.826C1242.84 680.826 1241.63 676.756 1240.5 672.826C1237.95 664.519 1235.85 656.08 1234.21 647.546C1229.47 620.406 1233.62 592.716 1237.62 565.936C1240.23 548.456 1242.94 530.386 1243.12 512.706C1243.43 483.016 1236.6 456.346 1222.23 431.186L1230.92 426.186C1246.19 452.936 1253.45 481.256 1253.12 512.776C1252.93 531.146 1250.17 549.566 1247.51 567.376C1243.44 594.556 1239.6 620.236 1244.06 645.786C1245.63 653.967 1247.65 662.056 1250.11 670.016C1251.26 674.016 1252.45 678.126 1253.53 682.266C1272.03 753.516 1257.11 841.396 1216.42 900.936C1179.34 955.166 1123.34 986.266 1062.69 986.266Z" fill="#385868"/>
<path d="M980.342 417.496C959.912 466.096 918.622 508.596 867.932 520.386C863.375 521.453 858.761 522.258 854.112 522.796C835.992 504.366 803.282 467.296 804.782 441.076C806.852 404.906 867.782 347.026 882.292 326.356C888.942 316.856 896.682 292.306 903.112 268.526C904.622 268.756 906.112 269.016 907.622 269.286C935.282 274.446 960.952 288.046 977.732 311.086C999.542 341.136 994.692 383.316 980.342 417.496Z" fill="#EF7679"/>
<path d="M721.912 1088.23C703.435 1088.18 684.99 1086.7 666.742 1083.81L646.162 1080.58L665.972 1074.12C727.562 1054.03 777.702 994.116 796.822 917.776C814.892 845.616 805.952 769.216 796.152 703.276C791.332 670.856 785.582 636.276 776.152 602.696C760.742 547.496 746.812 488.006 749.412 426.636C752.042 364.636 764.042 290.206 833.962 265.196C860.011 256.034 888.095 254.303 915.072 260.196C944.312 266.646 968.072 281.456 983.802 303.046C994.642 317.936 999.972 336.316 999.652 357.686C999.382 375.686 994.992 395.256 986.982 414.336C975.408 442.143 957.592 466.915 934.912 486.736C910.912 507.446 883.302 519.926 855.022 522.856L854.022 512.905C905.272 507.605 953.852 467.396 977.792 410.466C985.322 392.556 989.432 374.256 989.692 357.546C989.982 338.386 985.292 322.036 975.762 308.936C961.502 289.356 939.762 275.876 912.962 269.936C887.809 264.446 861.625 266.066 837.342 274.616C808.582 284.896 788.462 304.836 775.812 335.556C763.312 365.936 760.462 402.326 759.412 427.066C756.862 487.066 770.602 545.626 785.822 600.006C795.362 634.076 801.182 669.066 806.042 701.806C815.982 768.706 825.042 846.266 806.522 920.206C788.522 992.206 743.712 1050.31 687.372 1076.42C729.692 1080.79 784.482 1078.8 834.042 1053.23C887.162 1025.83 922.912 974.136 925.122 921.546L935.122 921.965C932.772 978.085 894.902 1033.1 838.642 1062.12C800.062 1082.01 758.642 1088.23 721.912 1088.23Z" fill="#385868"/>
<path d="M1290.57 483.066C1284.88 456.196 1257.31 441.296 1235.43 436.696C1216.22 432.696 1195.86 433.646 1176.17 434.596C1169.17 434.936 1161.91 435.286 1154.76 435.406C1115.91 436.096 1077.22 430.206 1040.34 417.986C1011.67 408.496 994.682 395.306 988.342 377.656L997.762 374.296C1003.02 389.056 1017.53 399.926 1043.44 408.496C1079.25 420.36 1116.81 426.081 1154.53 425.416C1161.53 425.296 1168.7 424.946 1175.63 424.616C1195.95 423.616 1216.96 422.616 1237.43 426.926C1251.81 429.89 1265.32 436.106 1276.93 445.096C1289.34 454.966 1297.42 467.386 1300.3 481.006L1290.57 483.066Z" fill="#385868"/>
<path d="M966.553 593.037C966.833 582.777 974.873 574.237 985.353 574.237C995.833 574.237 1003.88 582.777 1004.15 593.037C1004.36 600.747 1016.36 600.777 1016.15 593.037C1015.7 576.297 1002.44 562.237 985.353 562.237C968.263 562.237 955.003 576.307 954.553 593.037C954.343 600.757 966.343 600.757 966.553 593.037Z" fill="#385868"/>
<path d="M1110.21 593.037C1110.49 582.777 1118.53 574.237 1129.01 574.237C1139.49 574.237 1147.54 582.777 1147.81 593.037C1148.02 600.747 1160.02 600.777 1159.81 593.037C1159.36 576.297 1146.1 562.237 1129.01 562.237C1111.92 562.237 1098.66 576.307 1098.21 593.037C1098 600.757 1110 600.757 1110.21 593.037Z" fill="#385868"/>
<path d="M1075.99 702.586C1075.71 712.846 1067.67 721.386 1057.19 721.386C1046.71 721.386 1038.66 712.846 1038.39 702.586C1038.18 694.876 1026.18 694.846 1026.39 702.586C1026.84 719.326 1040.1 733.386 1057.19 733.386C1074.28 733.386 1087.54 719.316 1087.99 702.586C1088.2 694.866 1076.2 694.866 1075.99 702.586Z" fill="#385868"/>
<path d="M1321.25 383.256C1319.61 362.476 1310.69 342.796 1298.7 325.746C1268.7 283.046 1219.04 255.746 1167.24 249.326C1115.44 242.906 1062.07 256.546 1017.44 283.606C1014.56 285.356 1011.53 287.366 1010.31 290.516C1008.77 294.516 1010.6 298.896 1012.1 302.896C1017.06 316.255 1018.35 330.698 1015.85 344.726C1014.3 353.316 1011.38 362.386 1014.61 370.496C1018.22 379.556 1028.19 384.106 1037.36 387.446C1085.22 404.852 1135.85 413.369 1186.77 412.576C1210.89 412.186 1235.38 409.746 1258.87 415.196C1282.36 420.646 1305.4 436.126 1311.66 459.426C1315.43 456.825 1318.49 453.335 1320.58 449.265C1322.68 445.195 1323.73 440.672 1323.66 436.096" fill="#DB6A72"/>
<path d="M774.962 503.686C763.09 455.963 764.403 405.911 778.762 358.876C784.762 339.366 793.412 319.876 808.652 306.326C823.892 292.776 844.172 286.426 864.372 284.426C879.932 282.896 895.922 283.816 910.672 288.986C949.492 302.586 973.752 346.056 969.902 386.986C966.052 427.916 937.242 464.296 900.342 482.436C880.592 492.146 858.812 497.166 838.992 506.736C819.172 516.306 800.452 532.096 795.772 553.606" fill="#DB6A72"/>
<path d="M1249.43 268.556C1255.68 272.948 1261.62 277.773 1267.2 282.996C1272.35 287.899 1277.19 293.108 1281.71 298.596C1289.28 307.921 1295.78 318.076 1301.06 328.866C1303.29 333.466 1305.06 337.736 1306.49 341.526C1307.17 343.436 1307.8 345.206 1308.35 346.856L1309.67 351.416L1310.19 353.356L1310.56 355.086C1310.78 356.166 1310.94 357.086 1311.05 357.826C1311.27 359.316 1311.26 360.136 1311.05 360.206C1310.84 360.276 1310.31 359.616 1309.62 358.286C1309.28 357.626 1308.88 356.796 1308.44 355.806L1307.74 354.216L1306.9 352.416L1304.99 348.186L1302.6 343.186C1300.85 339.646 1298.78 335.666 1296.32 331.376C1290.55 321.347 1283.86 311.882 1276.32 303.106C1271.84 297.989 1267.09 293.113 1262.1 288.496C1256.71 283.586 1251.01 279.02 1245.04 274.826C1239.05 270.623 1232.8 266.796 1226.34 263.366L1224.01 262.096L1221.66 260.926C1220.1 260.166 1218.57 259.356 1217.02 258.636C1213.91 257.236 1210.89 255.796 1207.85 254.636C1202.15 252.298 1196.34 250.249 1190.44 248.496L1186.32 247.386C1184.97 247.016 1183.65 246.636 1182.32 246.386C1179.69 245.846 1177.19 245.166 1174.76 244.836C1172.33 244.506 1170.03 243.966 1167.82 243.836L1164.61 243.476L1163.07 243.296L1161.58 243.226L1156.12 242.926C1154.45 242.926 1152.91 242.926 1151.52 242.926H1149.52L1147.8 243.026C1146.73 243.076 1145.8 243.106 1145.07 243.096C1143.58 243.096 1142.76 242.956 1142.71 242.696C1142.66 242.436 1143.37 242.056 1144.8 241.576C1145.52 241.336 1146.41 241.066 1147.48 240.776L1149.21 240.316L1151.21 239.986C1152.62 239.76 1154.2 239.526 1155.94 239.286C1157.68 239.146 1159.57 239.056 1161.62 238.946L1163.18 238.866H1164.79L1168.16 238.946C1170.49 238.946 1172.91 239.256 1175.47 239.486C1178.03 239.716 1180.68 240.196 1183.47 240.606C1184.86 240.796 1186.26 241.116 1187.68 241.426L1192.03 242.376C1198.26 243.924 1204.4 245.841 1210.41 248.116C1213.61 249.256 1216.78 250.666 1220.05 252.056C1221.67 252.766 1223.28 253.566 1224.92 254.336L1227.38 255.516L1229.82 256.796C1236.62 260.261 1243.17 264.19 1249.43 268.556Z" fill="white"/>
<path d="M1218.24 576.437C1216.74 590.957 1217.36 604.057 1219.04 613.377C1219.85 618.047 1220.84 621.767 1221.42 624.377C1222 626.987 1222.29 628.577 1221.81 628.817C1221.33 629.057 1220.23 627.907 1218.67 625.537C1216.62 622.106 1214.98 618.448 1213.78 614.637C1210.58 605.017 1209.04 590.827 1210.61 575.637C1211.33 568.559 1212.46 561.528 1213.98 554.577C1215.34 548.207 1216.76 542.577 1217.98 537.837C1220.51 528.407 1222.33 522.617 1223.38 522.767C1224.43 522.917 1224.48 529.097 1223.3 538.857C1222.73 543.737 1221.85 549.497 1220.9 555.857C1219.95 562.217 1218.92 569.187 1218.24 576.437Z" fill="white"/>
<path d="M1223.34 462.826C1225.3 467.791 1226.38 473.06 1226.53 478.396C1226.53 482.486 1225.84 485.016 1224.81 485.136C1223.78 485.256 1222.56 482.976 1221.2 479.376C1219.84 475.776 1218.2 470.856 1216.2 465.606C1215.2 462.986 1214.12 460.526 1213.15 458.276L1210.43 452.276C1208.86 448.836 1207.96 446.466 1208.77 445.746C1209.58 445.026 1211.95 446.226 1214.87 449.176C1216.56 450.916 1218.06 452.826 1219.35 454.876C1220.93 457.395 1222.26 460.057 1223.34 462.826Z" fill="white"/>
<path d="M774.342 488.498C773.215 476.078 772.881 463.6 773.342 451.138C773.722 445.398 773.962 439.938 774.652 434.878C774.962 432.338 775.182 429.878 775.552 427.538L776.692 420.808C777.332 416.508 778.332 412.698 779.082 409.338C779.482 407.658 779.822 406.088 780.202 404.668L781.362 400.798C782.772 396.148 783.622 393.618 783.792 393.668C783.962 393.718 783.432 396.348 782.322 401.048L781.382 404.958C781.072 406.398 780.812 407.958 780.482 409.648C779.862 413.018 779.002 416.828 778.482 421.108L777.482 427.808C777.172 430.138 777.002 432.588 776.742 435.098C776.142 440.098 775.992 445.548 775.672 451.238C775.353 463.584 775.75 475.938 776.862 488.238C778.112 501.338 780.152 513.718 782.342 524.908L784.072 533.068C784.342 534.398 784.632 535.688 784.962 536.958L785.872 540.718C786.482 543.178 787.012 545.578 787.632 547.848L789.402 554.388C790.472 558.578 791.652 562.298 792.602 565.598L793.942 570.188L795.142 574.028C796.562 578.648 797.272 581.238 797.142 581.298C797.012 581.358 795.952 578.878 794.242 574.298L792.832 570.518C792.332 569.128 791.832 567.608 791.282 565.978C790.202 562.708 788.902 558.978 787.712 554.838L785.782 548.308C785.112 546.038 784.532 543.638 783.872 541.178L782.872 537.408C782.532 536.138 782.212 534.838 781.872 533.508L780.032 525.328C777.469 513.163 775.57 500.868 774.342 488.498Z" fill="#516D7B"/>
<path d="M784.992 435.569C785.92 428.833 787.229 422.156 788.912 415.569C789.742 412.569 790.512 409.659 791.402 407.019C791.842 405.699 792.222 404.399 792.662 403.189L793.952 399.699C794.742 397.469 795.622 395.509 796.352 393.769C796.722 392.909 797.062 392.099 797.352 391.369L798.352 389.369C799.532 386.999 800.262 385.729 800.422 385.799C800.802 385.969 798.552 391.349 795.642 400.279L794.522 403.789C794.132 405.009 793.802 406.299 793.412 407.619C792.612 410.259 791.932 413.119 791.172 416.129C789.772 422.129 788.462 428.849 787.492 435.929C786.522 443.009 786.092 449.809 785.872 455.999C785.872 459.099 785.732 461.999 785.812 464.789C785.812 466.169 785.812 467.499 785.882 468.789L786.042 472.469C786.512 481.839 787.282 487.629 786.872 487.689C786.702 487.689 786.332 486.299 785.802 483.689L785.382 481.519C785.242 480.729 785.132 479.859 785.002 478.929C784.752 477.069 784.412 474.929 784.232 472.579L783.902 468.869C783.792 467.579 783.762 466.229 783.682 464.869C783.512 462.079 783.522 459.099 783.502 455.969C783.612 449.146 784.109 442.335 784.992 435.569Z" fill="#516D7B"/>
<path d="M931.942 308.118C939.186 315.284 945.481 323.35 950.672 332.118C953.102 336.118 955.092 340.118 956.892 343.848C958.692 347.578 960.112 351.198 961.312 354.518C963.248 359.743 964.845 365.088 966.092 370.518C966.952 374.368 967.242 376.518 967.092 376.518C966.942 376.518 966.282 374.518 965.092 370.738C963.902 366.958 962.192 361.608 959.592 355.138C958.302 351.898 956.722 348.418 954.942 344.728C953.162 341.038 951.062 337.198 948.622 333.298C943.421 324.796 937.209 316.956 930.122 309.948C926.42 306.373 922.477 303.055 918.322 300.018C914.442 297.196 910.372 294.643 906.142 292.378L903.142 290.818C902.142 290.318 901.142 289.888 900.142 289.418C898.142 288.418 896.192 287.758 894.312 286.968C892.432 286.178 890.542 285.608 888.732 285.048C886.922 284.488 885.182 283.938 883.482 283.588C878.148 282.251 872.707 281.381 867.222 280.988C866.222 280.878 865.382 280.838 864.632 280.818L862.732 280.708C861.732 280.628 861.152 280.548 861.152 280.468C861.152 280.388 861.692 280.288 862.722 280.198L864.642 280.058C865.514 279.992 866.388 279.972 867.262 279.998C872.855 280.012 878.431 280.629 883.892 281.838C885.642 282.148 887.412 282.708 889.292 283.168C891.172 283.628 893.062 284.328 895.042 284.988C897.022 285.648 899.042 286.428 901.042 287.368C902.042 287.818 903.102 288.248 904.132 288.748L907.242 290.298C911.605 292.556 915.799 295.126 919.792 297.988C924.08 301.069 928.14 304.454 931.942 308.118Z" fill="#516D7B"/>
<path d="M943.042 344.258C946.196 350.529 948.666 357.12 950.412 363.918C951.14 366.885 951.707 369.89 952.112 372.918C952.282 374.348 952.532 375.708 952.612 377.038L952.812 380.868C952.939 383.056 952.939 385.25 952.812 387.438C952.812 388.438 952.752 389.308 952.682 390.128L952.382 392.378C952.002 395.078 951.712 396.538 951.532 396.518C951.352 396.498 951.312 394.988 951.392 392.308L951.472 390.078C951.472 389.258 951.422 388.378 951.392 387.428C951.302 385.528 951.392 383.358 951.052 380.988L950.692 377.258C950.562 375.968 950.262 374.638 950.052 373.258C949.682 370.478 948.892 367.578 948.172 364.518C944.624 351.271 938.278 338.937 929.562 328.348C927.492 325.978 925.562 323.658 923.562 321.728C922.562 320.728 921.642 319.728 920.672 318.878L917.842 316.418C916.092 314.778 914.292 313.568 912.842 312.418C912.082 311.848 911.392 311.278 910.732 310.808L908.872 309.578C906.642 308.078 905.442 307.168 905.522 307.008C905.602 306.848 906.972 307.468 909.382 308.728L911.382 309.788C912.102 310.208 912.832 310.718 913.652 311.238C915.514 312.399 917.307 313.668 919.022 315.038L922.022 317.428C923.022 318.268 924.022 319.268 925.082 320.238C927.316 322.329 929.436 324.539 931.432 326.858C935.912 332.227 939.804 338.061 943.042 344.258Z" fill="#516D7B"/>
<path d="M837.032 843.716C836.882 854.086 836.302 864.206 835.362 873.936C834.422 883.666 832.992 893.006 831.362 901.846L830.062 908.376C829.612 910.516 829.062 912.616 828.612 914.696C827.702 918.856 826.522 922.826 825.502 926.696C824.962 928.616 824.352 930.486 823.792 932.336C823.232 934.186 822.712 936.006 822.062 937.746L820.262 942.896L819.382 945.386L818.442 947.786C817.182 950.946 816.062 953.976 814.772 956.786C813.482 959.596 812.432 962.256 811.182 964.656C809.932 967.056 808.902 969.336 807.822 971.386L804.762 976.916C804.292 977.746 803.872 978.536 803.442 979.256L802.202 981.256L800.202 984.386C799.71 985.279 799.12 986.114 798.442 986.876C798.778 985.91 799.221 984.984 799.762 984.116L801.522 980.876L802.662 978.816C803.052 978.076 803.442 977.276 803.872 976.426L806.712 970.816C807.712 968.746 808.712 966.466 809.862 964.036C811.012 961.606 812.052 958.936 813.242 956.146C814.432 953.356 815.522 950.326 816.722 947.146L817.622 944.746L818.452 942.266L820.162 937.136C820.772 935.396 821.242 933.576 821.802 931.746C822.362 929.916 822.922 928.046 823.432 926.136C824.432 922.286 825.532 918.346 826.432 914.206C826.882 912.146 827.432 910.056 827.812 907.926L829.052 901.436C830.602 892.656 832.052 883.436 832.862 873.716C833.672 863.996 834.312 854.006 834.462 843.716C834.584 824.341 833.583 804.975 831.462 785.716C829.572 767.936 827.162 752.006 824.962 738.656C822.762 725.306 820.812 714.516 819.492 707.056C818.842 703.326 818.332 700.426 818.022 698.456C817.795 697.472 817.678 696.466 817.672 695.456C818.064 696.398 818.349 697.381 818.522 698.386C818.992 700.326 819.662 703.196 820.462 706.896C822.082 714.296 824.302 725.036 826.732 738.376C829.162 751.716 831.732 767.656 833.792 785.496C836.065 804.818 837.147 824.261 837.032 843.716Z" fill="#516D7B"/>
<path d="M862.772 1005.5C868.333 997.244 873.145 988.51 877.152 979.399L879.652 973.179L880.262 971.679C880.452 971.179 880.602 970.679 880.772 970.169L881.772 967.169C882.392 965.219 883.092 963.369 883.582 961.539L884.952 956.259C885.952 952.919 886.382 949.799 886.952 947.089C887.212 945.729 887.492 944.469 887.682 943.299L888.112 940.089C888.652 936.229 889.032 934.089 889.202 934.089C889.372 934.089 889.332 936.269 889.102 940.189L888.892 943.459C888.772 944.649 888.552 945.929 888.362 947.309C887.971 950.451 887.42 953.572 886.712 956.659L885.482 962.049C885.032 963.919 884.372 965.809 883.792 967.799L882.862 970.799C882.702 971.309 882.562 971.799 882.372 972.339L881.782 973.879L879.342 980.329C871.576 999.095 859.956 1016.02 845.232 1030.01L840.172 1034.57L838.952 1035.67C838.542 1036.03 838.102 1036.35 837.682 1036.67L835.192 1038.67C833.542 1039.93 832.022 1041.22 830.432 1042.31L825.842 1045.4C823.217 1047.17 820.503 1048.81 817.712 1050.3C816.492 1050.98 815.372 1051.64 814.302 1052.18L811.302 1053.55C807.722 1055.18 805.722 1056 805.642 1055.84C805.562 1055.68 807.432 1054.56 810.842 1052.67L813.682 1051.11C814.682 1050.51 815.782 1049.79 816.952 1049.11C819.272 1047.61 822.022 1046.11 824.792 1043.95L829.222 1040.77C830.752 1039.66 832.222 1038.34 833.822 1037.06L836.232 1035.06C836.632 1034.72 837.062 1034.4 837.462 1034.06L838.642 1032.95L843.552 1028.38C850.629 1021.34 857.061 1013.69 862.772 1005.5Z" fill="#516D7B"/>
<path d="M874.052 931.616C874.702 927.456 875.112 923.466 875.362 919.826C875.452 918.006 875.572 916.266 875.582 914.646C875.592 913.026 875.632 911.506 875.582 910.116C875.582 904.576 875.302 901.116 875.682 901.116C876.062 901.116 876.872 904.456 877.382 910.116C877.502 911.516 877.622 913.056 877.652 914.716C877.682 916.376 877.652 918.146 877.652 920.016C877.421 928.125 876.133 936.17 873.822 943.946C873.262 945.726 872.742 947.426 872.152 948.946C871.562 950.466 871.012 951.946 870.462 953.236C868.222 958.416 866.332 961.356 866.052 961.236C865.772 961.116 867.052 957.866 868.782 952.616C869.222 951.306 869.702 949.866 870.152 948.306C870.602 946.746 871.082 945.076 871.562 943.306C872.512 939.696 873.342 935.776 874.052 931.616Z" fill="#516D7B"/>
<path d="M1093.91 403.286C1102.69 405.277 1111.57 406.819 1120.51 407.906C1124.64 408.326 1128.56 408.786 1132.26 408.976C1134.1 409.086 1135.88 409.256 1137.6 409.316L1142.53 409.486C1145.67 409.646 1148.53 409.576 1151.02 409.606H1154.51L1157.44 409.536C1160.97 409.476 1162.93 409.536 1162.94 409.696C1162.95 409.856 1161.02 410.156 1157.49 410.526L1154.56 410.816C1153.49 410.896 1152.32 410.946 1151.06 411.006C1148.55 411.116 1145.68 411.316 1142.51 411.266H1137.51C1135.78 411.266 1133.98 411.136 1132.12 411.066C1128.39 410.966 1124.42 410.576 1120.24 410.216C1102.1 408.38 1084.26 404.24 1067.17 397.896C1063.26 396.376 1059.52 394.976 1056.17 393.426C1054.47 392.666 1052.8 391.976 1051.24 391.226L1046.77 389.036C1043.9 387.686 1041.42 386.236 1039.21 385.036C1038.11 384.426 1037.08 383.866 1036.15 383.316L1033.64 381.756C1030.64 379.876 1029.03 378.756 1029.12 378.606C1029.21 378.456 1030.99 379.276 1034.12 380.886L1036.72 382.236L1039.86 383.756C1042.12 384.836 1044.64 386.156 1047.53 387.386L1052.03 389.386C1053.6 390.086 1055.27 390.716 1056.97 391.386C1060.37 392.846 1064.09 394.156 1067.97 395.596C1076.48 398.599 1085.14 401.166 1093.91 403.286Z" fill="#516D7B"/>
<path d="M1142.19 401.299C1148.43 401.919 1154.4 402.229 1159.84 402.359C1162.56 402.359 1165.14 402.439 1167.56 402.359C1169.98 402.279 1172.23 402.259 1174.29 402.169C1182.52 401.809 1187.61 401.289 1187.67 401.679C1187.73 402.069 1182.67 403.139 1174.42 403.969C1172.35 404.169 1170.08 404.369 1167.64 404.469C1165.2 404.569 1162.58 404.659 1159.83 404.699C1154.33 404.699 1148.27 404.459 1141.94 403.829C1135.61 403.199 1129.64 402.179 1124.25 401.069C1121.56 400.469 1119.01 399.919 1116.65 399.269C1114.29 398.619 1112.09 398.019 1110.11 397.409C1102.17 394.929 1097.48 392.779 1097.59 392.489C1097.7 392.199 1102.59 393.659 1110.59 395.669C1112.59 396.169 1114.77 396.669 1117.14 397.209C1119.51 397.749 1122.04 398.209 1124.7 398.759C1130.05 399.739 1135.95 400.639 1142.19 401.299Z" fill="#516D7B"/>
<path d="M1051.48 266.419C1056.72 263.45 1062.12 260.76 1067.64 258.359C1070.2 257.299 1072.64 256.269 1074.96 255.449C1076.12 255.029 1077.23 254.599 1078.32 254.239L1081.45 253.239C1089.45 250.729 1094.58 249.849 1094.65 250.149C1094.72 250.449 1089.81 252.029 1082.04 254.949L1079.04 256.109C1077.98 256.509 1076.9 256.989 1075.77 257.449C1073.5 258.349 1071.14 259.449 1068.63 260.539C1063.63 262.839 1058.28 265.539 1052.78 268.669C1047.28 271.799 1042.25 275.089 1037.78 278.209C1035.56 279.809 1033.42 281.289 1031.49 282.789C1030.49 283.529 1029.57 284.219 1028.68 284.929L1026.14 286.929C1019.68 292.149 1015.89 295.649 1015.61 295.369C1015.33 295.089 1018.74 291.189 1024.97 285.559L1027.44 283.379C1028.3 282.629 1029.24 281.889 1030.19 281.099C1032.08 279.509 1034.19 277.939 1036.41 276.269C1041.26 272.724 1046.29 269.436 1051.48 266.419Z" fill="#516D7B"/>
<path d="M1077.5 263.568C1080.76 262.127 1084.1 260.859 1087.5 259.768C1090.29 258.887 1093.12 258.149 1095.98 257.558C1100.87 256.558 1103.98 256.418 1103.98 256.738C1104.13 257.508 1092.09 259.738 1078.46 265.908C1064.83 272.078 1055.03 279.338 1054.56 278.718C1054.36 278.468 1056.56 276.268 1060.56 273.298C1062.92 271.567 1065.36 269.958 1067.88 268.478C1071 266.672 1074.21 265.033 1077.5 263.568Z" fill="#516D7B"/>
<path d="M1301.13 557.656C1295.74 582.828 1293.48 608.57 1294.4 634.296C1294.76 644.166 1295.51 652.136 1296.03 657.646C1296.55 663.156 1296.92 666.206 1296.74 666.226C1296.44 665.539 1296.25 664.811 1296.17 664.066C1295.89 662.636 1295.48 660.516 1295.05 657.776C1294.23 652.286 1293.2 644.306 1292.61 634.376C1291.13 608.467 1293.15 582.477 1298.61 557.106C1300.26 549.696 1302.06 542.496 1304.11 535.646C1306.16 528.796 1308.21 522.236 1310.11 515.976C1312.01 509.716 1313.73 503.756 1315.11 498.116C1315.84 495.306 1316.37 492.566 1316.95 489.936C1317.53 487.306 1317.95 484.766 1318.23 482.316C1319.4 474.63 1319.65 466.832 1318.98 459.086C1318.8 456.336 1318.4 454.226 1318.21 452.786C1318.04 452.052 1317.98 451.297 1318.04 450.546C1318.37 451.217 1318.6 451.935 1318.72 452.676C1319.28 454.741 1319.7 456.843 1319.97 458.966C1321.04 466.785 1321.05 474.712 1320.02 482.536C1319.79 485.026 1319.29 487.586 1318.89 490.286C1318.49 492.986 1317.89 495.746 1317.17 498.586C1315.89 504.306 1314.23 510.326 1312.39 516.586L1306.55 536.286C1304.53 543.176 1302.77 550.306 1301.13 557.656Z" fill="#516D7B"/>
<path d="M1313.55 949.737C1317.9 961.899 1322.96 973.799 1328.69 985.377L1332.69 993.097C1333.94 995.627 1335.4 997.957 1336.69 1000.27C1337.98 1002.58 1339.23 1004.82 1340.53 1006.91L1344.29 1012.91C1346.61 1016.78 1349.01 1020.08 1351 1023.06C1352 1024.54 1352.93 1025.94 1353.81 1027.19L1356.29 1030.58C1359.29 1034.67 1360.84 1036.98 1360.71 1037.09C1360.58 1037.2 1358.71 1035.09 1355.51 1031.18L1352.84 1027.91C1351.89 1026.69 1350.92 1025.33 1349.84 1023.91C1347.73 1020.99 1345.21 1017.74 1342.78 1013.91L1338.86 1007.96C1337.51 1005.88 1336.25 1003.64 1334.86 1001.35C1333.47 999.057 1332.02 996.717 1330.72 994.187L1326.58 986.457C1314.63 963.258 1305.94 938.521 1300.75 912.947L1299.15 904.317C1298.58 901.527 1298.3 898.777 1297.9 896.137C1297.5 893.497 1297.13 890.947 1296.9 888.477L1296.24 881.387C1295.74 876.877 1295.67 872.767 1295.5 869.167C1295.43 867.367 1295.34 865.697 1295.32 864.167V859.947C1295.39 854.877 1295.51 852.077 1295.68 852.077C1295.85 852.077 1296.07 854.877 1296.31 859.917L1296.49 864.117C1296.58 865.647 1296.75 867.317 1296.88 869.117C1297.19 872.687 1297.39 876.767 1297.99 881.237L1298.81 888.237C1299.1 890.677 1299.57 893.237 1299.96 895.817C1300.35 898.397 1300.72 901.157 1301.33 903.917L1303.03 912.457C1305.81 925.076 1309.33 937.524 1313.55 949.737Z" fill="#516D7B"/>
<path d="M1292.47 901.558C1293.85 908.308 1295.39 914.688 1296.9 920.468C1297.69 923.348 1298.41 926.088 1299.18 928.638C1299.95 931.188 1300.64 933.558 1301.31 935.718C1304 944.348 1305.87 949.638 1305.51 949.788C1305.15 949.938 1302.75 944.838 1299.6 936.298C1298.82 934.158 1297.98 931.818 1297.16 929.298C1296.34 926.778 1295.5 924.018 1294.64 921.128C1292.99 915.338 1291.37 908.908 1289.98 902.128C1288.59 895.348 1287.6 888.768 1286.86 882.788C1286.53 879.788 1286.19 876.958 1286 874.288C1285.81 871.618 1285.62 869.138 1285.5 866.858C1285.07 857.768 1285.37 852.138 1285.68 852.128C1285.99 852.118 1286.41 857.718 1287.3 866.718C1287.53 868.968 1287.77 871.428 1288.1 874.068C1288.43 876.708 1288.79 879.518 1289.19 882.478C1290.04 888.328 1291.12 894.798 1292.47 901.558Z" fill="#516D7B"/>
<path d="M1211.4 1007.97C1216.5 1011.75 1221.9 1015.1 1227.57 1017.97C1230.23 1019.2 1232.72 1020.45 1235.17 1021.35C1236.39 1021.82 1237.54 1022.35 1238.69 1022.72L1242 1023.81C1244.09 1024.57 1246.06 1025 1247.76 1025.48C1248.62 1025.71 1249.41 1025.95 1250.14 1026.12L1252.14 1026.55C1254.58 1027.09 1255.93 1027.47 1255.91 1027.65C1255.89 1027.83 1254.5 1027.78 1251.98 1027.53L1249.89 1027.31C1249.13 1027.2 1248.31 1027.03 1247.43 1026.87C1245.41 1026.53 1243.41 1026.08 1241.43 1025.54L1238 1024.54C1236.81 1024.2 1235.61 1023.72 1234.35 1023.28C1231.81 1022.45 1229.22 1021.28 1226.47 1020.04C1214.64 1014.47 1204.1 1006.47 1195.55 996.576C1193.65 994.256 1191.79 992.086 1190.31 989.856C1189.55 988.756 1188.77 987.736 1188.12 986.686L1186.28 983.686C1185.23 981.944 1184.27 980.148 1183.4 978.306C1183.01 977.496 1182.62 976.756 1182.31 976.056L1181.54 974.056C1180.63 971.696 1180.21 970.366 1180.37 970.306C1180.53 970.246 1181.27 971.436 1182.44 973.636L1183.44 975.476C1183.81 976.136 1184.25 976.836 1184.7 977.596C1185.62 979.106 1186.56 980.886 1187.86 982.696L1189.8 985.586C1190.48 986.586 1191.29 987.586 1192.07 988.586C1193.59 990.706 1195.46 992.776 1197.37 994.996C1201.67 999.713 1206.36 1004.05 1211.4 1007.97Z" fill="#516D7B"/>
<path d="M1248.34 1012.85C1254.65 1015.48 1261.1 1017.73 1267.68 1019.59C1270.73 1020.38 1273.62 1021.18 1276.37 1021.72C1277.74 1022.01 1279.06 1022.33 1280.37 1022.56L1284.06 1023.2C1286.41 1023.66 1288.56 1023.88 1290.44 1024.2L1293.06 1024.57L1295.28 1024.81C1297.94 1025.11 1299.42 1025.36 1299.42 1025.54C1299.42 1025.72 1297.92 1025.8 1295.22 1025.8H1292.97C1292.15 1025.8 1291.26 1025.7 1290.3 1025.64C1288.39 1025.49 1286.2 1025.4 1283.8 1025.05L1280.03 1024.56C1278.72 1024.38 1277.38 1024.1 1275.97 1023.85C1273.16 1023.39 1270.21 1022.65 1267.09 1021.92C1253.6 1018.47 1240.71 1012.99 1228.87 1005.67C1226.18 1003.94 1223.6 1002.32 1221.32 1000.62C1220.17 999.776 1219.03 999.006 1218 998.186L1215 995.816C1213.09 994.336 1211.5 992.816 1210.06 991.556C1209.35 990.906 1208.68 990.316 1208.06 989.746L1206.49 988.136C1204.62 986.186 1203.64 985.056 1203.77 984.936C1203.9 984.816 1205.1 985.696 1207.17 987.406L1208.88 988.836L1210.97 990.466C1212.48 991.626 1214.13 993.026 1216.09 994.386L1219.09 996.596C1220.14 997.366 1221.29 998.086 1222.45 998.876C1224.75 1000.49 1227.33 1002.01 1230.01 1003.66C1235.93 1007.08 1242.05 1010.15 1248.34 1012.85Z" fill="#516D7B"/>
<path d="M1105.19 823.496C1104.86 850.096 1083.27 872.276 1056.41 872.276C1029.55 872.276 1007.96 850.096 1007.63 823.496C1007.53 815.776 995.532 815.756 995.632 823.496C995.751 835.941 999.636 848.059 1006.77 858.254C1013.91 868.448 1023.97 876.241 1035.63 880.606C1059.15 889.366 1086.83 881.886 1102.86 862.606C1112.01 851.615 1117.07 837.796 1117.19 823.496C1117.29 815.776 1105.29 815.766 1105.19 823.496Z" fill="#385868"/>
<path d="M920.902 1064.18C923.162 1087.02 935.442 1107.38 953.112 1121.78C973.112 1138.08 998.052 1145.94 1023.33 1149.29C1073.81 1155.97 1130.56 1150.38 1173.16 1120.29C1194.31 1105.38 1211.16 1085.37 1220.57 1061.15C1223.37 1053.95 1211.77 1050.83 1209 1057.96C1193 1099.15 1152.68 1124.7 1111.07 1134.21C1087 1139.71 1061.92 1140.58 1037.35 1138.7C1013.78 1136.9 989.652 1131.78 969.482 1118.89C950.572 1106.8 935.152 1086.98 932.892 1064.13C932.142 1056.52 920.132 1056.44 920.892 1064.13L920.902 1064.18Z" fill="#385868"/>
<path d="M708.222 1235.88H1444.65C1452.15 1235.88 1459.34 1238.86 1464.64 1244.16C1469.94 1249.46 1472.92 1256.65 1472.92 1264.15V1737.21C1472.92 1741.69 1471.14 1745.99 1467.97 1749.17C1464.8 1752.34 1460.49 1754.12 1456.01 1754.12H696.862C692.377 1754.12 688.076 1752.34 684.905 1749.17C681.733 1745.99 679.952 1741.69 679.952 1737.21V1264.15C679.952 1256.65 682.93 1249.46 688.232 1244.16C693.534 1238.86 700.724 1235.88 708.222 1235.88Z" fill="#256075"/>
<path d="M1444.21 1234.74H713.032C695.962 1234.74 682.132 1247.8 682.132 1263.9V1279.29C682.132 1263.19 695.962 1250.13 713.032 1250.13H1444.21C1461.28 1250.13 1475.11 1263.19 1475.11 1279.29V1263.9C1475.11 1247.79 1461.28 1234.74 1444.21 1234.74Z" fill="#347888"/>
<path d="M1480.26 1759.11H677.112V1263.38C677.12 1254.76 680.545 1246.5 686.636 1240.41C692.727 1234.32 700.987 1230.89 709.602 1230.88H1447.78C1456.4 1230.89 1464.65 1234.32 1470.75 1240.41C1476.84 1246.5 1480.26 1254.76 1480.27 1263.38L1480.26 1759.11ZM687.112 1749.11H1470.26V1263.38C1470.25 1257.41 1467.88 1251.7 1463.67 1247.48C1459.45 1243.26 1453.73 1240.89 1447.77 1240.88H709.602C703.638 1240.89 697.921 1243.26 693.704 1247.48C689.488 1251.7 687.117 1257.41 687.112 1263.38V1749.11Z" fill="#385868"/>
<path d="M513.592 1699.74C500.485 1699.7 487.684 1695.78 476.804 1688.47C465.924 1681.16 457.455 1670.79 452.465 1658.67C447.475 1646.55 446.189 1633.22 448.769 1620.37C451.349 1607.52 457.68 1595.73 466.961 1586.47C476.242 1577.22 488.058 1570.92 500.915 1568.38C513.773 1565.83 527.096 1567.16 539.201 1572.18C551.307 1577.21 561.652 1585.71 568.93 1596.61C576.208 1607.51 580.092 1620.32 580.092 1633.43C580.047 1651.03 573.02 1667.9 560.553 1680.33C548.086 1692.76 531.198 1699.74 513.592 1699.74ZM513.592 1585.13C504.045 1585.16 494.723 1588.03 486.803 1593.36C478.884 1598.69 472.721 1606.25 469.094 1615.08C465.467 1623.91 464.538 1633.62 466.424 1642.98C468.31 1652.34 472.927 1660.93 479.692 1667.67C486.457 1674.4 495.066 1678.99 504.433 1680.83C513.8 1682.68 523.504 1681.71 532.32 1678.05C541.136 1674.38 548.669 1668.19 553.968 1660.25C559.267 1652.31 562.094 1642.97 562.092 1633.43C562.05 1620.6 556.92 1608.3 547.828 1599.25C538.736 1590.2 526.424 1585.12 513.592 1585.13Z" fill="#385868"/>
<path d="M541.092 1584.18V1606.3C535.092 1672.64 475.602 1724.74 403.092 1724.74C330.582 1724.74 271.092 1672.64 265.092 1606.3V1584.18C265.667 1577.74 266.754 1571.36 268.342 1565.1C269.019 1562.43 270.566 1560.06 272.739 1558.36C274.912 1556.67 277.587 1555.74 280.342 1555.74H525.802C528.558 1555.74 531.232 1556.67 533.405 1558.36C535.578 1560.06 537.125 1562.43 537.802 1565.1C539.404 1571.36 540.504 1577.74 541.092 1584.18Z" fill="#68B9E1"/>
<path d="M541.092 1560.74C541.095 1563.76 540.786 1566.78 540.172 1569.74H385.932C385.932 1587.41 372.622 1601.74 356.202 1601.74H354.342C350.384 1601.71 346.474 1600.87 342.86 1599.26C339.245 1597.64 336.004 1595.3 333.342 1592.37C327.687 1586.19 324.575 1578.11 324.632 1569.74H267.012C266.398 1566.78 266.089 1563.76 266.092 1560.74H541.092Z" fill="#ACD8F8"/>
<path d="M404.092 1729.74C367.962 1729.74 333.432 1717.11 306.882 1694.18C280.332 1671.25 264.142 1640.26 261.112 1606.75V1606.3V1583.73C261.722 1577.03 262.862 1570.39 264.522 1563.87C265.47 1560.12 267.638 1556.8 270.683 1554.42C273.729 1552.05 277.479 1550.75 281.342 1550.74H526.802C530.674 1550.74 534.436 1552.03 537.491 1554.41C540.547 1556.79 542.722 1560.11 543.672 1563.87C545.329 1570.39 546.466 1577.03 547.072 1583.73V1584.18V1606.75C544.072 1640.26 527.782 1671.31 501.302 1694.18C474.822 1717.05 440.222 1729.74 404.092 1729.74ZM271.092 1606.07C273.942 1636.9 288.962 1665.49 313.422 1686.61C338.162 1707.97 370.362 1719.74 404.092 1719.74C437.822 1719.74 470.032 1707.98 494.762 1686.61C519.212 1665.49 534.242 1636.9 537.092 1606.07V1584.41C536.526 1578.31 535.483 1572.27 533.972 1566.34C533.568 1564.74 532.643 1563.33 531.345 1562.31C530.047 1561.3 528.448 1560.75 526.802 1560.75H281.342C279.696 1560.75 278.097 1561.3 276.799 1562.31C275.501 1563.33 274.576 1564.74 274.172 1566.34C272.661 1572.27 271.618 1578.31 271.052 1584.41L271.092 1606.07Z" fill="#385868"/>
<path d="M255.092 1710.74H551.092C551.092 1721.61 546.772 1732.04 539.083 1739.73C531.394 1747.42 520.966 1751.74 510.092 1751.74H296.092C285.218 1751.74 274.79 1747.42 267.101 1739.73C259.412 1732.04 255.092 1721.61 255.092 1710.74Z" fill="#68B9E1"/>
<path d="M545.092 1712.74C545.08 1715.77 544.745 1718.78 544.092 1721.74H383.732C383.732 1739.41 369.882 1753.74 352.812 1753.74H350.882C346.793 1753.73 342.748 1752.9 338.989 1751.29C335.231 1749.68 331.837 1747.32 329.012 1744.37C323.171 1738.29 319.926 1730.17 319.962 1721.74H260.042C259.389 1718.78 259.054 1715.77 259.042 1712.74H545.092Z" fill="#ACD8F8"/>
<path d="M511.092 1756.74H297.092C284.896 1756.73 273.204 1751.87 264.58 1743.25C255.956 1734.63 251.105 1722.93 251.092 1710.74V1705.74H557.092V1710.74C557.079 1722.93 552.228 1734.63 543.604 1743.25C534.98 1751.87 523.288 1756.73 511.092 1756.74ZM261.442 1715.74C262.658 1724.33 266.932 1732.2 273.481 1737.89C280.03 1743.59 288.414 1746.73 297.092 1746.74H511.092C519.77 1746.73 528.152 1743.58 534.701 1737.89C541.249 1732.2 545.524 1724.33 546.742 1715.74H261.442Z" fill="#385868"/>
<path d="M541.092 1585.24H468.092V1592.24H541.092V1585.24Z" fill="#385868"/>
<g opacity="0.4">
<path opacity="0.4" d="M945.982 747.237C967.394 747.237 984.752 737.835 984.752 726.237C984.752 714.639 967.394 705.237 945.982 705.237C924.57 705.237 907.212 714.639 907.212 726.237C907.212 737.835 924.57 747.237 945.982 747.237Z" fill="white"/>
<path opacity="0.4" d="M1166.71 747.237C1188.12 747.237 1205.48 737.835 1205.48 726.237C1205.48 714.639 1188.12 705.237 1166.71 705.237C1145.3 705.237 1127.94 714.639 1127.94 726.237C1127.94 737.835 1145.3 747.237 1166.71 747.237Z" fill="white"/>
</g>
</g>
</svg>
