<svg width="1604" height="853" viewBox="0 0 1604 853" fill="none" xmlns="http://www.w3.org/2000/svg">
<g clip-path="url(#clip0_238_391)">
<mask id="mask0_238_391" style="mask-type:luminance" maskUnits="userSpaceOnUse" x="0" y="0" width="1604" height="853">
<path d="M1603.77 0.598633H0.770996V852.599H1603.77V0.598633Z" fill="white"/>
</mask>
<g mask="url(#mask0_238_391)">
<path d="M577.251 337.122H388.081C374.748 337.122 363.94 347.935 363.94 361.273V814.459C363.94 827.797 374.748 838.609 388.081 838.609H577.251C590.584 838.609 601.392 827.797 601.392 814.459V361.273C601.392 347.935 590.584 337.122 577.251 337.122Z" fill="#E0F0F5"/>
<path d="M902.627 185.356H709.104C696.973 185.356 687.139 195.193 687.139 207.329V823.234C687.139 835.369 696.973 845.207 709.104 845.207H902.627C914.758 845.207 924.591 835.369 924.591 823.234V207.329C924.591 195.193 914.758 185.356 902.627 185.356Z" fill="#E0F0F5"/>
<path d="M1216.66 7.19629H1028.28C1014.73 7.19629 1003.74 18.1861 1003.74 31.7427V814.063C1003.74 827.619 1014.73 838.609 1028.28 838.609H1216.66C1230.21 838.609 1241.19 827.619 1241.19 814.063V31.7427C1241.19 18.1861 1230.21 7.19629 1216.66 7.19629Z" fill="#E0F0F5"/>
<path d="M1244.49 538.444V816.373C1244.5 819.599 1243.87 822.795 1242.64 825.777C1241.41 828.759 1239.6 831.469 1237.32 833.75C1235.04 836.031 1232.33 837.839 1229.35 839.069C1226.37 840.3 1223.18 840.929 1219.95 840.92H1031.64C1028.41 840.928 1025.22 840.3 1022.23 839.07C1019.25 837.841 1016.53 836.034 1014.25 833.754C1011.96 831.473 1010.15 828.765 1008.91 825.782C1007.68 822.8 1007.04 819.602 1007.04 816.373V560.285C1007.04 549.785 1011.21 539.715 1018.63 532.29C1026.05 524.865 1036.12 520.694 1046.61 520.694C1057.11 520.694 1067.18 524.865 1074.6 532.29C1082.02 539.715 1086.19 549.785 1086.19 560.285V615.383C1086.19 625.883 1090.36 635.953 1097.78 643.378C1105.2 650.803 1115.27 654.974 1125.76 654.974C1136.26 654.974 1146.33 650.803 1153.75 643.378C1161.17 635.953 1165.34 625.883 1165.34 615.383V538.444C1165.34 527.944 1169.51 517.874 1176.93 510.449C1184.35 503.024 1194.42 498.853 1204.92 498.853C1215.41 498.853 1225.48 503.024 1232.9 510.449C1240.32 517.874 1244.49 527.944 1244.49 538.444Z" fill="#BDDFE9"/>
<path d="M920.964 423.697V820.4C920.973 823.625 920.344 826.821 919.114 829.803C917.884 832.785 916.077 835.495 913.797 837.776C911.517 840.057 908.809 841.865 905.828 843.095C902.847 844.326 899.652 844.955 896.428 844.946H708.115C704.887 844.955 701.689 844.326 698.705 843.097C695.72 841.867 693.008 840.06 690.722 837.78C688.437 835.5 686.623 832.791 685.386 829.808C684.149 826.826 683.512 823.629 683.512 820.4V590.705C683.512 580.205 687.682 570.135 695.104 562.71C702.525 555.285 712.592 551.114 723.088 551.114C733.584 551.114 743.65 555.285 751.072 562.71C758.493 570.135 762.663 580.205 762.663 590.705V619.409C762.663 629.909 766.832 639.979 774.254 647.404C781.676 654.829 791.742 659 802.238 659C812.734 659 822.8 654.829 830.222 647.404C837.644 639.979 841.814 629.909 841.814 619.409V423.697C841.814 413.197 845.983 403.127 853.405 395.702C860.827 388.277 870.893 384.106 881.389 384.106C891.885 384.106 901.951 388.277 909.373 395.702C916.795 403.127 920.964 413.197 920.964 423.697Z" fill="#BDDFE9"/>
<path d="M604.69 545.042V809.774C604.699 813 604.07 816.196 602.84 819.178C601.61 822.16 599.803 824.869 597.523 827.15C595.243 829.431 592.534 831.239 589.553 832.47C586.572 833.7 583.378 834.329 580.153 834.32H391.84C388.613 834.329 385.415 833.701 382.43 832.471C379.446 831.241 376.733 829.435 374.448 827.154C372.162 824.874 370.349 822.165 369.112 819.183C367.875 816.2 367.238 813.003 367.238 809.774V580.08C367.238 569.58 371.407 559.509 378.829 552.085C386.251 544.66 396.317 540.489 406.813 540.489C417.309 540.489 427.375 544.66 434.797 552.085C442.219 559.509 446.389 569.58 446.389 580.08V608.783C446.389 619.283 450.558 629.354 457.98 636.778C465.402 644.203 475.468 648.374 485.964 648.374C496.46 648.374 506.526 644.203 513.948 636.778C521.37 629.354 525.539 619.283 525.539 608.783V545.042C525.539 534.541 529.709 524.471 537.131 517.046C544.552 509.622 554.619 505.451 565.115 505.451C575.611 505.451 585.677 509.622 593.099 517.046C600.52 524.471 604.69 534.541 604.69 545.042Z" fill="#BDDFE9"/>
<path d="M1293.17 122.735C1299.47 122.735 1304.58 117.624 1304.58 111.319C1304.58 105.015 1299.47 99.9033 1293.17 99.9033C1286.87 99.9033 1281.76 105.015 1281.76 111.319C1281.76 117.624 1286.87 122.735 1293.17 122.735Z" fill="#EEF0F1"/>
<path d="M1326.55 193.208C1320.28 193.166 1314.21 190.952 1309.39 186.941C1304.57 182.931 1301.29 177.374 1300.11 171.215C1298.92 165.056 1299.91 158.676 1302.9 153.162C1305.88 147.649 1310.69 143.342 1316.5 140.975C1322.3 138.608 1328.75 138.327 1334.74 140.18C1340.73 142.034 1345.89 145.907 1349.35 151.14C1352.8 156.373 1354.34 162.643 1353.69 168.881C1353.05 175.12 1350.26 180.942 1345.81 185.356C1340.68 190.425 1333.75 193.249 1326.55 193.208ZM1326.55 145.765C1321.3 146.063 1316.36 148.358 1312.75 152.18C1309.14 156.002 1307.13 161.061 1307.13 166.319C1307.13 171.578 1309.14 176.637 1312.75 180.459C1316.36 184.281 1321.3 186.576 1326.55 186.874C1329.24 186.9 1331.92 186.393 1334.43 185.381C1336.93 184.37 1339.21 182.874 1341.13 180.98C1343.06 179.086 1344.59 176.83 1345.64 174.343C1346.69 171.855 1347.24 169.185 1347.26 166.484C1347.29 161.047 1345.17 155.816 1341.37 151.934C1337.56 148.052 1332.38 145.835 1326.94 145.765H1326.55Z" fill="#EEF0F1"/>
<path d="M479.368 759.427C521.26 759.427 555.221 725.453 555.221 683.544C555.221 641.635 521.26 607.661 479.368 607.661C437.476 607.661 403.515 641.635 403.515 683.544C403.515 725.453 437.476 759.427 479.368 759.427Z" fill="#A3CAD3"/>
<path d="M485.964 719.838C527.856 719.838 561.816 685.864 561.816 643.955C561.816 602.046 527.856 568.072 485.964 568.072C444.071 568.072 410.111 602.046 410.111 643.955C410.111 685.864 444.071 719.838 485.964 719.838Z" fill="white"/>
<path d="M479.368 733.035C463.061 733.035 447.121 728.197 433.562 719.134C420.004 710.071 409.436 697.189 403.196 682.117C396.955 667.046 395.322 650.462 398.504 634.462C401.685 618.462 409.537 603.765 421.068 592.23C432.599 580.695 447.29 572.839 463.283 569.657C479.277 566.474 495.854 568.107 510.92 574.35C525.985 580.593 538.862 591.165 547.922 604.729C556.981 618.293 561.817 634.24 561.817 650.553C561.782 672.418 553.084 693.377 537.63 708.838C522.175 724.298 501.224 733 479.368 733.035ZM479.368 581.269C465.67 581.269 452.28 585.332 440.891 592.945C429.502 600.558 420.625 611.379 415.383 624.039C410.141 636.699 408.77 650.63 411.442 664.07C414.114 677.51 420.71 689.855 430.396 699.545C440.082 709.234 452.422 715.833 465.857 718.506C479.291 721.18 493.217 719.808 505.872 714.564C518.527 709.32 529.343 700.439 536.953 689.045C544.563 677.652 548.625 664.256 548.625 650.553C548.608 632.183 541.305 614.571 528.321 601.581C515.336 588.591 497.731 581.286 479.368 581.269Z" fill="#183154"/>
<path d="M1125.77 317.326C1167.66 317.326 1201.62 283.352 1201.62 241.443C1201.62 199.534 1167.66 165.56 1125.77 165.56C1083.87 165.56 1049.91 199.534 1049.91 241.443C1049.91 283.352 1083.87 317.326 1125.77 317.326Z" fill="#BDDFE9"/>
<path d="M1132.36 284.333C1174.25 284.333 1208.21 250.359 1208.21 208.45C1208.21 166.541 1174.25 132.567 1132.36 132.567C1090.47 132.567 1056.51 166.541 1056.51 208.45C1056.51 250.359 1090.47 284.333 1132.36 284.333Z" fill="#8FDAFF"/>
<path d="M1201.62 211.093C1201.65 228.042 1196.01 244.513 1185.59 257.877C1175.17 271.242 1160.58 280.729 1144.14 284.823C1127.7 288.917 1110.36 287.383 1094.9 280.466C1079.43 273.548 1066.73 261.646 1058.82 246.659C1069.75 252.527 1081.96 255.588 1094.37 255.567C1107.48 255.634 1120.39 252.294 1131.83 245.875C1143.27 239.456 1152.85 230.177 1159.63 218.945C1166.41 207.714 1170.16 194.915 1170.51 181.799C1170.87 168.683 1167.81 155.7 1161.65 144.119C1173.76 150.594 1183.89 160.252 1190.93 172.052C1197.97 183.853 1201.67 197.35 1201.62 211.093Z" fill="#38609B"/>
<path d="M1125.7 290.932C1110.56 290.938 1095.71 286.778 1082.78 278.908C1069.85 271.037 1059.33 259.759 1052.37 246.308C1045.42 232.856 1042.3 217.751 1043.35 202.643C1044.4 187.536 1049.59 173.01 1058.34 160.654C1067.1 148.298 1079.08 138.59 1092.98 132.591C1106.88 126.591 1122.16 124.533 1137.15 126.641C1152.14 128.748 1166.26 134.941 1177.97 144.54C1189.68 154.14 1198.52 166.776 1203.53 181.067C1207.86 193.509 1209.16 206.807 1207.31 219.852C1205.46 232.897 1200.53 245.311 1192.91 256.06C1185.3 266.809 1175.22 275.582 1163.53 281.648C1151.84 287.714 1138.87 290.897 1125.7 290.932ZM1125.7 139.166C1110.98 139.157 1096.64 143.835 1084.76 152.523C1072.87 161.211 1064.06 173.458 1059.6 187.49C1055.13 201.522 1055.25 216.611 1059.93 230.572C1064.61 244.533 1073.62 256.641 1085.63 265.142C1097.65 273.643 1112.06 278.097 1126.78 277.858C1141.5 277.619 1155.76 272.7 1167.5 263.812C1179.23 254.925 1187.84 242.531 1192.06 228.426C1196.29 214.321 1195.92 199.236 1191 185.356C1186.2 171.863 1177.35 160.184 1165.66 151.915C1153.97 143.647 1140.02 139.194 1125.7 139.166Z" fill="#183154"/>
<path d="M878.024 323.923C876.54 323.899 875.107 323.376 873.957 322.437C872.807 321.498 872.008 320.199 871.687 318.749C871.367 317.299 871.545 315.784 872.192 314.447C872.839 313.111 873.918 312.032 875.254 311.385L1046.75 229.762C1048.3 229.152 1050.02 229.153 1051.58 229.765C1053.13 230.376 1054.39 231.553 1055.11 233.059C1055.83 234.564 1055.95 236.286 1055.45 237.878C1054.95 239.47 1053.87 240.814 1052.42 241.639L880.927 323.263C880.027 323.715 879.031 323.942 878.024 323.923Z" fill="#183154"/>
<path d="M360.642 122.142L420.731 244.017L515.646 251.341L449.687 297.53L489.262 475.69L373.834 417.03L373.768 377.372L251.81 422.902L263.353 358.435L271.598 271.136L300.488 244.017L360.642 122.142Z" fill="#BDDFE9"/>
<path opacity="0.3" d="M14.2923 496.211C18.6463 491.942 23.8023 488.578 29.4627 486.313C35.1232 484.047 41.176 482.926 47.2718 483.014H197.658C209.904 483.014 221.647 478.147 230.306 469.485C238.965 460.823 243.829 449.074 243.829 436.824C243.829 424.574 238.965 412.825 230.306 404.163C221.647 395.501 209.904 390.634 197.658 390.634H110.46C98.2151 390.634 86.4712 385.768 77.8124 377.106C69.1537 368.444 64.2892 356.695 64.2892 344.445C64.2892 332.195 69.1537 320.446 77.8124 311.784C86.4712 303.122 98.2151 298.255 110.46 298.255H323.97C333.626 298.255 342.887 302.093 349.715 308.924C356.543 315.754 360.379 325.019 360.379 334.679V816.172C360.379 825.833 356.543 835.097 349.715 841.928C342.887 848.759 333.626 852.596 323.97 852.596H261.111C273.356 852.596 285.1 847.73 293.759 839.068C302.417 830.405 307.282 818.657 307.282 806.407C307.282 794.156 302.417 782.408 293.759 773.746C285.1 765.083 273.356 760.217 261.111 760.217H46.942C34.6966 760.217 22.9528 755.351 14.294 746.689C5.6352 738.026 0.770741 726.278 0.770741 714.028C0.770741 701.777 5.6352 690.029 14.294 681.367C22.9528 672.704 34.6966 667.838 46.942 667.838H163.953C176.199 667.838 187.942 662.972 196.601 654.309C205.26 645.647 210.124 633.899 210.124 621.648C210.124 609.398 205.26 597.65 196.601 588.987C187.942 580.325 176.199 575.459 163.953 575.459H46.942C34.6966 575.459 22.9528 570.592 14.294 561.93C5.6352 553.268 0.770741 541.519 0.770741 529.269C0.704563 523.145 1.86715 517.069 4.1897 511.402C6.51225 505.735 9.94756 500.592 14.2923 496.277" fill="#BDDFE9"/>
<path opacity="0.3" d="M1243.9 136V618.021C1243.89 622.815 1244.83 627.564 1246.66 631.995C1248.49 636.427 1251.17 640.453 1254.56 643.843C1257.95 647.233 1261.98 649.92 1266.4 651.751C1270.83 653.582 1275.58 654.52 1280.37 654.511H1343.43C1331.18 654.511 1319.44 649.645 1310.78 640.982C1302.12 632.32 1297.26 620.572 1297.26 608.321C1297.26 596.071 1302.12 584.323 1310.78 575.66C1319.44 566.998 1331.18 562.132 1343.43 562.132H1557.4C1569.65 562.132 1581.39 557.265 1590.05 548.603C1598.71 539.941 1603.57 528.192 1603.57 515.942C1603.57 503.692 1598.71 491.943 1590.05 483.281C1581.39 474.619 1569.65 469.753 1557.4 469.753H1440.59C1428.34 469.753 1416.6 464.886 1407.94 456.224C1399.28 447.562 1394.42 435.813 1394.42 423.563C1394.42 411.313 1399.28 399.564 1407.94 390.902C1416.6 382.24 1428.34 377.373 1440.59 377.373H1557.4C1569.65 377.373 1581.39 372.507 1590.05 363.845C1598.71 355.182 1603.57 343.434 1603.57 331.184C1603.57 318.933 1598.71 307.185 1590.05 298.523C1581.39 289.861 1569.65 284.994 1557.4 284.994H1406.82C1394.57 284.994 1382.83 280.128 1374.17 271.466C1365.51 262.803 1360.65 251.055 1360.65 238.805C1360.65 226.554 1365.51 214.806 1374.17 206.144C1382.83 197.481 1394.57 192.615 1406.82 192.615H1494.08C1506.33 192.615 1518.07 187.749 1526.73 179.086C1535.39 170.424 1540.25 158.676 1540.25 146.425C1540.25 134.175 1535.39 122.427 1526.73 113.764C1518.07 105.102 1506.33 100.235 1494.08 100.235H1280.37C1270.82 100.217 1261.64 103.956 1254.82 110.647C1247.99 117.337 1244.07 126.443 1243.9 136Z" fill="#BDDFE9"/>
<path d="M1185.66 477.605C1197.24 477.605 1206.63 468.21 1206.63 456.621C1206.63 445.033 1197.24 435.638 1185.66 435.638C1174.07 435.638 1164.68 445.033 1164.68 456.621C1164.68 468.21 1174.07 477.605 1185.66 477.605Z" fill="#BDDFE9"/>
<path opacity="0.5" d="M1149.05 493.313C1154.84 493.313 1159.54 488.615 1159.54 482.821C1159.54 477.027 1154.84 472.329 1149.05 472.329C1143.26 472.329 1138.56 477.027 1138.56 482.821C1138.56 488.615 1143.26 493.313 1149.05 493.313Z" fill="#BDDFE9"/>
<path d="M773.546 528.413C785.13 528.413 794.521 519.019 794.521 507.43C794.521 495.841 785.13 486.447 773.546 486.447C761.962 486.447 752.571 495.841 752.571 507.43C752.571 519.019 761.962 528.413 773.546 528.413Z" fill="#BDDFE9"/>
<path opacity="0.5" d="M736.873 544.117C742.665 544.117 747.36 539.42 747.36 533.626C747.36 527.831 742.665 523.134 736.873 523.134C731.081 523.134 726.385 527.831 726.385 533.626C726.385 539.42 731.081 544.117 736.873 544.117Z" fill="#BDDFE9"/>
<path d="M473.893 520.562C485.478 520.562 494.868 511.167 494.868 499.578C494.868 487.99 485.478 478.595 473.893 478.595C462.309 478.595 452.918 487.99 452.918 499.578C452.918 511.167 462.309 520.562 473.893 520.562Z" fill="#BDDFE9"/>
<path opacity="0.5" d="M437.22 536.266C443.012 536.266 447.708 531.569 447.708 525.774C447.708 519.98 443.012 515.283 437.22 515.283C431.428 515.283 426.733 519.98 426.733 525.774C426.733 531.569 431.428 536.266 437.22 536.266Z" fill="#BDDFE9"/>
<path d="M773.545 193.935H901.11C901.11 197.785 899.581 201.477 896.86 204.2C894.139 206.922 890.448 208.452 886.599 208.452H788.122C784.274 208.452 780.583 206.922 777.861 204.2C775.14 201.477 773.611 197.785 773.611 193.935H773.545Z" fill="white"/>
<path d="M577.779 845.207H388.543C380.268 845.207 372.333 841.919 366.482 836.066C360.631 830.212 357.344 822.274 357.344 813.996V365.297C357.344 357.02 360.631 349.081 366.482 343.228C372.333 337.375 380.268 334.086 388.543 334.086H577.779C586.053 334.086 593.989 337.375 599.84 343.228C605.691 349.081 608.978 357.02 608.978 365.297V813.996C608.978 822.274 605.691 830.212 599.84 836.066C593.989 841.919 586.053 845.207 577.779 845.207ZM388.543 347.085C383.767 347.085 379.187 348.983 375.81 352.361C372.433 355.74 370.536 360.322 370.536 365.099V813.798C370.51 816.18 370.956 818.544 371.85 820.753C372.743 822.961 374.065 824.97 375.74 826.664C377.414 828.358 379.408 829.702 381.606 830.62C383.804 831.538 386.161 832.01 388.543 832.01H577.779C582.549 831.993 587.119 830.089 590.493 826.715C593.866 823.34 595.768 818.768 595.786 813.996V365.297C595.786 360.52 593.889 355.938 590.512 352.559C587.135 349.181 582.555 347.283 577.779 347.283L388.543 347.085Z" fill="#183154"/>
<path d="M896.889 845.209H707.653C699.379 845.209 691.443 841.921 685.592 836.068C679.742 830.214 676.455 822.276 676.455 813.998V214.259C676.455 205.982 679.742 198.043 685.592 192.19C691.443 186.337 699.379 183.048 707.653 183.048H896.889C905.164 183.048 913.099 186.337 918.95 192.19C924.801 198.043 928.088 205.982 928.088 214.259V813.998C928.088 822.276 924.801 830.214 918.95 836.068C913.099 841.921 905.164 845.209 896.889 845.209ZM707.653 196.245C702.877 196.245 698.297 198.143 694.92 201.521C691.544 204.9 689.646 209.482 689.646 214.259V813.998C689.646 818.776 691.544 823.358 694.92 826.736C698.297 830.114 702.877 832.012 707.653 832.012H896.889C901.66 831.995 906.23 830.091 909.603 826.717C912.976 823.342 914.879 818.77 914.896 813.998V214.259C914.896 209.482 912.999 204.9 909.622 201.521C906.245 198.143 901.665 196.245 896.889 196.245H707.653Z" fill="#183154"/>
<path d="M1005.65 191.955C1003.9 191.955 1002.23 191.26 1000.99 190.022C999.754 188.785 999.059 187.107 999.059 185.357V160.084C999.059 158.334 999.754 156.656 1000.99 155.418C1002.23 154.181 1003.9 153.486 1005.65 153.486C1007.4 153.486 1009.08 154.181 1010.32 155.418C1011.55 156.656 1012.25 158.334 1012.25 160.084V185.357C1012.25 187.107 1011.55 188.785 1010.32 190.022C1009.08 191.26 1007.4 191.955 1005.65 191.955Z" fill="#183154"/>
<path d="M1005.65 221.585C1003.9 221.585 1002.23 220.89 1000.99 219.653C999.754 218.415 999.059 216.737 999.059 214.987V209.51C999.059 207.76 999.754 206.082 1000.99 204.844C1002.23 203.607 1003.9 202.911 1005.65 202.911C1007.4 202.911 1009.08 203.607 1010.32 204.844C1011.55 206.082 1012.25 207.76 1012.25 209.51V214.987C1012.25 216.737 1011.55 218.415 1010.32 219.653C1009.08 220.89 1007.4 221.585 1005.65 221.585Z" fill="#183154"/>
<path d="M1219.49 845.208H1030.26C1021.98 845.208 1014.05 841.92 1008.2 836.067C1002.35 830.213 999.059 822.275 999.059 813.997V237.221C999.059 235.471 999.754 233.793 1000.99 232.555C1002.23 231.318 1003.9 230.622 1005.65 230.622C1007.4 230.622 1009.08 231.318 1010.32 232.555C1011.55 233.793 1012.25 235.471 1012.25 237.221V813.997C1012.27 818.769 1014.17 823.341 1017.54 826.716C1020.92 830.09 1025.49 831.994 1030.26 832.011H1219.49C1224.27 832.011 1228.85 830.113 1232.23 826.735C1235.6 823.357 1237.5 818.775 1237.5 813.997V799.942C1237.5 798.192 1238.19 796.514 1239.43 795.276C1240.67 794.039 1242.35 793.344 1244.1 793.344C1245.84 793.344 1247.52 794.039 1248.76 795.276C1250 796.514 1250.69 798.192 1250.69 799.942V813.997C1250.69 822.275 1247.4 830.213 1241.55 836.067C1235.7 841.92 1227.77 845.208 1219.49 845.208Z" fill="#183154"/>
<path d="M1244.1 649.959C1242.35 649.959 1240.67 649.263 1239.43 648.026C1238.19 646.789 1237.5 645.11 1237.5 643.36V31.8096C1237.5 27.032 1235.6 22.4501 1232.23 19.0718C1228.85 15.6935 1224.27 13.7956 1219.49 13.7956H1030.26C1025.49 13.813 1020.92 15.7165 1017.54 19.091C1014.17 22.4655 1012.27 27.0373 1012.25 31.8096V135.935C1012.25 137.685 1011.55 139.363 1010.32 140.6C1009.08 141.838 1007.4 142.533 1005.65 142.533C1003.9 142.533 1002.23 141.838 1000.99 140.6C999.754 139.363 999.059 137.685 999.059 135.935V31.8096C999.059 23.5319 1002.35 15.5933 1008.2 9.74011C1014.05 3.88692 1021.98 0.598633 1030.26 0.598633H1219.49C1227.77 0.598633 1235.7 3.88692 1241.55 9.74011C1247.4 15.5933 1250.69 23.5319 1250.69 31.8096V643.36C1250.69 645.11 1250 646.789 1248.76 648.026C1247.52 649.263 1245.84 649.959 1244.1 649.959Z" fill="#183154"/>
<path d="M1105.32 158.173C1104.44 158.287 1103.56 158.048 1102.86 157.51C1102.16 156.972 1101.7 156.178 1101.59 155.303C1101.48 154.428 1101.72 153.543 1102.25 152.844C1102.79 152.145 1103.59 151.688 1104.46 151.575L1106.37 151.113C1106.79 151.005 1107.23 150.984 1107.66 151.049C1108.09 151.114 1108.5 151.265 1108.87 151.493C1109.24 151.721 1109.56 152.021 1109.81 152.375C1110.06 152.729 1110.24 153.13 1110.33 153.554C1110.53 154.403 1110.38 155.295 1109.93 156.037C1109.47 156.779 1108.74 157.31 1107.89 157.513L1106.17 157.975L1105.32 158.173Z" fill="white"/>
<path d="M1070.29 204.231C1069.86 204.214 1069.43 204.111 1069.04 203.93C1068.65 203.748 1068.29 203.49 1068 203.172C1067.71 202.853 1067.48 202.48 1067.33 202.072C1067.18 201.665 1067.11 201.233 1067.13 200.799C1067.13 199.48 1068.78 168.599 1095.03 155.336C1095.81 154.944 1096.71 154.877 1097.54 155.149C1098.36 155.421 1099.05 156.01 1099.45 156.787C1099.65 157.171 1099.77 157.592 1099.81 158.025C1099.85 158.458 1099.8 158.893 1099.66 159.306C1099.52 159.719 1099.31 160.1 1099.02 160.427C1098.74 160.753 1098.39 161.019 1098 161.208C1075.11 172.822 1073.72 200.799 1073.72 200.799C1073.74 201.255 1073.67 201.709 1073.5 202.134C1073.33 202.559 1073.08 202.945 1072.76 203.267C1072.44 203.589 1072.05 203.842 1071.63 204.007C1071.2 204.173 1070.75 204.249 1070.29 204.231Z" fill="white"/>
<path d="M802.238 447.911C844.13 447.911 878.091 413.938 878.091 372.029C878.091 330.12 844.13 296.146 802.238 296.146C760.346 296.146 726.385 330.12 726.385 372.029C726.385 413.938 760.346 447.911 802.238 447.911Z" fill="#BDDFE9"/>
<path d="M802.238 416.369C844.13 416.369 878.091 382.395 878.091 340.486C878.091 298.577 844.13 264.603 802.238 264.603C760.346 264.603 726.385 298.577 726.385 340.486C726.385 382.395 760.346 416.369 802.238 416.369Z" fill="white"/>
<path d="M545.197 620.859C543.739 620.855 542.325 620.367 541.173 619.473C540.481 618.943 539.901 618.281 539.466 617.525C539.031 616.769 538.75 615.934 538.64 615.069C538.529 614.204 538.591 613.325 538.822 612.484C539.054 611.643 539.449 610.857 539.986 610.169L728.101 367.74C729.207 366.476 730.753 365.682 732.424 365.52C734.095 365.357 735.765 365.838 737.094 366.864C738.423 367.891 739.311 369.386 739.576 371.044C739.841 372.703 739.465 374.4 738.522 375.79L550.408 618.55C549.767 619.3 548.966 619.897 548.064 620.296C547.163 620.696 546.183 620.888 545.197 620.859Z" fill="#183154"/>
<path d="M839.043 275.688C846.34 289.949 848.93 306.158 846.44 321.985C843.949 337.811 836.507 352.44 825.183 363.769C813.858 375.098 799.235 382.543 783.415 385.035C767.595 387.526 751.392 384.935 737.136 377.635C742.544 388.343 750.412 397.616 760.096 404.693C769.78 411.77 781.003 416.449 792.845 418.347C804.686 420.244 816.809 419.305 828.218 415.608C839.626 411.91 849.996 405.559 858.476 397.076C866.956 388.593 873.305 378.219 877.001 366.805C880.697 355.392 881.635 343.265 879.739 331.418C877.842 319.572 873.165 308.345 866.091 298.657C859.016 288.969 849.747 281.098 839.043 275.688Z" fill="#BDDFE9"/>
<path d="M354.046 62.7549L414.135 184.63L548.625 204.161L451.336 299.048L474.289 432.998L354.046 369.784L233.803 432.998L256.757 299.048L159.467 204.161L293.892 184.63L354.046 62.7549Z" fill="#8FDAFF"/>
<path d="M451.336 301.756L474.29 436.102L354.046 372.493L233.803 436.102L246.006 364.773C292.106 358.156 336.495 342.696 376.736 319.243C426.874 289.921 469.242 248.984 500.277 199.875L548.625 206.936L451.336 301.756Z" fill="#38609B"/>
<path d="M385.774 139.168C384.544 139.176 383.337 138.841 382.288 138.2C381.239 137.559 380.39 136.637 379.837 135.539L372.12 119.768C371.405 118.21 371.324 116.434 371.894 114.817C372.465 113.2 373.643 111.869 375.177 111.105C376.712 110.342 378.484 110.206 380.117 110.727C381.75 111.248 383.117 112.384 383.927 113.895L391.71 129.666C392.093 130.446 392.318 131.293 392.372 132.16C392.427 133.027 392.31 133.896 392.028 134.717C391.746 135.539 391.305 136.296 390.73 136.947C390.154 137.597 389.456 138.128 388.676 138.508C387.771 138.946 386.779 139.172 385.774 139.168Z" fill="#183154"/>
<path d="M483.062 450.553L354.047 382.72L225.031 450.553L249.634 306.837L145.287 205.154L289.539 184.171L354.047 53.3877L372.383 90.6033C373.099 92.1616 373.18 93.9373 372.609 95.5543C372.038 97.1713 370.861 98.5025 369.326 99.266C367.791 100.029 366.019 100.165 364.386 99.6444C362.753 99.1236 361.387 97.9872 360.577 96.4759L353.981 83.2789L298.311 196.18L173.649 214.26L263.815 302.218L242.51 426.468L354.047 367.807L465.517 426.468L444.213 302.218L534.444 214.26L409.716 196.18L403.648 183.841C402.87 182.274 402.746 180.463 403.303 178.805C403.859 177.147 405.051 175.778 406.616 174.999C407.395 174.616 408.242 174.391 409.109 174.336C409.975 174.281 410.844 174.398 411.665 174.68C412.486 174.962 413.244 175.404 413.894 175.979C414.544 176.555 415.075 177.253 415.454 178.034L418.489 184.105L562.807 205.154L458.394 306.837L483.062 450.553Z" fill="#183154"/>
<path d="M399.493 167.013C398.275 167.009 397.082 166.668 396.046 166.027C395.01 165.387 394.171 164.472 393.623 163.384L391.182 158.435C390.784 157.65 390.544 156.795 390.476 155.918C390.408 155.041 390.513 154.159 390.785 153.323C391.058 152.487 391.492 151.712 392.064 151.044C392.636 150.375 393.334 149.826 394.118 149.428C394.901 149.029 395.756 148.789 396.633 148.721C397.51 148.653 398.391 148.758 399.227 149.03C400.063 149.303 400.837 149.738 401.505 150.31C402.174 150.882 402.723 151.58 403.121 152.364L405.561 157.313C406.339 158.879 406.463 160.691 405.907 162.348C405.35 164.006 404.158 165.376 402.593 166.155C401.647 166.692 400.582 166.987 399.493 167.013Z" fill="#183154"/>
<g opacity="0.15">
<path opacity="0.15" d="M343.427 286.052C366.595 286.052 385.377 267.263 385.377 244.085C385.377 220.908 366.595 202.119 343.427 202.119C320.259 202.119 301.477 220.908 301.477 244.085C301.477 267.263 320.259 286.052 343.427 286.052Z" fill="white"/>
<path opacity="0.15" d="M295.145 327.026C306.729 327.026 316.12 317.632 316.12 306.043C316.12 294.454 306.729 285.06 295.145 285.06C283.561 285.06 274.17 294.454 274.17 306.043C274.17 317.632 283.561 327.026 295.145 327.026Z" fill="white"/>
</g>
<path d="M356.092 156.651C358.716 156.651 361.232 155.609 363.088 153.752C364.943 151.896 365.985 149.379 365.985 146.754C365.985 144.129 364.943 141.611 363.088 139.755C361.232 137.899 358.716 136.856 356.092 136.856C353.468 136.856 350.951 137.899 349.096 139.755C347.24 141.611 346.198 144.129 346.198 146.754C346.198 149.379 347.24 151.896 349.096 153.752C350.951 155.609 353.468 156.651 356.092 156.651Z" fill="#FDFEFF"/>
<path d="M323.574 224.946C327.318 209.384 333.627 194.554 342.24 181.066C347.319 172.949 334.457 165.493 329.444 173.609C320.153 188.181 313.333 204.19 309.261 220.987C307.15 230.291 321.397 234.184 323.574 224.946Z" fill="#FDFEFF"/>
<path d="M802.238 422.906C785.925 422.919 769.976 418.091 756.407 409.032C742.838 399.974 732.26 387.093 726.012 372.019C719.763 356.945 718.125 340.355 721.304 324.349C724.483 308.343 732.337 293.64 743.872 282.101C755.406 270.562 770.103 262.705 786.103 259.524C802.103 256.344 818.686 257.983 833.754 264.234C848.822 270.485 861.698 281.067 870.753 294.641C879.807 308.215 884.634 324.171 884.621 340.49C884.568 362.332 875.872 383.264 860.433 398.709C844.995 414.154 824.071 422.853 802.238 422.906ZM802.238 271.14C788.54 271.127 775.146 275.177 763.75 282.78C752.353 290.382 743.466 301.194 738.212 313.849C732.958 326.504 731.573 340.434 734.233 353.876C736.892 367.319 743.477 379.67 753.153 389.369C762.83 399.068 775.164 405.678 788.596 408.364C802.028 411.051 815.954 409.692 828.614 404.46C841.274 399.228 852.099 390.358 859.72 378.971C867.341 367.585 871.416 354.193 871.429 340.49C871.429 322.12 864.143 304.501 851.171 291.499C838.199 278.497 820.601 271.175 802.238 271.14Z" fill="#183154"/>
<path d="M1244.49 767.808C1242.74 767.808 1241.06 767.113 1239.83 765.876C1238.59 764.638 1237.89 762.96 1237.89 761.21V720.299C1237.89 718.549 1238.59 716.871 1239.83 715.633C1241.06 714.396 1242.74 713.701 1244.49 713.701C1246.24 713.701 1247.92 714.396 1249.15 715.633C1250.39 716.871 1251.09 718.549 1251.09 720.299V761.21C1251.09 762.96 1250.39 764.638 1249.15 765.876C1247.92 767.113 1246.24 767.808 1244.49 767.808Z" fill="#183154"/>
<path d="M1244.49 695.355C1242.74 695.355 1241.06 694.66 1239.83 693.423C1238.59 692.185 1237.89 690.507 1237.89 688.757V680.905C1237.89 679.155 1238.59 677.476 1239.83 676.239C1241.06 675.001 1242.74 674.306 1244.49 674.306C1246.24 674.306 1247.92 675.001 1249.15 676.239C1250.39 677.476 1251.09 679.155 1251.09 680.905V688.757C1251.09 690.507 1250.39 692.185 1249.15 693.423C1247.92 694.66 1246.24 695.355 1244.49 695.355Z" fill="#183154"/>
</g>
</g>
<defs>
<clipPath id="clip0_238_391">
<rect width="1603" height="852" fill="white" transform="translate(0.770996 0.598633)"/>
</clipPath>
</defs>
</svg>
