<svg width="186" height="186" viewBox="0 0 186 186" fill="none" xmlns="http://www.w3.org/2000/svg">
<path d="M93 96.29C89.173 96.29 73.8652 120.776 73.8652 127.681C73.8652 134.586 89.173 165.343 93 165.343C96.827 165.343 112.135 134.586 112.135 127.681C112.135 120.776 96.827 96.29 93 96.29Z" fill="#F5FCFF" fill-opacity="0.62"/>
<path d="M87.6606 93.7188C85.2745 90.7267 56.5866 94.0251 51.1878 98.3305C45.789 102.636 31.2867 133.781 33.6727 136.773C36.0588 139.765 69.6497 132.556 75.0485 128.251C80.4473 123.946 90.0466 96.7108 87.6606 93.7188Z" fill="#F5FCFF" fill-opacity="0.62"/>
<path d="M86.3418 87.941C87.1933 84.21 66.7279 63.8374 59.9957 62.3008C53.2636 60.7643 19.8716 68.8443 19.02 72.5753C18.1685 76.3063 44.7478 98.0744 51.48 99.6109C58.2121 101.147 85.4902 91.672 86.3418 87.941Z" fill="#F5FCFF" fill-opacity="0.62"/>
<path d="M90.0368 83.3076C93.4847 81.6471 96.6527 52.9445 93.6566 46.723C90.6605 40.5016 63.5237 19.4324 60.0758 21.0929C56.6278 22.7534 56.1808 57.1061 59.1769 63.3276C62.1729 69.549 86.5888 84.9681 90.0368 83.3076Z" fill="#F5FCFF" fill-opacity="0.62"/>
<path d="M95.9632 83.3076C99.4112 84.9681 123.827 69.549 126.823 63.3276C129.819 57.1061 129.372 22.7534 125.924 21.0929C122.476 19.4324 95.3395 40.5016 92.3434 46.723C89.3473 52.9445 92.5153 81.6471 95.9632 83.3076Z" fill="#F5FCFF" fill-opacity="0.62"/>
<path d="M99.6582 87.941C100.51 91.672 127.788 101.147 134.52 99.6109C141.252 98.0744 167.832 76.3063 166.98 72.5753C166.128 68.8443 132.736 60.7643 126.004 62.3008C119.272 63.8374 98.8067 84.21 99.6582 87.941Z" fill="#F5FCFF" fill-opacity="0.62"/>
<path d="M98.3395 93.7188C95.9534 96.7108 105.553 123.946 110.952 128.251C116.35 132.556 149.941 139.765 152.327 136.773C154.713 133.781 140.211 102.636 134.812 98.3305C129.413 94.0251 100.726 90.7267 98.3395 93.7188Z" fill="#F5FCFF" fill-opacity="0.62"/>
<path d="M93 96.29C90.4487 96.29 80.2435 118.322 80.2435 122.698C80.2435 127.074 90.4487 140.049 93 140.049C95.5513 140.049 105.757 127.074 105.757 122.698C105.757 118.322 95.5513 96.29 93 96.29Z" fill="#F5FCFF" fill-opacity="0.62"/>
<path d="M87.6605 93.7188C86.0698 91.7241 62.4818 97.4819 59.0606 100.21C55.6393 102.939 51.8577 119.007 53.4485 121.002C55.0392 122.997 71.5465 122.886 74.9677 120.157C78.389 117.429 89.2513 95.7135 87.6605 93.7188Z" fill="#F5FCFF" fill-opacity="0.62"/>
<path d="M86.3418 87.9406C86.9095 85.4533 67.701 70.6014 63.4348 69.6277C59.1686 68.6539 44.2477 75.716 43.68 78.2034C43.1124 80.6907 53.4914 93.5273 57.7576 94.501C62.0238 95.4748 85.774 90.428 86.3418 87.9406Z" fill="#F5FCFF" fill-opacity="0.62"/>
<path d="M90.0368 83.3079C92.3354 82.201 91.9708 57.9231 90.0721 53.9806C88.1735 50.038 73.3491 42.7755 71.0505 43.8825C68.7519 44.9895 65.187 61.1077 67.0857 65.0503C68.9843 68.9929 87.7381 84.4149 90.0368 83.3079Z" fill="#F5FCFF" fill-opacity="0.62"/>
<path d="M95.9632 83.3079C98.2618 84.4149 117.016 68.9929 118.914 65.0503C120.813 61.1077 117.248 44.9895 114.949 43.8825C112.651 42.7755 97.8265 50.038 95.9278 53.9806C94.0292 57.9231 93.6646 82.201 95.9632 83.3079Z" fill="#F5FCFF" fill-opacity="0.62"/>
<path d="M99.6582 87.9406C100.226 90.428 123.976 95.4748 128.242 94.501C132.509 93.5273 142.888 80.6907 142.32 78.2034C141.752 75.716 126.831 68.6539 122.565 69.6277C118.299 70.6014 99.0906 85.4533 99.6582 87.9406Z" fill="#F5FCFF" fill-opacity="0.62"/>
<path d="M98.3395 93.7188C96.7487 95.7135 107.611 117.429 111.032 120.157C114.453 122.886 130.961 122.997 132.552 121.002C134.142 119.007 130.361 102.939 126.939 100.21C123.518 97.4819 99.9302 91.7241 98.3395 93.7188Z" fill="#F5FCFF" fill-opacity="0.62"/>
<path d="M93 96.29C92.1495 96.29 88.7478 115.05 88.7478 116.053C88.7478 117.057 92.1495 106.323 93 106.323C93.8504 106.323 97.2521 117.057 97.2521 116.053C97.2521 115.05 93.8504 96.29 93 96.29Z" fill="#F5FCFF" fill-opacity="0.62"/>
<path d="M87.6605 93.7185C87.1302 93.0537 70.3421 102.091 69.5577 102.716C68.7733 103.342 79.2859 99.3093 79.8161 99.9742C80.3464 100.639 74.0755 109.991 74.86 109.365C75.6444 108.74 88.1908 94.3834 87.6605 93.7185Z" fill="#F5FCFF" fill-opacity="0.62"/>
<path d="M86.3418 87.9413C86.531 87.1122 68.9983 79.6212 68.0201 79.398C67.0419 79.1747 76.7492 84.8796 76.56 85.7087C76.3707 86.5378 65.1495 87.4658 66.1277 87.6891C67.1059 87.9123 86.1525 88.7704 86.3418 87.9413Z" fill="#F5FCFF" fill-opacity="0.62"/>
<path d="M90.0368 83.3078C90.803 82.9388 85.7282 64.5606 85.2928 63.6566C84.8575 62.7526 86.4497 73.899 85.6835 74.268C84.9173 74.6371 77.1953 66.4426 77.6307 67.3466C78.066 68.2506 89.2706 83.6768 90.0368 83.3078Z" fill="#F5FCFF" fill-opacity="0.62"/>
<path d="M95.9632 83.3078C96.7294 83.6768 107.934 68.2506 108.369 67.3466C108.805 66.4426 101.083 74.6371 100.317 74.268C99.5503 73.899 101.142 62.7526 100.707 63.6566C100.272 64.5606 95.197 82.9388 95.9632 83.3078Z" fill="#F5FCFF" fill-opacity="0.62"/>
<path d="M99.6582 87.9413C99.8475 88.7704 118.894 87.9123 119.872 87.6891C120.85 87.4658 109.629 86.5378 109.44 85.7087C109.251 84.8796 118.958 79.1747 117.98 79.398C117.002 79.6212 99.469 87.1122 99.6582 87.9413Z" fill="#F5FCFF" fill-opacity="0.62"/>
<path d="M98.3395 93.7185C97.8092 94.3834 110.356 108.74 111.14 109.365C111.924 109.991 105.654 100.639 106.184 99.9742C106.714 99.3093 117.227 103.342 116.442 102.716C115.658 102.091 98.8697 93.0537 98.3395 93.7185Z" fill="#F5FCFF" fill-opacity="0.62"/>
</svg>
