<svg width="186" height="186" viewBox="0 0 186 186" fill="none" xmlns="http://www.w3.org/2000/svg">
<path d="M93 96.2886C89.173 96.2886 73.8652 120.774 73.8652 127.679C73.8652 134.584 89.173 165.34 93 165.34C96.827 165.34 112.135 134.584 112.135 127.679C112.135 120.774 96.827 96.2886 93 96.2886Z" fill="#2BB3EE" fill-opacity="0.55"/>
<path d="M87.6606 93.7168C85.2745 90.7248 56.5866 94.0231 51.1878 98.3285C45.789 102.634 31.2867 133.778 33.6727 136.77C36.0588 139.762 69.6497 132.554 75.0485 128.248C80.4473 123.943 90.0466 96.7088 87.6606 93.7168Z" fill="#2BB3EE" fill-opacity="0.55"/>
<path d="M86.3418 87.9395C87.1933 84.2086 66.7279 63.8364 59.9957 62.2999C53.2636 60.7634 19.8716 68.8431 19.02 72.5741C18.1685 76.305 44.7478 98.0726 51.48 99.6091C58.2121 101.146 85.4902 91.6704 86.3418 87.9395Z" fill="#2BB3EE" fill-opacity="0.55"/>
<path d="M90.0368 83.3062C93.4848 81.6458 96.6527 52.9438 93.6567 46.7225C90.6606 40.5012 63.5238 19.4325 60.0758 21.0929C56.6279 22.7533 56.1809 57.1053 59.1769 63.3267C62.173 69.548 86.5889 84.9667 90.0368 83.3062Z" fill="#2BB3EE" fill-opacity="0.55"/>
<path d="M95.9633 83.3062C99.4112 84.9667 123.827 69.548 126.823 63.3267C129.819 57.1053 129.372 22.7533 125.924 21.0929C122.476 19.4325 95.3395 40.5012 92.3434 46.7225C89.3474 52.9438 92.5153 81.6458 95.9633 83.3062Z" fill="#2BB3EE" fill-opacity="0.55"/>
<path d="M99.6582 87.9395C100.51 91.6704 127.788 101.146 134.52 99.6091C141.252 98.0726 167.832 76.305 166.98 72.5741C166.128 68.8431 132.736 60.7634 126.004 62.2999C119.272 63.8364 98.8067 84.2086 99.6582 87.9395Z" fill="#2BB3EE" fill-opacity="0.55"/>
<path d="M98.3394 93.7168C95.9534 96.7088 105.553 123.943 110.951 128.248C116.35 132.554 149.941 139.762 152.327 136.77C154.713 133.778 140.211 102.634 134.812 98.3285C129.413 94.0231 100.725 90.7248 98.3394 93.7168Z" fill="#2BB3EE" fill-opacity="0.55"/>
<path d="M92.9999 96.2886C90.4486 96.2886 80.2434 118.32 80.2434 122.696C80.2434 127.072 90.4486 140.047 92.9999 140.047C95.5513 140.047 105.756 127.072 105.756 122.696C105.756 118.32 95.5513 96.2886 92.9999 96.2886Z" fill="#2BB3EE" fill-opacity="0.55"/>
<path d="M87.6606 93.7173C86.0698 91.7226 62.4818 97.4803 59.0606 100.209C55.6393 102.937 51.8577 119.005 53.4485 121C55.0392 122.995 71.5465 122.883 74.9678 120.155C78.389 117.427 89.2513 95.712 87.6606 93.7173Z" fill="#2BB3EE" fill-opacity="0.55"/>
<path d="M86.3419 87.9392C86.9095 85.4519 67.701 70.6004 63.4348 69.6267C59.1686 68.653 44.2478 75.7149 43.6801 78.2022C43.1124 80.6895 53.4915 93.5258 57.7577 94.4995C62.0239 95.4732 85.7741 90.4265 86.3419 87.9392Z" fill="#2BB3EE" fill-opacity="0.55"/>
<path d="M90.0368 83.3066C92.3354 82.1996 91.9708 57.9223 90.0722 53.9798C88.1735 50.0374 73.3492 42.7751 71.0505 43.882C68.7519 44.989 65.187 61.1069 67.0857 65.0493C68.9843 68.9918 87.7382 84.4135 90.0368 83.3066Z" fill="#2BB3EE" fill-opacity="0.55"/>
<path d="M95.9632 83.3066C98.2619 84.4135 117.016 68.9918 118.914 65.0493C120.813 61.1069 117.248 44.989 114.949 43.882C112.651 42.7751 97.8265 50.0374 95.9279 53.9798C94.0292 57.9223 93.6646 82.1996 95.9632 83.3066Z" fill="#2BB3EE" fill-opacity="0.55"/>
<path d="M99.6583 87.9392C100.226 90.4265 123.976 95.4732 128.243 94.4995C132.509 93.5258 142.888 80.6895 142.32 78.2022C141.752 75.7149 126.832 68.653 122.565 69.6267C118.299 70.6004 99.0906 85.4519 99.6583 87.9392Z" fill="#2BB3EE" fill-opacity="0.55"/>
<path d="M98.3394 93.7173C96.7487 95.712 107.611 117.427 111.032 120.155C114.453 122.883 130.961 122.995 132.552 121C134.142 119.005 130.361 102.937 126.939 100.209C123.518 97.4803 99.9301 91.7226 98.3394 93.7173Z" fill="#2BB3EE" fill-opacity="0.55"/>
<path d="M93 96.2886C92.1495 96.2886 88.7478 115.048 88.7478 116.052C88.7478 117.055 92.1495 106.322 93 106.322C93.8504 106.322 97.2521 117.055 97.2521 116.052C97.2521 115.048 93.8504 96.2886 93 96.2886Z" fill="#2BB3EE" fill-opacity="0.55"/>
<path d="M87.6605 93.7171C87.1302 93.0522 70.3421 102.089 69.5577 102.715C68.7733 103.34 79.2859 99.3077 79.8161 99.9726C80.3464 100.637 74.0755 109.989 74.86 109.363C75.6444 108.738 88.1908 94.3819 87.6605 93.7171Z" fill="#2BB3EE" fill-opacity="0.55"/>
<path d="M86.3418 87.9396C86.5311 87.1106 68.9984 79.6198 68.0202 79.3965C67.042 79.1733 76.7493 84.878 76.5601 85.7071C76.3708 86.5361 65.1496 87.4642 66.1278 87.6874C67.106 87.9107 86.1526 88.7687 86.3418 87.9396Z" fill="#2BB3EE" fill-opacity="0.55"/>
<path d="M90.0367 83.3064C90.8029 82.9374 85.7281 64.5596 85.2928 63.6556C84.8575 62.7517 86.4496 73.8978 85.6834 74.2668C84.9173 74.6358 77.1953 66.4415 77.6306 67.3455C78.066 68.2495 89.2706 83.6754 90.0367 83.3064Z" fill="#2BB3EE" fill-opacity="0.55"/>
<path d="M95.9632 83.3064C96.7293 83.6754 107.934 68.2495 108.369 67.3455C108.805 66.4415 101.083 74.6358 100.316 74.2668C99.5503 73.8978 101.142 62.7517 100.707 63.6556C100.272 64.5596 95.197 82.9374 95.9632 83.3064Z" fill="#2BB3EE" fill-opacity="0.55"/>
<path d="M99.6583 87.9396C99.8475 88.7687 118.894 87.9107 119.872 87.6874C120.85 87.4642 109.629 86.5361 109.44 85.7071C109.251 84.878 118.958 79.1733 117.98 79.3965C117.002 79.6198 99.469 87.1106 99.6583 87.9396Z" fill="#2BB3EE" fill-opacity="0.55"/>
<path d="M98.3395 93.7171C97.8092 94.3819 110.356 108.738 111.14 109.363C111.924 109.989 105.654 100.637 106.184 99.9726C106.714 99.3077 117.227 103.34 116.442 102.715C115.658 102.089 98.8697 93.0522 98.3395 93.7171Z" fill="#2BB3EE" fill-opacity="0.55"/>
</svg>
