<svg width="216" height="216" viewBox="0 0 216 216" fill="none" xmlns="http://www.w3.org/2000/svg">
<rect width="216" height="216" rx="34" fill="#2BB3EE"/>
<path d="M108 111.29C104.173 111.29 88.8652 135.776 88.8652 142.681C88.8652 149.586 104.173 180.343 108 180.343C111.827 180.343 127.135 149.586 127.135 142.681C127.135 135.776 111.827 111.29 108 111.29Z" fill="#F5FCFF" fill-opacity="0.62"/>
<path d="M102.661 108.719C100.275 105.727 71.5866 109.025 66.1878 113.331C60.789 117.636 46.2867 148.781 48.6727 151.773C51.0588 154.765 84.6497 147.556 90.0485 143.251C95.4473 138.946 105.047 111.711 102.661 108.719Z" fill="#F5FCFF" fill-opacity="0.62"/>
<path d="M101.342 102.941C102.193 99.21 81.7279 78.8374 74.9957 77.3008C68.2636 75.7643 34.8716 83.8443 34.02 87.5753C33.1685 91.3063 59.7478 113.074 66.48 114.611C73.2121 116.147 100.49 106.672 101.342 102.941Z" fill="#F5FCFF" fill-opacity="0.62"/>
<path d="M105.037 98.3076C108.485 96.6471 111.653 67.9445 108.657 61.723C105.661 55.5016 78.5237 34.4324 75.0758 36.0929C71.6278 37.7534 71.1808 72.1061 74.1769 78.3276C77.1729 84.549 101.589 99.9681 105.037 98.3076Z" fill="#F5FCFF" fill-opacity="0.62"/>
<path d="M110.963 98.3076C114.411 99.9681 138.827 84.549 141.823 78.3276C144.819 72.1061 144.372 37.7534 140.924 36.0929C137.476 34.4324 110.339 55.5016 107.343 61.723C104.347 67.9445 107.515 96.6471 110.963 98.3076Z" fill="#F5FCFF" fill-opacity="0.62"/>
<path d="M114.658 102.941C115.51 106.672 142.788 116.147 149.52 114.611C156.252 113.074 182.832 91.3063 181.98 87.5753C181.128 83.8443 147.736 75.7643 141.004 77.3008C134.272 78.8374 113.807 99.21 114.658 102.941Z" fill="#F5FCFF" fill-opacity="0.62"/>
<path d="M113.339 108.719C110.953 111.711 120.553 138.946 125.952 143.251C131.35 147.556 164.941 154.765 167.327 151.773C169.713 148.781 155.211 117.636 149.812 113.331C144.413 109.025 115.726 105.727 113.339 108.719Z" fill="#F5FCFF" fill-opacity="0.62"/>
<path d="M108 111.29C105.449 111.29 95.2435 133.322 95.2435 137.698C95.2435 142.074 105.449 155.049 108 155.049C110.551 155.049 120.757 142.074 120.757 137.698C120.757 133.322 110.551 111.29 108 111.29Z" fill="#F5FCFF" fill-opacity="0.62"/>
<path d="M102.661 108.719C101.07 106.724 77.4818 112.482 74.0606 115.21C70.6393 117.939 66.8577 134.007 68.4485 136.002C70.0392 137.997 86.5465 137.886 89.9678 135.157C93.389 132.429 104.251 110.714 102.661 108.719Z" fill="#F5FCFF" fill-opacity="0.62"/>
<path d="M101.342 102.941C101.909 100.453 82.701 85.6014 78.4348 84.6277C74.1686 83.6539 59.2477 90.716 58.68 93.2034C58.1124 95.6907 68.4914 108.527 72.7576 109.501C77.0238 110.475 100.774 105.428 101.342 102.941Z" fill="#F5FCFF" fill-opacity="0.62"/>
<path d="M105.037 98.3079C107.335 97.201 106.971 72.9231 105.072 68.9806C103.174 65.038 88.3492 57.7755 86.0505 58.8825C83.7519 59.9895 80.187 76.1077 82.0857 80.0503C83.9843 83.9929 102.738 99.4149 105.037 98.3079Z" fill="#F5FCFF" fill-opacity="0.62"/>
<path d="M110.963 98.3079C113.262 99.4149 132.016 83.9929 133.914 80.0503C135.813 76.1077 132.248 59.9895 129.949 58.8825C127.651 57.7755 112.827 65.038 110.928 68.9806C109.029 72.9231 108.665 97.201 110.963 98.3079Z" fill="#F5FCFF" fill-opacity="0.62"/>
<path d="M114.658 102.941C115.226 105.428 138.976 110.475 143.242 109.501C147.509 108.527 157.888 95.6907 157.32 93.2034C156.752 90.716 141.831 83.6539 137.565 84.6277C133.299 85.6014 114.091 100.453 114.658 102.941Z" fill="#F5FCFF" fill-opacity="0.62"/>
<path d="M113.339 108.719C111.749 110.714 122.611 132.429 126.032 135.157C129.454 137.886 145.961 137.997 147.552 136.002C149.142 134.007 145.361 117.939 141.939 115.21C138.518 112.482 114.93 106.724 113.339 108.719Z" fill="#F5FCFF" fill-opacity="0.62"/>
<path d="M108 111.29C107.15 111.29 103.748 130.05 103.748 131.053C103.748 132.057 107.15 121.323 108 121.323C108.85 121.323 112.252 132.057 112.252 131.053C112.252 130.05 108.85 111.29 108 111.29Z" fill="#F5FCFF" fill-opacity="0.62"/>
<path d="M102.66 108.719C102.13 108.054 85.3421 117.091 84.5577 117.716C83.7733 118.342 94.2859 114.309 94.8161 114.974C95.3464 115.639 89.0755 124.991 89.86 124.365C90.6444 123.74 103.191 109.383 102.66 108.719Z" fill="#F5FCFF" fill-opacity="0.62"/>
<path d="M101.342 102.941C101.531 102.112 83.9983 94.6212 83.0201 94.398C82.0419 94.1747 91.7492 99.8796 91.56 100.709C91.3707 101.538 80.1495 102.466 81.1277 102.689C82.1059 102.912 101.153 103.77 101.342 102.941Z" fill="#F5FCFF" fill-opacity="0.62"/>
<path d="M105.037 98.3078C105.803 97.9388 100.728 79.5606 100.293 78.6566C99.8575 77.7526 101.45 88.899 100.683 89.268C99.9173 89.6371 92.1953 81.4426 92.6306 82.3466C93.066 83.2506 104.271 98.6768 105.037 98.3078Z" fill="#F5FCFF" fill-opacity="0.62"/>
<path d="M110.963 98.3078C111.729 98.6768 122.934 83.2506 123.369 82.3466C123.805 81.4426 116.083 89.6371 115.317 89.268C114.55 88.899 116.142 77.7526 115.707 78.6566C115.272 79.5606 110.197 97.9388 110.963 98.3078Z" fill="#F5FCFF" fill-opacity="0.62"/>
<path d="M114.658 102.941C114.848 103.77 133.894 102.912 134.872 102.689C135.85 102.466 124.629 101.538 124.44 100.709C124.251 99.8796 133.958 94.1747 132.98 94.398C132.002 94.6212 114.469 102.112 114.658 102.941Z" fill="#F5FCFF" fill-opacity="0.62"/>
<path d="M113.339 108.719C112.809 109.383 125.356 123.74 126.14 124.365C126.924 124.991 120.654 115.639 121.184 114.974C121.714 114.309 132.227 118.342 131.442 117.716C130.658 117.091 113.87 108.054 113.339 108.719Z" fill="#F5FCFF" fill-opacity="0.62"/>
</svg>
