<svg width="196" height="191" viewBox="0 0 196 191" fill="none" xmlns="http://www.w3.org/2000/svg">
<path d="M97.5192 99.2192C92.4759 99.2192 72.3029 131.487 72.3029 140.587C72.3029 149.687 92.4759 190.219 97.5192 190.219C102.562 190.219 122.735 149.687 122.735 140.587C122.735 131.487 102.562 99.2192 97.5192 99.2192Z" fill="#2BB3EE" fill-opacity="0.55"/>
<path d="M90.4827 95.8305C87.3383 91.8875 49.5326 96.2342 42.4179 101.908C35.3032 107.582 16.1917 148.625 19.3361 152.568C22.4805 156.511 66.7475 147.012 73.8622 141.338C80.9769 135.664 93.6271 99.7735 90.4827 95.8305Z" fill="#2BB3EE" fill-opacity="0.55"/>
<path d="M88.7448 88.2166C89.867 83.2998 62.8971 56.4522 54.0253 54.4273C45.1535 52.4024 1.14857 63.0504 0.0263656 67.9672C-1.09583 72.884 33.9312 101.571 42.803 103.595C51.6748 105.62 87.6226 93.1334 88.7448 88.2166Z" fill="#2BB3EE" fill-opacity="0.55"/>
<path d="M93.6142 82.1106C98.158 79.9224 102.333 42.0973 98.3845 33.8985C94.4362 25.6997 58.6746 -2.06578 54.1308 0.12242C49.587 2.31062 48.9979 47.5816 52.9462 55.7804C56.8945 63.9792 89.0704 84.2988 93.6142 82.1106Z" fill="#2BB3EE" fill-opacity="0.55"/>
<path d="M101.424 82.1106C105.968 84.2988 138.144 63.9792 142.092 55.7804C146.04 47.5816 145.451 2.31062 140.908 0.12242C136.364 -2.06578 100.602 25.6997 96.6539 33.8985C92.7056 42.0973 96.8804 79.9224 101.424 82.1106Z" fill="#2BB3EE" fill-opacity="0.55"/>
<path d="M106.294 88.2166C107.416 93.1334 143.364 105.62 152.235 103.595C161.107 101.571 196.134 72.884 195.012 67.9672C193.89 63.0504 149.885 52.4024 141.013 54.4273C132.141 56.4522 105.171 83.2998 106.294 88.2166Z" fill="#2BB3EE" fill-opacity="0.55"/>
<path d="M104.556 95.8305C101.411 99.7735 114.062 135.664 121.176 141.338C128.291 147.012 172.558 156.511 175.702 152.568C178.847 148.625 159.735 107.582 152.621 101.908C145.506 96.2342 107.7 91.8875 104.556 95.8305Z" fill="#2BB3EE" fill-opacity="0.55"/>
<path d="M97.5192 99.2192C94.157 99.2192 80.7083 128.253 80.7083 134.02C80.7083 139.787 94.157 156.886 97.5192 156.886C100.881 156.886 114.33 139.787 114.33 134.02C114.33 128.253 100.881 99.2192 97.5192 99.2192Z" fill="#2BB3EE" fill-opacity="0.55"/>
<path d="M90.4827 95.8306C88.3864 93.2019 57.3015 100.79 52.7929 104.385C48.2843 107.981 43.3008 129.156 45.3971 131.785C47.4934 134.414 69.2472 134.267 73.7558 130.672C78.2644 127.076 92.579 98.4593 90.4827 95.8306Z" fill="#2BB3EE" fill-opacity="0.55"/>
<path d="M88.7448 88.2163C89.4929 84.9384 64.1794 65.3662 58.5573 64.083C52.9352 62.7998 33.2721 72.1064 32.524 75.3843C31.7759 78.6622 45.4537 95.5786 51.0758 96.8618C56.6979 98.145 87.9966 91.4942 88.7448 88.2163Z" fill="#2BB3EE" fill-opacity="0.55"/>
<path d="M93.6142 82.1108C96.6434 80.652 96.1629 48.658 93.6608 43.4624C91.1587 38.2668 71.6228 28.6961 68.5936 30.1549C65.5644 31.6137 60.8665 52.8548 63.3686 58.0504C65.8707 63.246 90.585 83.5696 93.6142 82.1108Z" fill="#2BB3EE" fill-opacity="0.55"/>
<path d="M101.424 82.1108C104.453 83.5696 129.168 63.246 131.67 58.0504C134.172 52.8548 129.474 31.6137 126.445 30.1549C123.416 28.6961 103.88 38.2668 101.378 43.4624C98.8755 48.658 98.395 80.652 101.424 82.1108Z" fill="#2BB3EE" fill-opacity="0.55"/>
<path d="M106.294 88.2163C107.042 91.4942 138.34 98.145 143.963 96.8618C149.585 95.5786 163.263 78.6622 162.514 75.3843C161.766 72.1064 142.103 62.7998 136.481 64.083C130.859 65.3662 105.545 84.9384 106.294 88.2163Z" fill="#2BB3EE" fill-opacity="0.55"/>
<path d="M104.556 95.8306C102.459 98.4593 116.774 127.076 121.283 130.672C125.791 134.267 147.545 134.414 149.641 131.785C151.738 129.156 146.754 107.981 142.245 104.385C137.737 100.79 106.652 93.2019 104.556 95.8306Z" fill="#2BB3EE" fill-opacity="0.55"/>
<path d="M97.5191 99.2192C96.3984 99.2192 91.9155 123.942 91.9155 125.264C91.9155 126.586 96.3984 112.441 97.5191 112.441C98.6398 112.441 103.123 126.586 103.123 125.264C103.123 123.942 98.6398 99.2192 97.5191 99.2192Z" fill="#2BB3EE" fill-opacity="0.55"/>
<path d="M90.4826 95.8307C89.7838 94.9545 67.66 106.864 66.6262 107.688C65.5925 108.513 79.4463 103.198 80.1451 104.075C80.8439 104.951 72.58 117.275 73.6138 116.45C74.6475 115.626 91.1814 96.7069 90.4826 95.8307Z" fill="#2BB3EE" fill-opacity="0.55"/>
<path d="M88.7448 88.2167C88.9942 87.1241 65.8891 77.2523 64.6 76.9581C63.3109 76.6639 76.1035 84.1819 75.8541 85.2745C75.6047 86.3671 60.8171 87.5901 62.1062 87.8843C63.3953 88.1785 88.4954 89.3093 88.7448 88.2167Z" fill="#2BB3EE" fill-opacity="0.55"/>
<path d="M93.6142 82.1105C94.6239 81.6242 87.9362 57.405 87.3625 56.2137C86.7888 55.0224 88.887 69.7114 87.8773 70.1977C86.8676 70.684 76.6914 59.8851 77.2651 61.0764C77.8388 62.2677 92.6045 82.5968 93.6142 82.1105Z" fill="#2BB3EE" fill-opacity="0.55"/>
<path d="M101.424 82.1105C102.434 82.5968 117.2 62.2677 117.773 61.0764C118.347 59.8851 108.171 70.684 107.161 70.1977C106.151 69.7114 108.25 55.0224 107.676 56.2137C107.102 57.405 100.414 81.6242 101.424 82.1105Z" fill="#2BB3EE" fill-opacity="0.55"/>
<path d="M106.294 88.2167C106.543 89.3093 131.643 88.1785 132.932 87.8843C134.221 87.5901 119.434 86.3671 119.184 85.2745C118.935 84.1819 131.727 76.6639 130.438 76.9581C129.149 77.2523 106.044 87.1241 106.294 88.2167Z" fill="#2BB3EE" fill-opacity="0.55"/>
<path d="M104.556 95.8307C103.857 96.7069 120.391 115.626 121.425 116.45C122.458 117.275 114.194 104.951 114.893 104.075C115.592 103.198 129.446 108.513 128.412 107.688C127.378 106.864 105.255 94.9545 104.556 95.8307Z" fill="#2BB3EE" fill-opacity="0.55"/>
</svg>
