<svg width="216" height="216" viewBox="0 0 216 216" fill="none" xmlns="http://www.w3.org/2000/svg">
<rect width="216" height="216" rx="34" fill="white"/>
<path d="M108 111.289C104.173 111.289 88.8652 135.774 88.8652 142.679C88.8652 149.584 104.173 180.34 108 180.34C111.827 180.34 127.135 149.584 127.135 142.679C127.135 135.774 111.827 111.289 108 111.289Z" fill="#2BB3EE" fill-opacity="0.55"/>
<path d="M102.661 108.717C100.275 105.725 71.5866 109.023 66.1878 113.328C60.789 117.634 46.2867 148.778 48.6727 151.77C51.0588 154.762 84.6497 147.554 90.0485 143.248C95.4473 138.943 105.047 111.709 102.661 108.717Z" fill="#2BB3EE" fill-opacity="0.55"/>
<path d="M101.342 102.939C102.193 99.2086 81.7279 78.8364 74.9957 77.2999C68.2636 75.7634 34.8716 83.8431 34.02 87.5741C33.1685 91.305 59.7478 113.073 66.48 114.609C73.2121 116.146 100.49 106.67 101.342 102.939Z" fill="#2BB3EE" fill-opacity="0.55"/>
<path d="M105.037 98.3062C108.485 96.6458 111.653 67.9438 108.657 61.7225C105.661 55.5012 78.5237 34.4325 75.0758 36.0929C71.6278 37.7533 71.1808 72.1053 74.1769 78.3267C77.1729 84.548 101.589 99.9667 105.037 98.3062Z" fill="#2BB3EE" fill-opacity="0.55"/>
<path d="M110.963 98.3062C114.411 99.9667 138.827 84.548 141.823 78.3267C144.819 72.1053 144.372 37.7533 140.924 36.0929C137.476 34.4325 110.339 55.5012 107.343 61.7225C104.347 67.9438 107.515 96.6458 110.963 98.3062Z" fill="#2BB3EE" fill-opacity="0.55"/>
<path d="M114.658 102.939C115.51 106.67 142.788 116.146 149.52 114.609C156.252 113.073 182.832 91.305 181.98 87.5741C181.128 83.8431 147.736 75.7634 141.004 77.2999C134.272 78.8364 113.807 99.2086 114.658 102.939Z" fill="#2BB3EE" fill-opacity="0.55"/>
<path d="M113.339 108.717C110.953 111.709 120.553 138.943 125.952 143.248C131.35 147.554 164.941 154.762 167.327 151.77C169.713 148.778 155.211 117.634 149.812 113.328C144.413 109.023 115.726 105.725 113.339 108.717Z" fill="#2BB3EE" fill-opacity="0.55"/>
<path d="M108 111.289C105.449 111.289 95.2435 133.32 95.2435 137.696C95.2435 142.072 105.449 155.047 108 155.047C110.551 155.047 120.757 142.072 120.757 137.696C120.757 133.32 110.551 111.289 108 111.289Z" fill="#2BB3EE" fill-opacity="0.55"/>
<path d="M102.661 108.717C101.07 106.723 77.4818 112.48 74.0606 115.209C70.6393 117.937 66.8577 134.005 68.4485 136C70.0392 137.995 86.5465 137.883 89.9678 135.155C93.389 132.427 104.251 110.712 102.661 108.717Z" fill="#2BB3EE" fill-opacity="0.55"/>
<path d="M101.342 102.939C101.909 100.452 82.701 85.6004 78.4348 84.6267C74.1686 83.653 59.2477 90.7149 58.68 93.2022C58.1124 95.6895 68.4914 108.526 72.7576 109.5C77.0238 110.473 100.774 105.427 101.342 102.939Z" fill="#2BB3EE" fill-opacity="0.55"/>
<path d="M105.037 98.3066C107.335 97.1996 106.971 72.9223 105.072 68.9798C103.174 65.0374 88.3492 57.7751 86.0505 58.882C83.7519 59.989 80.187 76.1069 82.0857 80.0493C83.9843 83.9918 102.738 99.4135 105.037 98.3066Z" fill="#2BB3EE" fill-opacity="0.55"/>
<path d="M110.963 98.3066C113.262 99.4135 132.016 83.9918 133.914 80.0493C135.813 76.1069 132.248 59.989 129.949 58.882C127.651 57.7751 112.827 65.0374 110.928 68.9798C109.029 72.9223 108.665 97.1996 110.963 98.3066Z" fill="#2BB3EE" fill-opacity="0.55"/>
<path d="M114.658 102.939C115.226 105.427 138.976 110.473 143.242 109.5C147.509 108.526 157.888 95.6895 157.32 93.2022C156.752 90.7149 141.831 83.653 137.565 84.6267C133.299 85.6004 114.091 100.452 114.658 102.939Z" fill="#2BB3EE" fill-opacity="0.55"/>
<path d="M113.339 108.717C111.749 110.712 122.611 132.427 126.032 135.155C129.454 137.883 145.961 137.995 147.552 136C149.142 134.005 145.361 117.937 141.939 115.209C138.518 112.48 114.93 106.723 113.339 108.717Z" fill="#2BB3EE" fill-opacity="0.55"/>
<path d="M108 111.289C107.15 111.289 103.748 130.048 103.748 131.052C103.748 132.055 107.15 121.322 108 121.322C108.85 121.322 112.252 132.055 112.252 131.052C112.252 130.048 108.85 111.289 108 111.289Z" fill="#2BB3EE" fill-opacity="0.55"/>
<path d="M102.66 108.717C102.13 108.052 85.3421 117.089 84.5577 117.715C83.7733 118.34 94.2859 114.308 94.8161 114.973C95.3464 115.637 89.0755 124.989 89.86 124.363C90.6444 123.738 103.191 109.382 102.66 108.717Z" fill="#2BB3EE" fill-opacity="0.55"/>
<path d="M101.342 102.94C101.531 102.111 83.9983 94.6198 83.0201 94.3965C82.0419 94.1733 91.7492 99.878 91.56 100.707C91.3707 101.536 80.1495 102.464 81.1277 102.687C82.1059 102.911 101.153 103.769 101.342 102.94Z" fill="#2BB3EE" fill-opacity="0.55"/>
<path d="M105.037 98.3064C105.803 97.9374 100.728 79.5596 100.293 78.6556C99.8575 77.7517 101.45 88.8978 100.683 89.2668C99.9173 89.6358 92.1953 81.4415 92.6306 82.3455C93.066 83.2495 104.271 98.6754 105.037 98.3064Z" fill="#2BB3EE" fill-opacity="0.55"/>
<path d="M110.963 98.3064C111.729 98.6754 122.934 83.2495 123.369 82.3455C123.805 81.4415 116.083 89.6358 115.317 89.2668C114.55 88.8978 116.142 77.7517 115.707 78.6556C115.272 79.5596 110.197 97.9374 110.963 98.3064Z" fill="#2BB3EE" fill-opacity="0.55"/>
<path d="M114.658 102.94C114.848 103.769 133.894 102.911 134.872 102.687C135.85 102.464 124.629 101.536 124.44 100.707C124.251 99.878 133.958 94.1733 132.98 94.3965C132.002 94.6198 114.469 102.111 114.658 102.94Z" fill="#2BB3EE" fill-opacity="0.55"/>
<path d="M113.339 108.717C112.809 109.382 125.356 123.738 126.14 124.363C126.924 124.989 120.654 115.637 121.184 114.973C121.714 114.308 132.227 118.34 131.442 117.715C130.658 117.089 113.87 108.052 113.339 108.717Z" fill="#2BB3EE" fill-opacity="0.55"/>
</svg>
