<svg width="200" height="200" viewBox="0 0 200 200" xmlns="http://www.w3.org/2000/svg">
  <!-- Human silhouette in the center -->
  <g transform="translate(100, 100)">
    <!-- Head -->
    <circle cx="0" cy="-25" r="12" fill="#1e3a8a"/>
    
    <!-- Body -->
    <path d="M-8 -13 L-12 20 L12 20 L8 -13 Z" fill="#1e3a8a"/>
    
    <!-- Arms -->
    <path d="M-8 -5 Q-15 -15 -20 -10 Q-15 -5 -8 -5" fill="#1e3a8a"/>
    <path d="M8 -5 Q15 -15 20 -10 Q15 -5 8 -5" fill="#1e3a8a"/>
  </g>
  
  <!-- Leaf shapes radiating around the figure -->
  <!-- Top leaves -->
  <path d="M100 30 Q110 20 120 30 Q110 40 100 30" fill="#3b82f6"/>
  <path d="M100 25 Q105 15 110 25 Q105 35 100 25" fill="#1e3a8a"/>
  
  <!-- Top-right leaves -->
  <path d="M130 50 Q140 40 150 50 Q140 60 130 50" fill="#3b82f6"/>
  <path d="M125 45 Q130 35 135 45 Q130 55 125 45" fill="#1e3a8a"/>
  
  <!-- Right leaves -->
  <path d="M150 80 Q160 70 170 80 Q160 90 150 80" fill="#3b82f6"/>
  <path d="M145 75 Q150 65 155 75 Q150 85 145 75" fill="#1e3a8a"/>
  
  <!-- Bottom-right leaves -->
  <path d="M130 130 Q140 120 150 130 Q140 140 130 130" fill="#3b82f6"/>
  <path d="M125 125 Q130 115 135 125 Q130 135 125 125" fill="#1e3a8a"/>
  
  <!-- Bottom leaves -->
  <path d="M100 170 Q110 160 120 170 Q110 180 100 170" fill="#3b82f6"/>
  <path d="M100 165 Q105 155 110 165 Q105 175 100 165" fill="#1e3a8a"/>
  
  <!-- Bottom-left leaves -->
  <path d="M70 130 Q80 120 90 130 Q80 140 70 130" fill="#3b82f6"/>
  <path d="M75 125 Q80 115 85 125 Q80 135 75 125" fill="#1e3a8a"/>
  
  <!-- Left leaves -->
  <path d="M50 80 Q60 70 70 80 Q60 90 50 80" fill="#3b82f6"/>
  <path d="M55 75 Q60 65 65 75 Q60 85 55 75" fill="#1e3a8a"/>
  
  <!-- Top-left leaves -->
  <path d="M70 50 Q80 40 90 50 Q80 60 70 50" fill="#3b82f6"/>
  <path d="M75 45 Q80 35 85 45 Q80 55 75 45" fill="#1e3a8a"/>
</svg> 